SplineFontDB: 3.0
FontName: StickNoBills-Light
FullName: Stick No Bills
FamilyName: Stick No Bills
OS2FamilyName: "Stick No Bills Regular"
OS2StyleName: "regular"
Weight: light
Copyright: Copyright (c) 2015 mooniak (http://mooniak.com) (c) 2015 Tharique Azeez(zeezat@gmail.com)
UComments: "2015-2-15: Created with FontForge (http://fontforge.org) The  Free Font Editor"
Version: 1.0
ItalicAngle: 0
UnderlinePosition: -99
UnderlineWidth: 49
Ascent: 800
Descent: 200
InvalidEm: 0
UFOAscent: 800
UFODescent: -200
LayerCount: 2
Layer: 0 0 "Back" 1
Layer: 1 0 "Fore" 0
PreferredKerning: 4
FSType: 0
OS2Version: 0
OS2_WeightWidthSlopeOnly: 0
OS2_UseTypoMetrics: 0
CreationTime: 1453142462
ModificationTime: 1453156194
PfmFamily: 16
TTFWeight: 400
TTFWidth: 5
LineGap: 92
VLineGap: 0
OS2TypoAscent: 800
OS2TypoAOffset: 0
OS2TypoDescent: -200
OS2TypoDOffset: 0
OS2TypoLinegap: 92
OS2WinAscent: 896
OS2WinAOffset: 0
OS2WinDescent: 200
OS2WinDOffset: 0
HheadAscent: 896
HheadAOffset: 0
HheadDescent: -200
HheadDOffset: 0
OS2CapHeight: 0
OS2XHeight: 0
OS2Vendor: 'PfEd'
OS2UnicodeRanges: 00000002.00000000.00000000.00000000
MarkAttachClasses: 1
DEI: 91125
LangName: 1033 "Remove All VKern Pairs" "" "" "" "" "Version 1.0.1" "" "STICK NO BILLS is a trademark of STICK NO BILLS Gallery, Sri Lanka <http://sticknobillsonline.com>" "mooniak <http://mooniak.com>" "Martyn Hodges <allroundboatbuilder@yahoo.com> , Kosala Senavirathne <kosala@mooniak.com>, mooniak <hello@mooniak.com>" "Stick No Bills - is the bespoke typeface of STICK NO BILLS+ISIA Poster Gallery in Galle, Sri Lanka. " "https://github.com/mooniak/stick-no-bills-font" "http://type.mooniak.com/" "This Font Software is licensed under the SIL Open Font License, Version 1.1. This license is available with a FAQ at: http://scripts.sil.org/OFL" "" "" "Stick No Bills" "Regular"
PickledDataWithLists: "(dp1
S'com.schriftgestaltung.glyphOrder'
p2
(lp3
S'A'
aS'Aacute'
p4
aS'Acircumflex'
p5
aS'Adieresis'
p6
aS'Agrave'
p7
aS'Aring'
p8
aS'Atilde'
p9

StartChar: dottedcircle
Encoding: 1 9676 0
GlifName: dottedcircle
Width: 636
VWidth: 0
GlyphClass: 2
Flags: HW
LayerCount: 2
Back
Fore
SplineSet
167.958 483.58 m 256
 167.958 502.58 182.958 517.58 201.958 517.58 c 256
 220.958 517.58 235.958 502.58 235.958 483.58 c 256
 235.958 464.58 220.958 449.58 201.958 449.58 c 256
 182.958 449.58 167.958 464.58 167.958 483.58 c 256
82.4199 398.042 m 256
 82.4199 417.042 97.4199 432.042 116.42 432.042 c 256
 135.42 432.042 150.42 417.042 150.42 398.042 c 256
 150.42 379.042 135.42 364.042 116.42 364.042 c 256
 97.4199 364.042 82.4199 379.042 82.4199 398.042 c 256
167.958 72.4199 m 256
 167.958 91.4199 182.958 106.42 201.958 106.42 c 256
 220.958 106.42 235.958 91.4199 235.958 72.4199 c 256
 235.958 53.4199 220.958 38.4199 201.958 38.4199 c 256
 182.958 38.4199 167.958 53.4199 167.958 72.4199 c 256
82.4199 157.958 m 256
 82.4199 176.958 97.4199 191.958 116.42 191.958 c 256
 135.42 191.958 150.42 176.958 150.42 157.958 c 256
 150.42 138.958 135.42 123.958 116.42 123.958 c 256
 97.4199 123.958 82.4199 138.958 82.4199 157.958 c 256
408.042 72.4199 m 256
 408.042 91.4199 423.042 106.42 442.042 106.42 c 256
 461.042 106.42 476.042 91.4199 476.042 72.4199 c 256
 476.042 53.4199 461.042 38.4199 442.042 38.4199 c 256
 423.042 38.4199 408.042 53.4199 408.042 72.4199 c 256
493.58 157.958 m 256
 493.58 176.958 508.58 191.958 527.58 191.958 c 256
 546.58 191.958 561.58 176.958 561.58 157.958 c 256
 561.58 138.958 546.58 123.958 527.58 123.958 c 256
 508.58 123.958 493.58 138.958 493.58 157.958 c 256
493.58 398.042 m 256
 493.58 417.042 508.58 432.042 527.58 432.042 c 256
 546.58 432.042 561.58 417.042 561.58 398.042 c 256
 561.58 379.042 546.58 364.042 527.58 364.042 c 256
 508.58 364.042 493.58 379.042 493.58 398.042 c 256
408.042 483.58 m 256
 408.042 502.58 423.042 517.58 442.042 517.58 c 256
 461.042 517.58 476.042 502.58 476.042 483.58 c 256
 476.042 464.58 461.042 449.58 442.042 449.58 c 256
 423.042 449.58 408.042 464.58 408.042 483.58 c 256
526 278 m 256
 526 297 541 312 560 312 c 256
 579 312 594 297 594 278 c 256
 594 259 579 244 560 244 c 256
 541 244 526 259 526 278 c 256
288 40 m 256
 288 59 303 74 322 74 c 256
 341 74 356 59 356 40 c 256
 356 21 341 6 322 6 c 256
 303 6 288 21 288 40 c 256
50 278 m 256
 50 297 65 312 84 312 c 256
 103 312 118 297 118 278 c 256
 118 259 103 244 84 244 c 256
 65 244 50 259 50 278 c 256
288 516 m 256
 288 535 303 550 322 550 c 256
 341 550 356 535 356 516 c 256
 356 497 341 482 322 482 c 256
 303 482 288 497 288 516 c 256
EndSplineSet
EndChar

StartChar: tml_A
Encoding: 3 2949 2
GlifName: tml_A_
Width: 975
VWidth: 0
GlyphClass: 2
Flags: W
HStem: -127 122 110 125 205 119 373 122 562 122
VStem: 20 122 206 116 479 110 662 122 743 41<192 393 224 232> 834 122 834 3
LayerCount: 2
Back
Fore
SplineSet
323 460 m 256
 323 460 283 460 283 460 c 257
 283 460 294 289 473 289 c 256
 562 289 637 346 642 409 c 256
 610 443 l 256
 610 375 544 329 473 329 c 256
 393 329 331 376 323 460 c 256
285 516 m 256
 325 516 l 257
 325 589 412 655 539 655 c 256
 653 655 744 583 744 396 c 258
 744 224 l 257
 784 224 l 257
 784 393 l 257
 784 585 694 695 539 695 c 256
 310 695 285 552 285 516 c 256
464 192 m 257
 500 192 708 192 744 192 c 257
 744 69 l 257
 744 -29 693 -86 629 -87 c 258
 466 -87 l 257
 466 -127 l 256
 628 -127 l 258
 728 -127 785 -35 785 67 c 257
 784 232 l 257
 711 232 537 232 464 232 c 257
 464 192 l 257
60 72 m 256
 60 -47 151 -127 263 -127 c 258
 411 -127 l 257
 411 -87 l 257
 261 -87 l 258
 201 -87 100 -48 100 72 c 256
 100 196 232 191 256 191 c 258
 410 191 l 257
 410 233 l 257
 274 233 l 258
 144 233 60 188 60 72 c 256
743 192 m 257
 877 192 l 257
 877 232 l 257
 743 232 l 257
 743 192 l 257
875 -107 m 257
 915 -107 l 257
 915 578 l 257
 875 578 l 257
 875 -107 l 257
EndSplineSet
PickledDataWithLists: "(dp1
S'com.fontlab.hintData'
p2
(dp3
S'vhints'
p4
(lp5
(dp6
S'position'
p7
I20
sS'width'
p8
I122
sa(dp9
g7
I206
sg8
I116
sa(dp10
g7
I479
sg8
I110
sa(dp11
g7
I662
sg8
I122
sa(dp12
g7
I743
sg8
I41
sa(dp13
g7
I834
sg8
I122
sa(dp14
g7
I834
sg8
I3
sasS'hhints'
p15
(lp16
(dp17
g7
I-127
sg8
I122
sa(dp18
g7
I110
sg8
I125
sa(dp19
g7
I205
sg8
I119
sa(dp20
g7
I373
sg8
I122
sa(dp21
g7
I562
sg8
I122
sass."
EndChar

StartChar: tml_Aa
Encoding: 4 2950 3
GlifName: tml_A_a
Width: 1221
VWidth: 0
GlyphClass: 2
Flags: W
HStem: -293 122 -127 122 205 119 373 122 562 122
VStem: 39 122 225 116 498 110 681 122 762 41 853 122 853 3 1073 122
LayerCount: 2
Back
Fore
SplineSet
683 -178 m 257
 683 -218 l 257
 946 -218 l 258
 1119 -218 1157 -126 1157 -26 c 258
 1157 21 l 258
 1157 168 1081 190 990 190 c 257
 990 151 l 256
 1075 151 1117 127 1117 21 c 258
 1117 -30 l 258
 1117 -155 1036 -177 953 -177 c 258
 683 -178 l 257
EndSplineSet
Refer: 2 2949 N 1 0 0 1 0 0 2
PickledDataWithLists: "(dp1
S'com.fontlab.hintData'
p2
(dp3
S'vhints'
p4
(lp5
(dp6
S'position'
p7
I39
sS'width'
p8
I122
sa(dp9
g7
I225
sg8
I116
sa(dp10
g7
I498
sg8
I110
sa(dp11
g7
I681
sg8
I122
sa(dp12
g7
I762
sg8
I41
sa(dp13
g7
I853
sg8
I122
sa(dp14
g7
I853
sg8
I3
sa(dp15
g7
I1073
sg8
I122
sasS'hhints'
p16
(lp17
(dp18
g7
I-293
sg8
I122
sa(dp19
g7
I-127
sg8
I122
sa(dp20
g7
I205
sg8
I119
sa(dp21
g7
I373
sg8
I122
sa(dp22
g7
I562
sg8
I122
sass."
EndChar

StartChar: tml_Above
Encoding: 5 3064 4
GlifName: tml_A_bove
Width: 1434
VWidth: 0
GlyphClass: 2
Flags: W
LayerCount: 2
Back
Fore
SplineSet
189 94 m 257
 205 94 264 75 264 -6 c 256
 264 -99 201 -108 189 -108 c 256
 189 -148 l 257
 259 -148 304 -82 304 -15 c 258
 304 6 l 258
 304 62 254 134 189 134 c 256
 189 94 l 257
40 7 m 258
 40 -13 l 258
 40 -85 97 -148 157 -148 c 256
 157 -108 l 257
 143 -108 80 -88 80 -6 c 256
 80 78 145 94 157 94 c 256
 157 134 l 257
 96 134 40 69 40 7 c 258
40 -5 m 256
 80 -6 l 256
 80 141 l 258
 80 239 140 319 303 319 c 258
 454 319 l 257
 454 359 l 257
 303 359 l 258
 180 359 40 311 40 142 c 258
 40 -5 l 256
EndSplineSet
Refer: 155 2999 N 1 0 0 1 262 0 2
EndChar

StartChar: tml_Ai
Encoding: 6 2960 5
GlifName: tml_A_i
Width: 893
VWidth: 0
GlyphClass: 2
Flags: W
HStem: -180 122 158 122 307 125 569 127
VStem: 12 122 27 122 274 122 433 122 756 122
LayerCount: 2
Back
Fore
SplineSet
258 -180 m 257
 258 -140 l 257
 186 -140 105 -78 105 46 c 256
 105 172 182 196 227 196 c 258
 275 196 l 257
 275 196 275 233 275 236 c 258
 234 236 l 258
 110 236 65 138 65 64 c 258
 65 25 l 258
 65 -57 132 -180 258 -180 c 257
312 -180 m 257
 369 -180 453 -170 491 -105 c 257
 518 -162 569 -180 616 -180 c 257
 616 -140 l 257
 572 -140 513 -114 513 9 c 258
 513 118 l 256
 474 117 l 256
 474 8 l 258
 474 -129 383 -140 312 -140 c 257
 312 -180 l 257
16 515 m 256
 56 515 l 256
 56 598 143 654 270 654 c 256
 384 654 465 594 474 394 c 258
 475 371 l 257
 514 371 l 257
 514 392 l 257
 514 584 425 694 270 694 c 256
 28 694 16 528 16 515 c 256
689 197 m 256
 761 197 839 248 839 387 c 258
 839 502 l 257
 839 617 761 678 675 684 c 257
 675 644 l 257
 712 639 799 618 799 502 c 257
 799 502 799 419 799 419 c 258
 799 358 793 238 689 238 c 256
 689 197 l 256
204 288 m 256
 293 288 368 345 373 408 c 257
 341 442 l 257
 341 374 275 328 204 328 c 256
 94 328 54 412 54 459 c 256
 54 459 14 459 14 459 c 256
 14 451 25 288 204 288 c 256
475 371 m 257
 514 371 l 257
 514 464 l 258
 514 620 586 637 621 644 c 257
 621 684 l 257
 533 676 475 606 475 480 c 258
 475 371 l 257
670 -180 m 257
 770 -180 824 -87 824 -3 c 258
 824 118 l 257
 784 118 l 257
 784 -3 l 258
 784 -85 732 -140 670 -140 c 257
 670 -180 l 257
347 196 m 257
 623 196 l 257
 623 196 623 236 623 236 c 256
 347 236 l 257
 347 196 l 257
EndSplineSet
PickledDataWithLists: "(dp1
S'com.fontlab.hintData'
p2
(dp3
S'vhints'
p4
(lp5
(dp6
S'position'
p7
I12
sS'width'
p8
I122
sa(dp9
g7
I27
sg8
I122
sa(dp10
g7
I274
sg8
I122
sa(dp11
g7
I433
sg8
I122
sa(dp12
g7
I756
sg8
I122
sasS'hhints'
p13
(lp14
(dp15
g7
I-180
sg8
I122
sa(dp16
g7
I158
sg8
I122
sa(dp17
g7
I307
sg8
I125
sa(dp18
g7
I569
sg8
I127
sass."
EndChar

StartChar: tml_Anusvara
Encoding: 7 2946 6
GlifName: tml_A_nusvara
Width: 228
VWidth: 0
GlyphClass: 2
Flags: W
LayerCount: 2
Back
Fore
SplineSet
66 851 m 256
 66 828 85 809 108 809 c 256
 131 809 150 828 150 851 c 256
 150 874 131 893 108 893 c 256
 85 893 66 874 66 851 c 256
38 851 m 256
 38 890 69 921 108 921 c 256
 147 921 178 890 178 851 c 256
 178 812 147 781 108 781 c 256
 69 781 38 812 38 851 c 256
EndSplineSet
EndChar

StartChar: tml_CI
Encoding: 10 -1 9
GlifName: tml_C_I_
Width: 778
VWidth: 0
GlyphClass: 2
Flags: W
LayerCount: 2
Back
Fore
SplineSet
608 719 m 257
 694 719 698 652 698 590 c 258
 698 1 l 257
 738 1 l 257
 738 593 l 258
 738 695 705 759 608 759 c 257
 608 719 l 257
423 591 m 257
 463 591 l 256
 463 652 474 719 554 719 c 256
 554 719 l 256
 554 759 l 257
 554 759 l 256
 460 759 423 695 423 591 c 257
 423 591 l 257
EndSplineSet
Refer: 15 2970 N 1 0 0 1 0 0 2
EndChar

StartChar: tml_CI.alt
Encoding: 11 -1 10
GlifName: tml_C_I_.alt
Width: 868
VWidth: 0
GlyphClass: 2
Flags: W
LayerCount: 2
Back
Fore
SplineSet
68 580 m 257
 68 580 118 576 119 576 c 256
 173 704 303 770 420 770 c 257
 420 770 l 256
 420 809 l 257
 420 809 l 257
 138 809 68 580 68 580 c 257
474 770 m 257
 576 770 787 732 787 445 c 258
 787 68 l 257
 828 68 l 257
 828 448 l 258
 827 705 674 809 474 809 c 257
 474 770 l 257
80 274 m 257
 113 308 l 257
 92 381 88 457 98 513 c 256
 98 512 51 514 51 514 c 257
 51 514 28 374 80 274 c 257
EndSplineSet
Refer: 15 2970 N 1 0 0 1 0 0 2
EndChar

StartChar: tml_CIi
Encoding: 12 -1 11
GlifName: tml_C_I_i
Width: 757
VWidth: 0
GlyphClass: 2
Flags: W
LayerCount: 2
Back
Fore
SplineSet
423 471 m 257
 463 471 l 257
 463 593 l 256
 388 751 488 859 570 859 c 257
 668 859 676 792 676 777 c 256
 676 718 627 702 604 702 c 256
 579 702 545 725 545 741 c 256
 519 710 l 257
 529 689 563 662 601 662 c 256
 764 662 754 899 580 899 c 256
 444 899 349 753 423 594 c 256
 423 471 l 257
EndSplineSet
Refer: 15 2970 N 1 0 0 1 0 -0.273 2
EndChar

StartChar: tml_CIi.alt
Encoding: 13 -1 12
GlifName: tml_C_I_i.alt
Width: 731
VWidth: 0
GlyphClass: 2
Flags: W
LayerCount: 2
Back
Fore
SplineSet
92 295 m 257
 124 326 l 257
 67 543 115 737 248 803 c 256
 311 834 451 866 568 830 c 257
 623 815 666 764 653 716 c 256
 638 659 593 651 567 658 c 256
 543 664 514 700 518 715 c 256
 483 691 l 257
 488 665 514 630 557 618 c 256
 638 596 697 663 696 734 c 256
 695 788 661 844 578 869 c 257
 466 900 331 891 225 835 c 256
 66 751 22 521 92 295 c 257
EndSplineSet
Refer: 15 2970 N 1 0 0 1 0 0 2
EndChar

StartChar: tml_CU
Encoding: 14 -1 13
GlifName: tml_C_U_
Width: 706
VWidth: 0
GlyphClass: 2
Flags: W
HStem: -1 123 249 62 348 23<165 205 205 205> 470 122
VStem: -17 121 108 163 108 122 363 122 539 160 549 122
LayerCount: 2
Back
Fore
SplineSet
40 205 m 257
 81 205 l 257
 81 318 187 331 239 331 c 258
 462 331 l 257
 462 371 l 257
 246 371 l 258
 80 371 40 274 40 205 c 257
284 -1 m 257
 408 -1 446 95 446 191 c 258
 446 588 l 257
 406 588 l 257
 406 187 l 258
 406 98 366 39 284 39 c 257
 284 -1 l 257
231 -1 m 257
 231 39 l 257
 172 39 81 82 81 168 c 256
 81 168 40 168 40 168 c 256
 40 117 62 0 231 -1 c 257
165 348 m 257
 205 348 l 257
 206 586 l 257
 165 586 l 257
 165 348 l 257
165 555 m 257
 289 555 l 257
 289 595 l 257
 165 595 l 257
 165 555 l 257
343 555 m 257
 593 555 l 257
 593 595 l 257
 343 595 l 257
 343 555 l 257
593 0 m 257
 633 0 l 257
 633 350 l 257
 593 350 l 257
 593 0 l 257
501 331 m 257
 680 331 l 257
 680 371 l 257
 501 371 l 257
 501 331 l 257
EndSplineSet
PickledDataWithLists: "(dp1
S'com.fontlab.hintData'
p2
(dp3
S'vhints'
p4
(lp5
(dp6
S'position'
p7
I-17
sS'width'
p8
I121
sa(dp9
g7
I108
sg8
I163
sa(dp10
g7
I108
sg8
I122
sa(dp11
g7
I363
sg8
I122
sa(dp12
g7
I539
sg8
I160
sa(dp13
g7
I549
sg8
I122
sasS'hhints'
p14
(lp15
(dp16
g7
I-1
sg8
I123
sa(dp17
g7
I249
sg8
I62
sa(dp18
g7
I348
sg8
I23
sa(dp19
g7
I470
sg8
I122
sass."
EndChar

StartChar: tml_CUu
Encoding: 15 -1 14
GlifName: tml_C_U_u
Width: 1101
VWidth: 0
GlyphClass: 2
Flags: W
HStem: -208 40<233 549 604 905> -1 40<366.5 396 449 496.5> 175 40<885 901> 331 40<405 412 412 912> 331 10<812 852 812 912> 404 40<209.5 238> 555 40<331 454 331 454 508 820> 555 31<331 372 331 454>
VStem: 81 40<29 30 30 268 268 273> 206 40<128.5 245 198 229.5> 331 40<348 348 348 586> 589 40<142.5 588 191 588 191 588> 812 40<0 341 0 341> 1008 40<-108 64 -84 60>
LayerCount: 2
Back
Fore
SplineSet
549 -208 m 257
 549 -168 l 257
 230 -168 l 258
 160 -168 121 -90 121 29 c 258
 121 268 l 258
 121 370 181 404 238 404 c 256
 238 444 l 256
 171 444 81 402 81 273 c 258
 81 30 l 258
 81 -107 119 -208 233 -208 c 258
 549 -208 l 257
604 -208 m 257
 906 -208 l 258
 999 -208 1048 -142 1048 -84 c 258
 1048 64 l 258
 1048 182 946 209 885 215 c 257
 885 175 l 257
 917 175 1008 159 1008 60 c 258
 1008 -84 l 258
 1008 -132 956 -168 905 -168 c 258
 604 -168 l 257
 604 -208 l 257
206 198 m 256
 246 198 l 256
 246 292 330 331 405 331 c 258
 912 331 l 257
 912 371 l 257
 412 371 l 258
 240 371 206 261 206 198 c 256
449 -1 m 257
 586 -1 629 95 629 191 c 258
 629 588 l 257
 589 588 l 257
 589 187 l 258
 589 98 544 39 449 39 c 257
 449 -1 l 257
396 -1 m 257
 396 39 l 257
 337 39 256 56 247 166 c 256
 246 166 206 166 206 166 c 256
 206 91 247 0 396 -1 c 257
331 348 m 257
 371 348 l 257
 372 586 l 257
 331 586 l 257
 331 348 l 257
331 555 m 257
 454 555 l 257
 454 595 l 257
 331 595 l 257
 331 555 l 257
508 555 m 257
 820 555 l 257
 820 595 l 257
 508 595 l 257
 508 555 l 257
812 0 m 257
 852 0 l 257
 852 341 l 257
 812 341 l 257
 812 0 l 257
EndSplineSet
PickledDataWithLists: "(dp1
S'com.fontlab.hintData'
p2
(dp3
S'vhints'
p4
(lp5
(dp6
S'position'
p7
I81
sS'width'
p8
I40
sa(dp9
g7
I206
sg8
I40
sa(dp10
g7
I331
sg8
I40
sa(dp11
g7
I589
sg8
I40
sa(dp12
g7
I812
sg8
I40
sa(dp13
g7
I1008
sg8
I40
sasS'hhints'
p14
(lp15
(dp16
g7
I-208
sg8
I40
sa(dp17
g7
I-1
sg8
I40
sa(dp18
g7
I175
sg8
I40
sa(dp19
g7
I331
sg8
I40
sa(dp20
g7
I331
sg8
I10
sa(dp21
g7
I404
sg8
I40
sa(dp22
g7
I555
sg8
I40
sa(dp23
g7
I555
sg8
I31
sass."
EndChar

StartChar: tml_Ca
Encoding: 16 2970 15
GlifName: tml_C_a
Width: 668
VWidth: 0
GlyphClass: 2
Flags: W
HStem: -1 123 249 122 348 23<179.5 205 205 205> 470 125 470 118
VStem: 1 121 126 163 126 122 381 122
AnchorPoint: "tml_virama" 311 0 basechar 0
LayerCount: 2
Back
Fore
SplineSet
165 348 m 257
 205 348 l 257
 206 586 l 257
 165 586 l 257
 165 348 l 257
230 -1 m 257
 230 39 l 256
 154 39 82 88 82 158 c 256
 41 158 l 257
 41 109 72 0 230 -1 c 257
283 -1 m 257
 420 -1 463 95 463 191 c 258
 463 588 l 257
 423 588 l 257
 423 187 l 258
 423 98 378 39 283 39 c 257
 283 -1 l 257
342 555 m 257
 610 555 l 257
 610 595 l 257
 342 595 l 257
 342 555 l 257
165 555 m 257
 288 555 l 257
 288 595 l 257
 165 595 l 257
 165 555 l 257
40 204 m 257
 81 204 l 256
 81 293 147 331 239 331 c 258
 565 331 l 257
 565 371 l 257
 246 371 l 258
 113 371 40 306 40 204 c 257
EndSplineSet
PickledDataWithLists: "(dp1
S'com.fontlab.hintData'
p2
(dp3
S'vhints'
p4
(lp5
(dp6
S'position'
p7
I1
sS'width'
p8
I121
sa(dp9
g7
I126
sg8
I163
sa(dp10
g7
I126
sg8
I122
sa(dp11
g7
I381
sg8
I122
sasS'hhints'
p12
(lp13
(dp14
g7
I-1
sg8
I123
sa(dp15
g7
I249
sg8
I122
sa(dp16
g7
I348
sg8
I23
sa(dp17
g7
I470
sg8
I125
sa(dp18
g7
I470
sg8
I118
sass."
EndChar

StartChar: tml_Credit
Encoding: 17 3063 16
GlifName: tml_C_redit
Width: 1026
VWidth: 0
GlyphClass: 2
Flags: W
LayerCount: 2
Back
Fore
SplineSet
750 306 m 257
 818 306 830 235 831 197 c 257
 831 43 l 258
 831 33 799 32 795 31 c 257
 795 1 l 257
 927 1 l 257
 927 31 l 257
 861 31 l 257
 861 197 l 257
 860 259 835 336 750 336 c 257
 750 306 l 257
40 172 m 258
 40 88 104 0 192 0 c 256
 192 40 l 257
 142 40 79 91 79 181 c 256
 79 295 155 319 192 319 c 256
 192 359 l 257
 116 359 40 300 40 196 c 258
 40 172 l 258
247 0 m 257
 319 0 384 75 383 173 c 258
 383 196 l 258
 383 292 320 359 247 359 c 256
 247 319 l 257
 289 319 341 282 341 183 c 256
 341 88 291 40 247 40 c 257
 247 0 l 257
592 84 m 258
 592 51 625 0 672 0 c 256
 672 30 l 257
 658 30 622 43 622 100 c 256
 622 158 660 170 672 170 c 256
 672 200 l 257
 648 200 592 180 592 122 c 258
 592 84 l 258
703 0 m 257
 755 0 784 51 784 92 c 258
 784 110 l 258
 784 153 749 200 703 200 c 256
 703 170 l 257
 717 170 754 156 754 100 c 256
 754 41 718 30 703 30 c 257
 703 0 l 257
40 204 m 257
 80 306 l 256
 82 439 150 557 267 557 c 257
 267 597 l 257
 127 597 40 464 40 302 c 257
 40 204 l 257
592 125 m 257
 623 176 l 256
 624 285 688 306 721 306 c 257
 721 336 l 257
 617 336 592 240 592 169 c 257
 592 125 l 257
486 0 m 257
 526 0 l 257
 526 577 l 257
 486 577 l 257
 486 0 l 257
322 555 m 257
 627 555 l 257
 627 595 l 257
 322 595 l 257
 322 555 l 257
521 150 m 257
 622 150 l 257
 622 180 l 257
 521 180 l 257
 521 150 l 257
957 1 m 257
 986 1 l 257
 986 330 l 257
 957 330 l 257
 957 1 l 257
EndSplineSet
EndChar

StartChar: tml_Day
Encoding: 18 3059 17
GlifName: tml_D_ay
Width: 926
VWidth: 0
GlyphClass: 2
Flags: W
LayerCount: 2
Back
Fore
SplineSet
247 0 m 257
 319 0 384 75 383 173 c 258
 383 196 l 258
 383 292 320 359 247 359 c 256
 247 319 l 257
 289 319 341 282 341 183 c 256
 341 88 291 40 247 40 c 257
 247 0 l 257
40 172 m 258
 40 88 104 0 192 0 c 256
 192 40 l 257
 142 40 79 91 79 181 c 256
 79 295 155 319 192 319 c 256
 192 359 l 257
 116 359 40 300 40 196 c 258
 40 172 l 258
40 204 m 257
 80 306 l 256
 82 443 149 565 263 565 c 257
 263 605 l 257
 125 605 40 469 40 302 c 257
 40 204 l 257
314 565 m 257
 431 565 489 473 490 354 c 257
 490 76 l 258
 490 40 484 40 417 40 c 257
 417 0 l 257
 886 0 l 257
 886 40 l 257
 531 40 l 257
 531 355 l 257
 530 466 476 605 314 605 c 257
 314 565 l 257
EndSplineSet
EndChar

StartChar: tml_Debit
Encoding: 19 3062 18
GlifName: tml_D_ebit
Width: 589
VWidth: 0
GlyphClass: 2
Flags: W
LayerCount: 2
Back
Fore
SplineSet
216 -218 m 257
 216 -258 l 257
 336 -258 344 -159 344 -81 c 258
 344 18 l 256
 344 239 l 256
 304 239 l 257
 304 21 l 257
 304 -103 l 258
 304 -185 275 -218 216 -218 c 257
40 -150 m 258
 40 -156 l 258
 41 -238 114 -258 150 -258 c 258
 163 -258 l 257
 163 -218 l 257
 150 -218 l 258
 57 -218 56 -95 151 -95 c 258
 549 -95 l 257
 549 381 l 256
 509 381 l 256
 509 -56 l 257
 151 -56 l 258
 78 -56 40 -99 40 -150 c 258
49 146 m 258
 49 68 89 0 163 0 c 257
 163 40 l 257
 131 40 89 65 89 146 c 258
 89 595 l 257
 49 595 l 257
 49 146 l 258
217 0 m 257
 255 0 344 -15 344 162 c 258
 344 487 l 257
 304 487 l 257
 304 162 l 258
 304 45 259 40 217 40 c 257
 217 0 l 257
EndSplineSet
EndChar

StartChar: tml_E
Encoding: 20 2958 19
GlifName: tml_E_
Width: 656
VWidth: 0
GlyphClass: 2
Flags: W
HStem: 1 122 238 123 472 123 472 105
VStem: 2 171 2 131 2 124 280 123 447 123
LayerCount: 2
Back
Fore
SplineSet
40 172 m 258
 40 88 104 0 192 0 c 256
 192 40 l 257
 142 40 79 91 79 181 c 256
 79 295 155 319 192 319 c 256
 192 359 l 257
 116 359 40 300 40 196 c 258
 40 172 l 258
247 0 m 257
 319 0 384 75 383 173 c 258
 383 196 l 258
 383 292 320 359 247 359 c 256
 247 319 l 257
 289 319 341 282 341 183 c 256
 341 88 291 40 247 40 c 257
 247 0 l 257
40 204 m 257
 80 306 l 256
 82 439 150 557 267 557 c 257
 267 597 l 257
 127 597 40 464 40 302 c 257
 40 204 l 257
486 0 m 257
 526 0 l 257
 526 577 l 257
 486 577 l 257
 486 0 l 257
322 555 m 257
 627 555 l 257
 627 595 l 257
 322 595 l 257
 322 555 l 257
EndSplineSet
PickledDataWithLists: "(dp1
S'com.fontlab.hintData'
p2
(dp3
S'vhints'
p4
(lp5
(dp6
S'position'
p7
I2
sS'width'
p8
I171
sa(dp9
g7
I2
sg8
I131
sa(dp10
g7
I2
sg8
I124
sa(dp11
g7
I280
sg8
I123
sa(dp12
g7
I447
sg8
I123
sasS'hhints'
p13
(lp14
(dp15
g7
I1
sg8
I122
sa(dp16
g7
I238
sg8
I123
sa(dp17
g7
I472
sg8
I123
sa(dp18
g7
I472
sg8
I105
sass."
EndChar

StartChar: tml_Ee
Encoding: 21 2959 20
GlifName: tml_E_e
Width: 656
VWidth: 0
GlyphClass: 2
Flags: W
HStem: 1 122 238 123 472 105 472 123
VStem: 2 124 2 131 2 171 280 123 447 123 447 123
LayerCount: 2
Back
Fore
SplineSet
327 -176 m 257
 378 -176 l 257
 526 0 l 256
 526 577 l 257
 486 577 l 257
 486 15 l 257
 327 -176 l 257
EndSplineSet
Refer: 19 2958 N 1 0 0 1 0 0 2
PickledDataWithLists: "(dp1
S'com.fontlab.hintData'
p2
(dp3
S'vhints'
p4
(lp5
(dp6
S'position'
p7
I2
sS'width'
p8
I124
sa(dp9
g7
I2
sg8
I131
sa(dp10
g7
I2
sg8
I171
sa(dp11
g7
I280
sg8
I123
sa(dp12
g7
I447
sg8
I123
sa(dp13
g7
I447
sg8
I123
sasS'hhints'
p14
(lp15
(dp16
g7
I1
sg8
I122
sa(dp17
g7
I238
sg8
I123
sa(dp18
g7
I472
sg8
I105
sa(dp19
g7
I472
sg8
I123
sass."
EndChar

StartChar: tml_Four
Encoding: 24 3050 23
GlifName: tml_F_our
Width: 826
VWidth: 0
GlyphClass: 2
Flags: W
LayerCount: 2
Back
Fore
SplineSet
40 172 m 258
 40 128 57 0 230 -1 c 257
 230 39 l 257
 168 39 80 58 80 188 c 256
 80 313 184 331 239 331 c 258
 751 331 l 257
 751 371 l 257
 246 371 l 258
 72 371 40 259 40 196 c 258
 40 172 l 258
283 -1 m 257
 420 -1 463 95 463 191 c 258
 463 588 l 257
 423 588 l 257
 423 187 l 258
 423 98 378 39 283 39 c 257
 283 -1 l 257
165 348 m 257
 205 348 l 257
 206 586 l 257
 165 586 l 257
 165 348 l 257
165 555 m 257
 288 555 l 257
 288 595 l 257
 165 595 l 257
 165 555 l 257
342 555 m 257
 610 555 l 257
 610 595 l 257
 342 595 l 257
 342 555 l 257
741 331 m 257
 781 331 l 257
 782 487 l 257
 741 487 l 257
 741 331 l 257
EndSplineSet
EndChar

StartChar: tml_HI
Encoding: 25 -1 24
GlifName: tml_H_I_
Width: 1436
VWidth: 0
GlyphClass: 2
Flags: W
LayerCount: 2
Back
Fore
SplineSet
1312 765 m 257
 1312 725 l 257
 1398 725 1402 658 1402 596 c 258
 1402 2 l 257
 1442 2 l 257
 1442 599 l 258
 1442 701 1409 765 1312 765 c 257
1167 580 m 257
 1167 597 l 257
 1167 658 1178 725 1258 725 c 257
 1258 765 l 257
 1167 765 1127 705 1127 597 c 257
 1167 580 l 257
EndSplineSet
Refer: 28 3001 N 1 0 0 1 0 0 2
EndChar

StartChar: tml_HIi
Encoding: 26 -1 25
GlifName: tml_H_I_i
Width: 1417
VWidth: 0
GlyphClass: 2
Flags: W
LayerCount: 2
Back
Fore
SplineSet
1127 574 m 257
 1169 574 l 257
 1169 597 l 256
 1094 755 1192 863 1274 863 c 257
 1372 863 1380 796 1380 781 c 256
 1380 722 1331 706 1308 706 c 256
 1283 706 1249 729 1249 745 c 256
 1223 714 l 257
 1233 693 1267 666 1305 666 c 256
 1468 666 1458 903 1284 903 c 256
 1148 903 1053 757 1127 598 c 256
 1127 574 l 257
EndSplineSet
Refer: 28 3001 N 1 0 0 1 0 0 2
EndChar

StartChar: tml_HU
Encoding: 27 -1 26
GlifName: tml_H_U_
Width: 1653
VWidth: 0
GlyphClass: 2
Flags: W
LayerCount: 2
Back
Fore
SplineSet
1127 564 m 257
 1444 564 l 258
 1541 564 1573 533 1573 478 c 256
 1573 460 1554 406 1499 406 c 256
 1440 406 1423 459 1423 479 c 256
 1383 479 l 257
 1383 429 1425 366 1494 366 c 258
 1506 366 l 258
 1561 366 1613 420 1613 479 c 258
 1613 486 l 258
 1613 553 1563 604 1448 604 c 258
 1127 604 l 257
 1127 564 l 257
EndSplineSet
Refer: 28 3001 N 1 0 0 1 0 0 2
EndChar

StartChar: tml_HUu
Encoding: 28 -1 27
GlifName: tml_H_U_u
Width: 1801
VWidth: 0
GlyphClass: 2
Flags: W
LayerCount: 2
Back
Fore
SplineSet
1127 564 m 257
 1441 564 l 258
 1538 564 1570 533 1570 478 c 256
 1570 460 1551 406 1496 406 c 256
 1437 406 1420 459 1420 479 c 256
 1380 479 l 257
 1380 429 1422 366 1491 366 c 258
 1503 366 l 258
 1558 366 1610 420 1610 479 c 258
 1610 486 l 258
 1610 553 1560 604 1445 604 c 258
 1127 604 l 257
 1127 564 l 257
1377 604 m 256
 1417 604 l 257
 1417 706 1462 764 1569 764 c 256
 1679 764 1721 705 1721 648 c 258
 1721 324 l 258
 1721 242 1669 239 1623 239 c 258
 1564 239 l 256
 1564 199 l 256
 1623 199 l 258
 1724 199 1761 246 1761 324 c 258
 1761 648 l 258
 1761 753 1672 804 1569 804 c 256
 1454 804 1377 746 1377 604 c 256
EndSplineSet
Refer: 28 3001 N 1 0 0 1 0 0 2
EndChar

StartChar: tml_Ha
Encoding: 29 3001 28
GlifName: tml_H_a
Width: 1311
VWidth: 0
GlyphClass: 2
Flags: W
HStem: -155 122 0 123 237 123 474 122 481 123
VStem: 39 172 39 125 92 122 312 123 487 121 731 129 982 122 1236 122
AnchorPoint: "tml_virama" 971 0 basechar 0
LayerCount: 2
Back
Fore
SplineSet
1210 312 m 257
 1251 312 l 257
 1251 473 l 258
 1251 528 1225 604 1127 604 c 256
 1127 564 l 257
 1142 564 1209 558 1209 458 c 258
 1210 312 l 257
314 565 m 257
 431 565 489 473 490 354 c 257
 490 76 l 258
 490 40 484 40 417 40 c 257
 417 0 l 257
 656 0 l 257
 656 40 l 257
 531 40 l 257
 531 355 l 257
 530 466 476 605 314 605 c 257
 314 565 l 257
876 564 m 257
 918 564 955 542 955 456 c 258
 957 0 l 257
 997 0 l 257
 995 457 l 258
 995 542 1040 564 1076 564 c 257
 1076 604 l 257
 1037 604 1004 595 976 560 c 257
 952 592 922 604 876 604 c 257
 876 564 l 257
40 172 m 258
 40 88 104 0 192 0 c 256
 192 40 l 257
 142 40 79 91 79 181 c 256
 79 295 155 319 192 319 c 256
 192 359 l 257
 116 359 40 300 40 196 c 258
 40 172 l 258
247 0 m 257
 319 0 384 75 383 173 c 258
 383 196 l 258
 383 292 320 359 247 359 c 256
 247 319 l 257
 289 319 341 282 341 183 c 256
 341 88 291 40 247 40 c 257
 247 0 l 257
708 0 m 257
 749 0 l 257
 747 472 l 258
 747 501 760 564 822 564 c 257
 822 604 l 257
 739 604 708 527 708 477 c 258
 708 0 l 257
40 204 m 257
 80 306 l 256
 82 443 149 565 263 565 c 257
 263 605 l 257
 125 605 40 469 40 302 c 257
 40 204 l 257
1252 266 m 257
 1211 266 l 257
 1213 69 l 258
 1214 -15 1165 -85 1098 -85 c 256
 1014 -85 305 -85 218 -85 c 256
 138 -85 102 -136 102 -256 c 257
 142 -256 l 257
 142 -155 166 -125 212 -125 c 258
 1099 -125 l 258
 1200 -123 1252 -35 1252 63 c 258
 1252 266 l 257
EndSplineSet
PickledDataWithLists: "(dp1
S'com.fontlab.hintData'
p2
(dp3
S'vhints'
p4
(lp5
(dp6
S'position'
p7
I39
sS'width'
p8
I172
sa(dp9
g7
I39
sg8
I125
sa(dp10
g7
I92
sg8
I122
sa(dp11
g7
I312
sg8
I123
sa(dp12
g7
I487
sg8
I121
sa(dp13
g7
I731
sg8
I129
sa(dp14
g7
I982
sg8
I122
sa(dp15
g7
I1236
sg8
I122
sasS'hhints'
p16
(lp17
(dp18
g7
I-155
sg8
I122
sa(dp19
g7
I0
sg8
I123
sa(dp20
g7
I237
sg8
I123
sa(dp21
g7
I474
sg8
I122
sa(dp22
g7
I481
sg8
I123
sass."
EndChar

StartChar: tml_Hundred
Encoding: 30 3057 29
GlifName: tml_H_undred
Width: 765
VWidth: 0
GlyphClass: 2
Flags: W
LayerCount: 2
Back
Fore
SplineSet
582 0 m 257
 622 0 l 256
 622 570 l 256
 582 570 l 257
 582 0 l 257
459 566 m 257
 725 566 l 257
 725 606 l 257
 459 606 l 257
 459 566 l 257
40 0 m 257
 82 0 l 257
 79 478 l 258
 79 557 128 566 151 566 c 257
 151 606 l 257
 77 606 40 551 40 479 c 258
 40 0 l 257
206 566 m 257
 255 566 284 541 284 482 c 258
 287 0 l 257
 327 0 l 257
 325 483 l 258
 325 555 358 566 405 566 c 257
 405 606 l 257
 366 606 334 607 306 566 c 257
 277 597 252 606 206 606 c 257
 206 566 l 257
EndSplineSet
EndChar

StartChar: tml_I
Encoding: 31 2951 30
GlifName: tml_I_
Width: 1081
VWidth: 0
GlyphClass: 2
Flags: W
HStem: -141 119 35 121 131 11 136 122 141 90 279 122 424 121 583 123
VStem: 7 121 310 89 627 54 752 122 912 122 949 123
LayerCount: 2
Back
Fore
SplineSet
502 -178 m 257
 502 -138 l 257
 246 -138 l 258
 186 -138 85 -99 85 21 c 256
 85 145 217 140 241 140 c 258
 501 140 l 257
 501 182 l 257
 259 182 l 258
 129 182 45 137 45 21 c 256
 45 -98 136 -178 248 -178 c 258
 502 -178 l 257
558 -178 m 256
 677 -178 l 258
 777 -178 834 -86 834 16 c 257
 833 181 l 257
 770 181 619 181 556 181 c 257
 556 141 l 257
 586 141 763 141 793 141 c 257
 793 18 l 257
 793 -80 742 -137 678 -138 c 258
 558 -138 l 257
 558 -178 l 256
334 466 m 256
 374 466 l 257
 374 566 461 605 588 605 c 256
 702 605 793 533 793 346 c 258
 793 214 l 257
 833 214 l 257
 833 343 l 257
 833 535 743 645 588 645 c 256
 410 645 334 572 334 466 c 256
799 -169 m 257
 956 -188 1030 -66 1030 2 c 257
 1030 36 l 258
 1030 120 972 181 833 181 c 257
 833 141 l 257
 968 141 990 83 990 29 c 256
 990 -99 881 -138 818 -130 c 257
 799 -169 l 257
579 763 m 257
 579 803 l 256
 334 796 188 633 188 372 c 256
 188 309 207 212 223 142 c 257
 269 146 l 257
 252 210 232 306 232 369 c 256
 232 570 342 754 579 763 c 257
332 414 m 257
 332 414 343 239 522 239 c 256
 611 239 686 296 691 359 c 256
 659 393 l 256
 659 325 577 279 522 279 c 256
 434 279 370 339 370 414 c 256
 370 414 332 414 332 414 c 257
230 114 m 257
 263 -18 348 -122 455 -170 c 256
 495 -146 l 257
 377 -95 300 -2 277 114 c 257
 230 114 l 257
623 761 m 257
 882 761 961 528 961 244 c 257
 1001 244 l 257
 1001 582 903 801 623 801 c 257
 623 800 623 761 623 761 c 257
EndSplineSet
PickledDataWithLists: "(dp1
S'com.fontlab.hintData'
p2
(dp3
S'vhints'
p4
(lp5
(dp6
S'position'
p7
I7
sS'width'
p8
I121
sa(dp9
g7
I310
sg8
I89
sa(dp10
g7
I627
sg8
I54
sa(dp11
g7
I752
sg8
I122
sa(dp12
g7
I912
sg8
I122
sa(dp13
g7
I949
sg8
I123
sasS'hhints'
p14
(lp15
(dp16
g7
I-141
sg8
I119
sa(dp17
g7
I35
sg8
I121
sa(dp18
g7
I131
sg8
I11
sa(dp19
g7
I136
sg8
I122
sa(dp20
g7
I141
sg8
I90
sa(dp21
g7
I279
sg8
I122
sa(dp22
g7
I424
sg8
I121
sa(dp23
g7
I583
sg8
I123
sass."
EndChar

StartChar: tml_Ii
Encoding: 32 2952 31
GlifName: tml_I_i
Width: 585
VWidth: 0
GlyphClass: 2
Flags: W
VStem: -374618 385810 -374618 264432 -73339 270934 550893 270934
LayerCount: 2
Back
Fore
SplineSet
422 253 m 256
 422 228 443 207 468 207 c 256
 493 207 515 228 515 253 c 256
 515 278 493 300 468 300 c 256
 443 300 422 278 422 253 c 256
177 254 m 256
 177 228 198 207 224 207 c 256
 249 207 270 228 270 254 c 256
 270 279 249 300 224 300 c 256
 198 300 177 279 177 254 c 256
343 0 m 257
 383 0 l 257
 383 594 l 257
 343 594 l 257
 343 0 l 257
60 1 m 257
 100 1 l 257
 100 594 l 257
 60 593 l 257
 60 1 l 257
248 555 m 257
 525 555 l 257
 525 596 l 257
 248 596 l 257
 248 555 l 257
60 555 m 257
 194 555 l 257
 194 596 l 257
 60 596 l 257
 60 555 l 257
EndSplineSet
PickledDataWithLists: "(dp1
S'com.fontlab.hintData'
p2
(dp3
S'vhints'
p4
(lp5
(dp6
S'position'
p7
I-374618
sS'width'
p8
I385810
sa(dp9
g7
I-374618
sg8
I264432
sa(dp10
g7
I-73339
sg8
I270934
sa(dp11
g7
I550893
sg8
I270934
sass."
EndChar

StartChar: tml_JI
Encoding: 33 -1 32
GlifName: tml_J_I_
Width: 995
VWidth: 0
GlyphClass: 2
Flags: W
LayerCount: 2
Back
Fore
SplineSet
258 -180 m 257
 258 -140 l 257
 186 -140 105 -78 105 46 c 256
 105 172 182 196 227 196 c 258
 665 196 l 258
 745 196 837 218 839 387 c 258
 839 502 l 257
 839 617 780 683 647 683 c 257
 530 683 475 606 475 480 c 258
 475 371 l 257
 514 371 l 257
 514 464 l 258
 514 620 584 643 650 643 c 257
 723 643 799 618 799 502 c 257
 799 419 l 257
 795 291 785 236 651 236 c 258
 234 236 l 258
 110 236 65 138 65 64 c 258
 65 25 l 258
 65 -57 132 -180 258 -180 c 257
40 471 m 258
 40 397 98 307 178 307 c 257
 178 343 l 257
 156 343 81 380 81 481 c 256
 81 596 162 649 207 649 c 256
 259 649 335 612 335 499 c 256
 335 394 256 344 232 344 c 257
 232 307 l 257
 307 307 372 410 372 471 c 258
 372 499 l 258
 372 604 315 685 201 686 c 256
 151 686 41 581 41 496 c 258
 40 471 l 258
40 472 m 257
 78 483 l 257
 80 616 160 660 274 660 c 256
 434 660 475 537 475 481 c 258
 475 320 l 257
 514 320 l 257
 514 460 l 258
 514 592 443 696 273 696 c 257
 69 696 40 537 40 482 c 258
 40 472 l 257
319 -140 m 257
 319 -180 l 257
 426 -180 494 -135 501 -59 c 256
 512 65 501 100 560 100 c 257
 593 100 l 257
 593 140 l 257
 558 140 l 257
 471 140 468 82 462 -23 c 256
 456 -125 394 -140 319 -140 c 257
640 677 m 257
 680 677 l 256
 680 738 691 805 771 805 c 256
 771 805 l 256
 771 845 l 257
 771 845 l 256
 677 845 640 781 640 677 c 257
 640 677 l 257
548 -137 m 256
 548 -177 l 256
 703 -177 833 -151 833 -16 c 256
 833 97 734 140 647 140 c 257
 647 100 l 257
 679 99 791 90 793 -14 c 256
 795 -138 619 -137 548 -137 c 256
825 805 m 257
 911 805 915 738 915 676 c 258
 915 68 l 257
 955 68 l 257
 955 679 l 258
 955 781 922 845 825 845 c 257
 825 805 l 257
EndSplineSet
EndChar

StartChar: tml_JIi
Encoding: 34 -1 33
GlifName: tml_J_I_i
Width: 973
VWidth: 0
GlyphClass: 2
Flags: W
LayerCount: 2
Back
Fore
SplineSet
258 -180 m 257
 258 -140 l 257
 186 -140 105 -78 105 46 c 256
 105 172 182 196 227 196 c 258
 665 196 l 258
 745 196 837 218 839 387 c 258
 839 502 l 257
 839 617 780 683 647 683 c 257
 530 683 475 606 475 480 c 258
 475 371 l 257
 514 371 l 257
 514 464 l 258
 514 620 584 643 650 643 c 257
 723 643 799 618 799 502 c 257
 799 419 l 257
 795 291 785 236 651 236 c 258
 234 236 l 258
 110 236 65 138 65 64 c 258
 65 25 l 258
 65 -57 132 -180 258 -180 c 257
40 471 m 258
 40 397 98 307 178 307 c 257
 178 343 l 257
 156 343 81 380 81 481 c 256
 81 596 162 649 207 649 c 256
 259 649 335 612 335 499 c 256
 335 394 256 344 232 344 c 257
 232 307 l 257
 307 307 372 410 372 471 c 258
 372 499 l 258
 372 604 315 685 201 686 c 256
 151 686 41 581 41 496 c 258
 40 471 l 258
639 657 m 257
 680 657 l 257
 679 679 l 256
 604 837 704 945 786 945 c 257
 884 945 892 878 892 863 c 256
 892 804 843 788 820 788 c 256
 795 788 761 811 761 827 c 256
 735 796 l 257
 745 775 779 748 817 748 c 256
 980 748 970 985 796 985 c 256
 660 985 565 839 639 680 c 256
 639 657 l 257
40 472 m 257
 78 483 l 257
 80 616 160 660 274 660 c 256
 434 660 475 537 475 481 c 258
 475 320 l 257
 514 320 l 257
 514 460 l 258
 514 592 443 696 273 696 c 257
 69 696 40 537 40 482 c 258
 40 472 l 257
319 -140 m 257
 319 -180 l 257
 426 -180 494 -135 501 -59 c 256
 512 65 501 100 560 100 c 257
 593 100 l 257
 593 140 l 257
 558 140 l 257
 471 140 468 82 462 -23 c 256
 456 -125 394 -140 319 -140 c 257
548 -137 m 256
 548 -177 l 256
 703 -177 833 -151 833 -16 c 256
 833 97 734 140 647 140 c 257
 647 100 l 257
 679 99 791 90 793 -14 c 256
 795 -138 619 -137 548 -137 c 256
EndSplineSet
EndChar

StartChar: tml_JU
Encoding: 35 -1 34
GlifName: tml_J_U_
Width: 1201
VWidth: 0
GlyphClass: 2
Flags: W
LayerCount: 2
Back
Fore
SplineSet
675 644 m 257
 992 644 l 258
 1089 644 1121 613 1121 558 c 256
 1121 540 1102 486 1047 486 c 256
 988 486 971 539 971 559 c 256
 931 559 l 257
 931 509 973 446 1042 446 c 258
 1054 446 l 258
 1109 446 1161 500 1161 559 c 258
 1161 566 l 258
 1161 633 1111 684 996 684 c 258
 675 684 l 257
 675 644 l 257
EndSplineSet
Refer: 36 2972 N 1 0 0 1 -27 0 2
EndChar

StartChar: tml_JUu
Encoding: 36 -1 35
GlifName: tml_J_U_u
Width: 1334
VWidth: 0
GlyphClass: 2
Flags: W
LayerCount: 2
Back
Fore
SplineSet
1097 276 m 256
 1156 276 l 258
 1257 276 1294 323 1294 401 c 258
 1294 725 l 258
 1294 830 1205 881 1102 881 c 256
 987 881 910 823 910 681 c 256
 950 681 l 257
 950 783 995 841 1102 841 c 256
 1212 841 1254 782 1254 725 c 258
 1254 401 l 258
 1254 319 1202 316 1156 316 c 258
 1097 316 l 256
 1097 276 l 256
1024 446 m 258
 1036 446 l 258
 1091 446 1143 500 1143 559 c 258
 1143 566 l 258
 1143 633 1093 684 978 684 c 258
 675 684 l 257
 675 644 l 257
 974 644 l 258
 1071 644 1103 613 1103 558 c 256
 1103 540 1084 486 1029 486 c 256
 970 486 953 539 953 559 c 256
 913 559 l 257
 913 509 955 446 1024 446 c 258
EndSplineSet
Refer: 36 2972 N 1 0 0 1 -27 0 2
EndChar

StartChar: tml_Ja
Encoding: 37 2972 36
GlifName: tml_J_a
Width: 886
VWidth: 0
GlyphClass: 2
Flags: W
HStem: -180 40<229 265 229 265 326 363.5> 100 40<567 600 521.5 600> 196 40<234 241 241 658> 307 36<174 185 174 185> 644 40<628 628> 649 47<191.5 240> 660 26<183 361>
VStem: 47 41<434 471 472 482 472 472> 72 40<-16 25 25 64> 342 37<471 499 499 551.5> 482 39<320 460 460 464 464 481 320 460 371 460 460 464 464 480 371 371> 806 40<419 502 419 419>
AnchorPoint: "tml_virama" 511 0 basechar 0
LayerCount: 2
Back
Fore
SplineSet
265 -180 m 257
 265 -140 l 257
 193 -140 112 -78 112 46 c 256
 112 172 189 196 234 196 c 258
 672 196 l 258
 752 196 844 218 846 387 c 258
 846 502 l 257
 846 617 768 678 682 684 c 257
 682 644 l 257
 719 639 806 618 806 502 c 257
 806 419 l 257
 802 291 792 236 658 236 c 258
 241 236 l 258
 117 236 72 138 72 64 c 258
 72 25 l 258
 72 -57 139 -180 265 -180 c 257
47 471 m 258
 47 397 105 307 185 307 c 257
 185 343 l 257
 163 343 88 380 88 481 c 256
 88 596 169 649 214 649 c 256
 266 649 342 612 342 499 c 256
 342 394 263 344 239 344 c 257
 239 307 l 257
 314 307 379 410 379 471 c 258
 379 499 l 258
 379 604 322 685 208 686 c 256
 158 686 48 581 48 496 c 258
 47 471 l 258
47 472 m 257
 85 483 l 257
 87 616 167 660 281 660 c 256
 441 660 482 537 482 481 c 258
 482 320 l 257
 521 320 l 257
 521 460 l 258
 521 592 450 696 280 696 c 257
 76 696 47 537 47 482 c 258
 47 472 l 257
326 -140 m 257
 326 -180 l 257
 433 -180 501 -135 508 -59 c 256
 519 65 508 100 567 100 c 257
 600 100 l 257
 600 140 l 257
 565 140 l 257
 478 140 475 82 469 -23 c 256
 463 -125 401 -140 326 -140 c 257
482 371 m 257
 521 371 l 257
 521 464 l 258
 521 620 593 637 628 644 c 257
 628 684 l 257
 540 676 482 606 482 480 c 258
 482 371 l 257
555 -137 m 256
 555 -177 l 256
 710 -177 840 -151 840 -16 c 256
 840 97 741 140 654 140 c 257
 654 100 l 257
 686 99 798 90 800 -14 c 256
 802 -138 626 -137 555 -137 c 256
EndSplineSet
PickledDataWithLists: "(dp1
S'com.fontlab.hintData'
p2
(dp3
S'vhints'
p4
(lp5
(dp6
S'position'
p7
I47
sS'width'
p8
I41
sa(dp9
g7
I72
sg8
I40
sa(dp10
g7
I342
sg8
I37
sa(dp11
g7
I482
sg8
I39
sa(dp12
g7
I806
sg8
I40
sasS'hhints'
p13
(lp14
(dp15
g7
I-180
sg8
I40
sa(dp16
g7
I100
sg8
I40
sa(dp17
g7
I196
sg8
I40
sa(dp18
g7
I307
sg8
I36
sa(dp19
g7
I644
sg8
I40
sa(dp20
g7
I649
sg8
I47
sa(dp21
g7
I660
sg8
I26
sass."
EndChar

StartChar: tml_KI
Encoding: 38 -1 37
GlifName: tml_K_I_
Width: 873
VWidth: 0
GlyphClass: 2
Flags: W
LayerCount: 2
Back
Fore
SplineSet
394 588 m 257
 434 588 l 256
 434 649 439 727 566 727 c 256
 566 727 l 256
 566 767 l 257
 566 767 l 256
 432 767 394 692 394 588 c 257
 394 588 l 257
621 727 m 257
 757 727 765 652 765 587 c 258
 765 -2 l 257
 805 -2 l 257
 805 590 l 258
 805 691 766 767 621 767 c 257
 621 727 l 257
EndSplineSet
Refer: 48 2965 N 1 0 0 1 -48 -3 2
EndChar

StartChar: tml_KI.alt
Encoding: 39 -1 38
GlifName: tml_K_I_.alt
Width: 916
VWidth: 0
GlyphClass: 2
Flags: W
LayerCount: 2
Back
Fore
SplineSet
409 809 m 257
 154 809 -33 602 68 304 c 257
 101 338 l 257
 15 641 240 771 409 770 c 257
 409 770 l 256
 409 809 l 257
 409 809 l 257
463 770 m 257
 565 770 836 736 836 426 c 258
 836 68 l 257
 877 68 l 257
 877 429 l 258
 876 709 663 809 463 809 c 257
 463 770 l 257
EndSplineSet
Refer: 48 2965 N 1 0 0 1 -43.406 0 2
EndChar

StartChar: tml_KIi
Encoding: 40 -1 39
GlifName: tml_K_I_i
Width: 762
VWidth: 0
GlyphClass: 2
Flags: W
LayerCount: 2
Back
Fore
SplineSet
426 471 m 257
 466 471 l 257
 466 593 l 256
 391 751 491 859 573 859 c 257
 671 859 679 792 679 777 c 256
 679 718 630 702 607 702 c 256
 582 702 548 725 548 741 c 256
 522 710 l 257
 532 689 566 662 604 662 c 256
 767 662 757 899 583 899 c 256
 447 899 352 753 426 594 c 256
 426 471 l 257
EndSplineSet
Refer: 48 2965 N 1 0 0 1 -15 0 2
EndChar

StartChar: tml_KIi.alt
Encoding: 41 -1 40
GlifName: tml_K_I_i.alt
Width: 739
VWidth: 0
GlyphClass: 2
Flags: W
LayerCount: 2
Back
Fore
SplineSet
72 315 m 257
 104 346 l 257
 47 563 95 757 228 823 c 256
 291 854 431 886 548 850 c 257
 603 835 646 784 633 736 c 256
 618 679 573 671 547 678 c 256
 523 684 494 720 498 735 c 256
 463 711 l 257
 468 685 494 650 537 638 c 256
 618 616 677 683 676 754 c 256
 675 808 641 864 558 889 c 257
 446 920 311 911 205 855 c 256
 46 771 2 541 72 315 c 257
EndSplineSet
Refer: 48 2965 N 1 0 0 1 -46.742 0 2
EndChar

StartChar: tml_KSsI
Encoding: 42 -1 41
GlifName: tml_K_S_sI_
Width: 1844
VWidth: 0
GlyphClass: 2
Flags: W
LayerCount: 2
Back
Fore
SplineSet
1341 158 m 257
 1341 197 l 257
 1305 197 1239 201 1239 317 c 258
 1239 435 l 258
 1239 561 1312 567 1359 567 c 257
 1362 567 1365 567 1368 567 c 257
 1435 567 1494 557 1494 413 c 258
 1494 123 l 257
 1534 123 l 257
 1534 413 l 258
 1534 561 1486 607 1368 607 c 257
 1365 607 1363 607 1360 607 c 257
 1254 605 1199 567 1199 433 c 258
 1199 334 l 258
 1199 191 1259 158 1341 158 c 257
852 488 m 257
 980 488 1027 416 1028 286 c 257
 1028 76 l 258
 1028 40 1022 40 955 40 c 257
 955 0 l 257
 1340 0 l 257
 1340 40 l 257
 1069 40 l 257
 1069 287 l 257
 1068 428 1014 528 852 528 c 257
 852 488 l 257
40 161 m 258
 40 117 57 -5 230 -6 c 257
 230 34 l 257
 168 34 80 47 80 177 c 256
 80 286 184 299 239 299 c 258
 616 299 l 257
 616 339 l 257
 246 339 l 258
 79 339 40 250 40 185 c 258
 40 161 l 258
578 172 m 258
 578 88 642 0 730 0 c 256
 730 40 l 257
 680 40 617 91 617 181 c 256
 617 295 693 319 730 319 c 256
 730 359 l 257
 654 359 578 300 578 196 c 258
 578 172 l 258
785 0 m 257
 857 0 922 75 921 173 c 258
 921 196 l 258
 921 292 858 359 785 359 c 256
 785 319 l 257
 827 319 879 282 879 183 c 256
 879 88 829 40 785 40 c 257
 785 0 l 257
1350 600 m 257
 1390 600 l 256
 1390 661 1411 739 1542 739 c 256
 1542 739 l 256
 1542 779 l 257
 1542 779 l 256
 1402 779 1350 704 1350 600 c 257
 1350 600 l 257
283 -6 m 257
 420 -6 463 90 463 186 c 258
 463 663 l 257
 423 663 l 257
 423 182 l 258
 423 93 378 34 283 34 c 257
 283 -6 l 257
1597 739 m 257
 1734 739 1764 664 1764 599 c 258
 1764 0 l 257
 1804 0 l 257
 1804 602 l 258
 1804 703 1742 779 1597 779 c 257
 1597 739 l 257
578 204 m 257
 618 306 l 256
 620 404 687 488 801 488 c 257
 801 528 l 257
 663 528 578 426 578 302 c 257
 578 204 l 257
165 316 m 257
 205 316 l 257
 206 661 l 257
 165 661 l 257
 165 316 l 257
165 630 m 257
 288 630 l 257
 288 670 l 257
 165 670 l 257
 165 630 l 257
342 630 m 257
 610 630 l 257
 610 670 l 257
 342 670 l 257
 342 630 l 257
1494 83 m 257
 1494 -178 l 257
 1534 -178 l 257
 1534 83 l 257
 1494 83 l 257
1394 1 m 257
 1670 0 l 257
 1670 41 l 257
 1394 41 l 257
 1394 1 l 257
1394 158 m 257
 1670 158 l 257
 1670 198 l 256
 1394 198 l 257
 1394 158 l 257
1630 0 m 257
 1670 0 l 257
 1670 198 l 257
 1630 198 l 257
 1630 0 l 257
EndSplineSet
EndChar

StartChar: tml_KSsIi
Encoding: 43 -1 42
GlifName: tml_K_S_sI_i
Width: 1710
VWidth: 0
GlyphClass: 2
Flags: W
LayerCount: 2
Back
Fore
SplineSet
1341 158 m 257
 1341 197 l 257
 1305 197 1239 201 1239 317 c 258
 1239 435 l 258
 1239 570 1322 567 1368 567 c 257
 1370 567 1373 567 1375 567 c 257
 1439 566 1494 552 1494 413 c 258
 1494 123 l 257
 1534 123 l 257
 1534 413 l 258
 1534 559 1487 606 1373 607 c 257
 1371 607 1370 607 1368 607 c 257
 1256 607 1199 570 1199 433 c 258
 1199 334 l 258
 1199 191 1259 158 1341 158 c 257
1353 579 m 257
 1395 579 l 257
 1395 602 l 256
 1320 760 1418 868 1500 868 c 257
 1598 868 1606 801 1606 786 c 256
 1606 727 1557 711 1534 711 c 256
 1509 711 1475 734 1475 750 c 256
 1449 719 l 257
 1459 698 1493 671 1531 671 c 256
 1694 671 1684 908 1510 908 c 256
 1374 908 1279 762 1353 603 c 256
 1353 579 l 257
852 488 m 257
 980 488 1027 416 1028 286 c 257
 1028 76 l 258
 1028 40 1022 40 955 40 c 257
 955 0 l 257
 1340 0 l 257
 1340 40 l 257
 1069 40 l 257
 1069 287 l 257
 1068 428 1014 528 852 528 c 257
 852 488 l 257
40 161 m 258
 40 117 57 -5 230 -6 c 257
 230 34 l 257
 168 34 80 47 80 177 c 256
 80 286 184 299 239 299 c 258
 616 299 l 257
 616 339 l 257
 246 339 l 258
 79 339 40 250 40 185 c 258
 40 161 l 258
578 172 m 258
 578 88 642 0 730 0 c 256
 730 40 l 257
 680 40 617 91 617 181 c 256
 617 295 693 319 730 319 c 256
 730 359 l 257
 654 359 578 300 578 196 c 258
 578 172 l 258
785 0 m 257
 857 0 922 75 921 173 c 258
 921 196 l 258
 921 292 858 359 785 359 c 256
 785 319 l 257
 827 319 879 282 879 183 c 256
 879 88 829 40 785 40 c 257
 785 0 l 257
283 -6 m 257
 420 -6 463 90 463 186 c 258
 463 663 l 257
 423 663 l 257
 423 182 l 258
 423 93 378 34 283 34 c 257
 283 -6 l 257
578 204 m 257
 618 306 l 256
 620 404 687 488 801 488 c 257
 801 528 l 257
 663 528 578 426 578 302 c 257
 578 204 l 257
165 316 m 257
 205 316 l 257
 206 661 l 257
 165 661 l 257
 165 316 l 257
165 630 m 257
 288 630 l 257
 288 670 l 257
 165 670 l 257
 165 630 l 257
342 630 m 257
 610 630 l 257
 610 670 l 257
 342 670 l 257
 342 630 l 257
1494 83 m 257
 1494 -178 l 257
 1534 -178 l 257
 1534 83 l 257
 1494 83 l 257
1394 1 m 257
 1670 0 l 257
 1670 41 l 257
 1394 41 l 257
 1394 1 l 257
1394 158 m 257
 1670 158 l 257
 1670 198 l 256
 1394 198 l 257
 1394 158 l 257
1630 0 m 257
 1670 0 l 257
 1670 198 l 257
 1630 198 l 257
 1630 0 l 257
EndSplineSet
EndChar

StartChar: tml_KSsU
Encoding: 44 -1 43
GlifName: tml_K_S_sU_
Width: 1920
VWidth: 0
GlyphClass: 2
Flags: W
LayerCount: 2
Back
Fore
SplineSet
1394 567 m 257
 1711 567 l 258
 1808 567 1840 536 1840 481 c 256
 1840 463 1821 409 1766 409 c 256
 1707 409 1690 462 1690 482 c 256
 1650 482 l 257
 1650 432 1692 369 1761 369 c 258
 1773 369 l 258
 1828 369 1880 423 1880 482 c 258
 1880 489 l 258
 1880 556 1830 607 1715 607 c 258
 1394 607 l 257
 1394 567 l 257
852 488 m 257
 980 488 1027 416 1028 286 c 257
 1028 76 l 258
 1028 40 1022 40 955 40 c 257
 955 0 l 257
 1340 0 l 257
 1340 40 l 257
 1069 40 l 257
 1069 287 l 257
 1068 428 1014 528 852 528 c 257
 852 488 l 257
40 161 m 258
 40 117 57 -5 230 -6 c 257
 230 34 l 257
 168 34 80 47 80 177 c 256
 80 286 184 299 239 299 c 258
 616 299 l 257
 616 339 l 257
 246 339 l 258
 79 339 40 250 40 185 c 258
 40 161 l 258
1199 334 m 258
 1199 191 1259 158 1341 158 c 257
 1341 197 l 257
 1305 197 1239 201 1239 317 c 258
 1239 435 l 258
 1239 570 1308 567 1341 567 c 257
 1341 607 l 257
 1259 607 1199 570 1199 433 c 258
 1199 334 l 258
578 172 m 258
 578 88 642 0 730 0 c 256
 730 40 l 257
 680 40 617 91 617 181 c 256
 617 295 693 319 730 319 c 256
 730 359 l 257
 654 359 578 300 578 196 c 258
 578 172 l 258
785 0 m 257
 857 0 922 75 921 173 c 258
 921 196 l 258
 921 292 858 359 785 359 c 256
 785 319 l 257
 827 319 879 282 879 183 c 256
 879 88 829 40 785 40 c 257
 785 0 l 257
283 -6 m 257
 420 -6 463 90 463 186 c 258
 463 663 l 257
 423 663 l 257
 423 182 l 258
 423 93 378 34 283 34 c 257
 283 -6 l 257
1394 567 m 257
 1434 567 1494 557 1494 413 c 258
 1494 123 l 257
 1534 123 l 257
 1534 413 l 258
 1534 561 1474 607 1394 607 c 257
 1394 567 l 257
578 204 m 257
 618 306 l 256
 620 404 687 488 801 488 c 257
 801 528 l 257
 663 528 578 426 578 302 c 257
 578 204 l 257
165 316 m 257
 205 316 l 257
 206 661 l 257
 165 661 l 257
 165 316 l 257
165 630 m 257
 288 630 l 257
 288 670 l 257
 165 670 l 257
 165 630 l 257
342 630 m 257
 610 630 l 257
 610 670 l 257
 342 670 l 257
 342 630 l 257
1494 83 m 257
 1494 -178 l 257
 1534 -178 l 257
 1534 83 l 257
 1494 83 l 257
1394 1 m 257
 1670 0 l 257
 1670 41 l 257
 1394 41 l 257
 1394 1 l 257
1394 158 m 257
 1670 158 l 257
 1670 198 l 256
 1394 198 l 257
 1394 158 l 257
1630 0 m 257
 1670 0 l 257
 1670 198 l 257
 1630 198 l 257
 1630 0 l 257
EndSplineSet
EndChar

StartChar: tml_KSsUu
Encoding: 45 -1 44
GlifName: tml_K_S_sU_u
Width: 2068
VWidth: 0
GlyphClass: 2
Flags: W
LayerCount: 2
Back
Fore
SplineSet
1394 568 m 257
 1708 568 l 258
 1805 568 1837 537 1837 482 c 256
 1837 464 1818 410 1763 410 c 256
 1704 410 1687 463 1687 483 c 256
 1647 483 l 257
 1647 433 1689 370 1758 370 c 258
 1770 370 l 258
 1825 370 1877 424 1877 483 c 258
 1877 490 l 258
 1877 557 1827 608 1712 608 c 258
 1394 608 l 257
 1394 568 l 257
1644 605 m 256
 1684 605 l 257
 1684 707 1729 765 1836 765 c 256
 1946 765 1988 706 1988 649 c 258
 1988 325 l 258
 1988 243 1936 240 1890 240 c 258
 1831 240 l 256
 1831 200 l 256
 1890 200 l 258
 1991 200 2028 247 2028 325 c 258
 2028 649 l 258
 2028 754 1939 805 1836 805 c 256
 1721 805 1644 747 1644 605 c 256
852 489 m 257
 980 489 1027 417 1028 287 c 257
 1028 77 l 258
 1028 41 1022 41 955 41 c 257
 955 1 l 257
 1340 1 l 257
 1340 41 l 257
 1069 41 l 257
 1069 288 l 257
 1068 429 1014 529 852 529 c 257
 852 489 l 257
40 162 m 258
 40 118 57 -4 230 -5 c 257
 230 35 l 257
 168 35 80 48 80 178 c 256
 80 287 184 300 239 300 c 258
 616 300 l 257
 616 340 l 257
 246 340 l 258
 79 340 40 251 40 186 c 258
 40 162 l 258
1199 335 m 258
 1199 192 1259 159 1341 159 c 257
 1341 198 l 257
 1305 198 1239 202 1239 318 c 258
 1239 436 l 258
 1239 571 1308 568 1341 568 c 257
 1341 608 l 257
 1259 608 1199 571 1199 434 c 258
 1199 335 l 258
578 173 m 258
 578 89 642 1 730 1 c 256
 730 41 l 257
 680 41 617 92 617 182 c 256
 617 296 693 320 730 320 c 256
 730 360 l 257
 654 360 578 301 578 197 c 258
 578 173 l 258
785 1 m 257
 857 1 922 76 921 174 c 258
 921 197 l 258
 921 293 858 360 785 360 c 256
 785 320 l 257
 827 320 879 283 879 184 c 256
 879 89 829 41 785 41 c 257
 785 1 l 257
283 -5 m 257
 420 -5 463 91 463 187 c 258
 463 664 l 257
 423 664 l 257
 423 183 l 258
 423 94 378 35 283 35 c 257
 283 -5 l 257
1394 568 m 257
 1434 568 1494 558 1494 414 c 258
 1494 124 l 257
 1534 124 l 257
 1534 414 l 258
 1534 562 1474 608 1394 608 c 257
 1394 568 l 257
578 205 m 257
 618 307 l 256
 620 405 687 489 801 489 c 257
 801 529 l 257
 663 529 578 427 578 303 c 257
 578 205 l 257
165 317 m 257
 205 317 l 257
 206 662 l 257
 165 662 l 257
 165 317 l 257
165 631 m 257
 288 631 l 257
 288 671 l 257
 165 671 l 257
 165 631 l 257
342 631 m 257
 610 631 l 257
 610 671 l 257
 342 671 l 257
 342 631 l 257
1494 84 m 257
 1494 -177 l 257
 1534 -177 l 257
 1534 84 l 257
 1494 84 l 257
1394 2 m 257
 1670 1 l 257
 1670 42 l 257
 1394 42 l 257
 1394 2 l 257
1394 159 m 257
 1670 159 l 257
 1670 199 l 256
 1394 199 l 257
 1394 159 l 257
1630 1 m 257
 1670 1 l 257
 1670 199 l 257
 1630 199 l 257
 1630 1 l 257
EndSplineSet
EndChar

StartChar: tml_KSsa
Encoding: 46 -1 45
GlifName: tml_K_S_sa
Width: 1710
VWidth: 0
GlyphClass: 2
Flags: W
AnchorPoint: "tml_virama" 1131 0 basechar 0
LayerCount: 2
Back
Fore
SplineSet
852 488 m 257
 980 488 1027 416 1028 286 c 257
 1028 76 l 258
 1028 40 1022 40 955 40 c 257
 955 0 l 257
 1340 0 l 257
 1340 40 l 257
 1069 40 l 257
 1069 287 l 257
 1068 428 1014 528 852 528 c 257
 852 488 l 257
40 161 m 258
 40 117 57 -5 230 -6 c 257
 230 34 l 257
 168 34 80 47 80 177 c 256
 80 286 184 299 239 299 c 258
 616 299 l 257
 616 339 l 257
 246 339 l 258
 79 339 40 250 40 185 c 258
 40 161 l 258
1199 334 m 258
 1199 191 1259 158 1341 158 c 257
 1341 197 l 257
 1305 197 1239 201 1239 317 c 258
 1239 435 l 258
 1239 570 1308 567 1341 567 c 257
 1341 607 l 257
 1259 607 1199 570 1199 433 c 258
 1199 334 l 258
578 172 m 258
 578 88 642 0 730 0 c 256
 730 40 l 257
 680 40 617 91 617 181 c 256
 617 295 693 319 730 319 c 256
 730 359 l 257
 654 359 578 300 578 196 c 258
 578 172 l 258
785 0 m 257
 857 0 922 75 921 173 c 258
 921 196 l 258
 921 292 858 359 785 359 c 256
 785 319 l 257
 827 319 879 282 879 183 c 256
 879 88 829 40 785 40 c 257
 785 0 l 257
283 -6 m 257
 420 -6 463 90 463 186 c 258
 463 663 l 257
 423 663 l 257
 423 182 l 258
 423 93 378 34 283 34 c 257
 283 -6 l 257
1394 567 m 257
 1434 567 1494 557 1494 413 c 258
 1494 123 l 257
 1534 123 l 257
 1534 413 l 258
 1534 561 1474 607 1394 607 c 257
 1394 567 l 257
578 204 m 257
 618 306 l 256
 620 404 687 488 801 488 c 257
 801 528 l 257
 663 528 578 426 578 302 c 257
 578 204 l 257
165 316 m 257
 205 316 l 257
 206 661 l 257
 165 661 l 257
 165 316 l 257
165 630 m 257
 288 630 l 257
 288 670 l 257
 165 670 l 257
 165 630 l 257
342 630 m 257
 610 630 l 257
 610 670 l 257
 342 670 l 257
 342 630 l 257
1494 83 m 257
 1494 -178 l 257
 1534 -178 l 257
 1534 83 l 257
 1494 83 l 257
1394 1 m 257
 1670 0 l 257
 1670 41 l 257
 1394 41 l 257
 1394 1 l 257
1394 158 m 257
 1670 158 l 257
 1670 198 l 256
 1394 198 l 257
 1394 158 l 257
1630 0 m 257
 1670 0 l 257
 1670 198 l 257
 1630 198 l 257
 1630 0 l 257
EndSplineSet
EndChar

StartChar: tml_KU
Encoding: 47 -1 46
GlifName: tml_K_U_
Width: 881
VWidth: 0
GlyphClass: 2
Flags: W
LayerCount: 2
Back
Fore
SplineSet
239 160 m 256
 198 160 l 256
 198 124 216 0 388 -1 c 257
 388 39 l 257
 330 39 239 74 239 160 c 256
238 192 m 256
 240 313 343 330 397 330 c 258
 619 330 l 257
 619 370 l 257
 404 370 l 258
 230 370 198 259 198 196 c 258
 198 192 l 257
 238 192 l 256
40 -77 m 258
 40 -155 108 -200 156 -200 c 258
 388 -200 l 257
 388 -160 l 257
 172 -160 l 258
 109 -160 80 -121 80 -53 c 258
 80 309 l 258
 80 339 74 418 199 418 c 256
 199 458 l 256
 127 458 40 437 40 314 c 258
 40 -77 l 258
441 -160 m 257
 441 -200 l 257
 693 -200 l 258
 789 -200 841 -138 841 -63 c 258
 841 219 l 258
 841 331 739 364 677 370 c 257
 677 330 l 257
 699 329 802 312 802 217 c 258
 802 -59 l 258
 802 -137 738 -160 692 -160 c 258
 441 -160 l 257
441 -1 m 257
 578 -1 621 95 621 191 c 258
 621 588 l 257
 581 588 l 257
 581 187 l 258
 581 98 536 39 441 39 c 257
 441 -1 l 257
323 347 m 257
 363 347 l 257
 364 586 l 257
 323 586 l 257
 323 347 l 257
323 555 m 257
 446 555 l 257
 446 595 l 257
 323 595 l 257
 323 555 l 257
500 555 m 257
 792 555 l 257
 792 595 l 257
 500 595 l 257
 500 555 l 257
EndSplineSet
EndChar

StartChar: tml_KUu
Encoding: 48 -1 47
GlifName: tml_K_U_u
Width: 1444
VWidth: 0
GlyphClass: 2
Flags: W
HStem: -1 40<196 227 280 327> 7 40<729 795 729 798> 132 1 329 40<504 741 741 745 504 791.5> 555 40<162 285 162 285 339 611> 555 33<419 459 419 611>
VStem: 37 40<150 172 172 196> 162 40<348 348 348 586> 419 40<142.5 588 191 588 191 588> 637 40<395 428 395 450> 648 40 862 40<129 233.5 112.5 239> 979 40<108 111 111 399>
LayerCount: 2
Back
Fore
SplineSet
504 329 m 257
 741 329 l 258
 842 329 862 306 862 172 c 256
 862 86 824 47 766 47 c 256
 692 47 673 165 673 285 c 256
 637 285 l 257
 637 73 692 7 762 7 c 256
 834 7 902 52 902 173 c 256
 902 294 886 369 745 369 c 258
 504 369 l 257
 504 329 l 257
1099 -1 m 257
 1099 40 l 256
 1034 42 1019 49 1019 108 c 258
 1019 399 l 258
 1019 504 971 596 825 596 c 256
 693 596 637 505 637 395 c 256
 677 395 l 257
 677 461 701 556 825 556 c 256
 962 556 979 461 979 399 c 258
 979 111 l 258
 979 33 1006 -1 1099 -1 c 257
227 39 m 257
 165 39 77 58 77 188 c 256
 77 313 181 331 236 331 c 258
 468 331 l 257
 468 371 l 257
 243 371 l 258
 69 371 37 259 37 196 c 258
 37 172 l 258
 37 128 54 0 227 -1 c 257
 227 39 l 257
280 39 m 257
 280 -1 l 257
 416 -1 459 95 459 191 c 258
 459 588 l 257
 419 588 l 257
 419 187 l 258
 419 98 374 39 280 39 c 257
162 348 m 257
 202 348 l 257
 203 586 l 257
 162 586 l 257
 162 348 l 257
162 555 m 257
 285 555 l 257
 285 595 l 257
 162 595 l 257
 162 555 l 257
339 555 m 257
 611 555 l 257
 611 595 l 257
 339 595 l 257
 339 555 l 257
1134 1 m 257
 1420 1 l 257
 1420 40 l 257
 1134 40 l 257
 1134 1 l 257
EndSplineSet
PickledDataWithLists: "(dp1
S'com.fontlab.hintData'
p2
(dp3
S'vhints'
p4
(lp5
(dp6
S'position'
p7
I37
sS'width'
p8
I40
sa(dp9
g7
I162
sg8
I40
sa(dp10
g7
I419
sg8
I40
sa(dp11
g7
I637
sg8
I40
sa(dp12
g7
I648
sg8
I40
sa(dp13
g7
I862
sg8
I40
sa(dp14
g7
I979
sg8
I40
sasS'hhints'
p15
(lp16
(dp17
g7
I-1
sg8
I40
sa(dp18
g7
I7
sg8
I40
sa(dp19
g7
I132
sg8
I1
sa(dp20
g7
I329
sg8
I40
sa(dp21
g7
I555
sg8
I40
sa(dp22
g7
I555
sg8
I33
sass."
EndChar

StartChar: tml_Ka
Encoding: 49 2965 48
GlifName: tml_K_a
Width: 778
VWidth: 0
GlyphClass: 2
Flags: W
HStem: -11 123 2 124 249 122 348 23<191.5 212 212 225 225 225> 470 125 470 71
VStem: 20 121 145 162 145 122 400 122 636 122
AnchorPoint: "tml_virama" 392 1 basechar 0
LayerCount: 2
Back
Fore
SplineSet
185 348 m 257
 225 348 l 257
 226 561 l 257
 185 561 l 257
 185 348 l 257
60 208 m 257
 60 208 100 208 100 208 c 257
 100 276 123 331 215 331 c 258
 541 331 l 258
 641 331 678 296 678 196 c 257
 718 196 l 257
 718 325 665 371 553 371 c 258
 212 371 l 258
 171 371 60 362 60 208 c 257
249 -11 m 257
 249 29 l 257
 167 29 107 78 101 172 c 257
 100 172 60 172 60 172 c 257
 63 76 126 -11 249 -11 c 257
303 -11 m 257
 439 -11 482 95 482 191 c 258
 482 563 l 257
 442 563 l 257
 442 191 l 258
 442 75 378 29 303 29 c 257
 303 -11 l 257
361 555 m 257
 614 555 l 257
 614 595 l 257
 361 595 l 257
 361 555 l 257
185 555 m 257
 307 555 l 257
 307 595 l 257
 185 595 l 257
 185 555 l 257
502 -11 m 256
 625 -11 712 68 717 160 c 257
 674 161 l 257
 669 80 590 29 502 29 c 256
 502 -11 l 256
EndSplineSet
PickledDataWithLists: "(dp1
S'com.fontlab.hintData'
p2
(dp3
S'vhints'
p4
(lp5
(dp6
S'position'
p7
I20
sS'width'
p8
I121
sa(dp9
g7
I145
sg8
I162
sa(dp10
g7
I145
sg8
I122
sa(dp11
g7
I400
sg8
I122
sa(dp12
g7
I636
sg8
I122
sasS'hhints'
p13
(lp14
(dp15
g7
I-11
sg8
I123
sa(dp16
g7
I2
sg8
I124
sa(dp17
g7
I249
sg8
I122
sa(dp18
g7
I348
sg8
I23
sa(dp19
g7
I470
sg8
I125
sa(dp20
g7
I470
sg8
I71
sass."
EndChar

StartChar: tml_LAi
Encoding: 50 -1 49
GlifName: tml_L_A_i
Width: 1125
VWidth: 0
GlyphClass: 2
Flags: W
LayerCount: 2
Back
Fore
SplineSet
390 29 m 257
 373 80 l 257
 249 -38 36 57 131 206 c 258
 348 546 l 257
 431 681 383 844 181 844 c 256
 1 844 -6 600 158 600 c 256
 203 600 232 620 248 647 c 257
 218 680 l 256
 214 665 197 640 157 640 c 256
 111 640 85 674 85 719 c 256
 85 734 98 804 191 804 c 257
 322 804 407 689 293 535 c 256
 106 250 l 258
 -31 41 193 -90 390 29 c 257
586 555 m 257
 734 555 744 436 744 390 c 258
 744 129 l 258
 744 53 814 -11 888 -11 c 257
 888 30 l 257
 835 30 785 77 785 131 c 258
 785 382 l 258
 785 470 751 595 586 595 c 257
 586 555 l 257
912 583 m 257
 912 543 l 257
 1037 543 1046 477 1046 411 c 257
 1046 135 l 257
 1046 92 1021 30 941 30 c 257
 941 -11 l 257
 1037 -11 1086 60 1086 135 c 258
 1086 413 l 258
 1086 530 1032 584 912 583 c 257
330 161 m 258
 330 77 393 -11 482 -11 c 256
 482 29 l 257
 432 29 369 80 369 170 c 256
 369 284 444 308 482 308 c 256
 482 348 l 257
 406 348 330 289 330 185 c 258
 330 161 l 258
537 -11 m 257
 609 -11 673 64 673 162 c 258
 673 185 l 258
 673 281 610 348 537 348 c 256
 537 308 l 257
 579 308 631 271 631 172 c 256
 631 77 581 29 537 29 c 257
 537 -11 l 257
330 193 m 257
 370 295 l 256
 371 432 430 554 532 554 c 257
 532 594 l 257
 407 594 330 458 330 291 c 257
 330 193 l 257
EndSplineSet
EndChar

StartChar: tml_LI
Encoding: 51 -1 50
GlifName: tml_L_I_
Width: 963
VWidth: 0
GlyphClass: 2
Flags: W
LayerCount: 2
Back
Fore
SplineSet
651 0 m 257
 747 0 796 71 796 146 c 258
 796 424 l 258
 796 541 740 595 626 594 c 257
 584 594 564 735 717 735 c 256
 717 735 717 775 717 775 c 257
 508 775 533 554 622 554 c 257
 747 554 756 488 756 422 c 257
 756 146 l 257
 756 104 732 41 651 41 c 257
 651 0 l 257
296 566 m 257
 444 566 454 447 454 401 c 258
 454 140 l 258
 454 64 524 0 598 0 c 257
 598 41 l 257
 545 41 495 88 495 142 c 258
 495 393 l 258
 495 481 461 606 296 606 c 257
 296 566 l 257
192 0 m 256
 192 40 l 257
 142 40 79 91 79 181 c 256
 79 295 155 319 192 319 c 256
 192 359 l 257
 116 359 40 300 40 196 c 258
 40 172 l 258
 40 88 104 0 192 0 c 256
247 0 m 257
 319 0 384 75 383 173 c 258
 383 196 l 258
 383 292 320 359 247 359 c 256
 247 319 l 257
 289 319 341 282 341 183 c 256
 341 88 291 40 247 40 c 257
 247 0 l 257
771 734 m 257
 881 734 883 650 883 589 c 258
 883 -1 l 257
 924 -1 l 257
 924 592 l 258
 924 687 901 775 771 775 c 257
 771 734 l 257
40 204 m 257
 80 306 l 256
 81 443 141 565 242 565 c 257
 242 605 l 257
 117 605 40 469 40 302 c 257
 40 204 l 257
EndSplineSet
EndChar

StartChar: tml_LIi
Encoding: 52 -1 51
GlifName: tml_L_I_i
Width: 958
VWidth: 0
GlyphClass: 2
Flags: W
LayerCount: 2
Back
Fore
SplineSet
703 541 m 257
 558 599 610 849 772 835 c 257
 829 835 878 799 878 746 c 256
 878 693 841 669 811 669 c 256
 773 669 750 691 750 707 c 256
 724 675 l 257
 736 652 767 629 808 629 c 256
 954 627 970 874 765 874 c 256
 620 874 555 741 583 621 c 256
 597 562 651 521 691 501 c 256
 740 477 735 446 736 423 c 258
 736 123 l 257
 736 46 678 40 651 40 c 257
 651 0 l 257
 745 0 776 61 776 123 c 258
 776 424 l 258
 776 450 781 513 703 541 c 257
247 0 m 257
 319 0 384 75 383 173 c 258
 383 196 l 258
 383 292 320 359 247 359 c 256
 247 319 l 257
 289 319 341 282 341 183 c 256
 341 88 291 40 247 40 c 257
 247 0 l 257
40 172 m 258
 40 88 104 0 192 0 c 256
 192 40 l 257
 142 40 79 91 79 181 c 256
 79 295 155 319 192 319 c 256
 192 359 l 257
 116 359 40 300 40 196 c 258
 40 172 l 258
40 204 m 257
 80 306 l 256
 81 443 141 565 242 565 c 257
 242 605 l 257
 117 605 40 469 40 302 c 257
 40 204 l 257
296 566 m 257
 444 566 454 447 454 401 c 258
 454 140 l 258
 454 64 524 0 598 0 c 257
 598 41 l 257
 545 41 495 88 495 142 c 258
 495 393 l 258
 495 481 461 606 296 606 c 257
 296 566 l 257
EndSplineSet
EndChar

StartChar: tml_LU
Encoding: 53 -1 52
GlifName: tml_L_U_
Width: 970
VWidth: 0
GlyphClass: 2
Flags: W
HStem: -257 94 0 122 237 123 485 121
VStem: 41 124 41 131 41 171 313 123 473 122 733 122
LayerCount: 2
Back
Fore
SplineSet
451 -232 m 257
 623 -232 l 258
 776 -232 796 -120 796 -54 c 258
 796 231 l 257
 756 231 l 257
 756 -54 l 258
 756 -159 698 -192 622 -192 c 258
 451 -192 l 257
 451 -232 l 257
69 -134 m 258
 69 -152 l 258
 69 -190 116 -232 179 -232 c 258
 397 -232 l 257
 397 -192 l 257
 182 -192 l 258
 81 -192 87 -95 173 -95 c 258
 930 -95 l 257
 930 583 l 256
 890 583 l 256
 890 -55 l 257
 173 -55 l 258
 113 -55 69 -90 69 -134 c 258
EndSplineSet
Refer: 54 2994 N 1 0 0 1 0 0 2
PickledDataWithLists: "(dp1
S'com.fontlab.hintData'
p2
(dp3
S'vhints'
p4
(lp5
(dp6
S'position'
p7
I41
sS'width'
p8
I124
sa(dp9
g7
I41
sg8
I131
sa(dp10
g7
I41
sg8
I171
sa(dp11
g7
I313
sg8
I123
sa(dp12
g7
I473
sg8
I122
sa(dp13
g7
I733
sg8
I122
sasS'hhints'
p14
(lp15
(dp16
g7
I-257
sg8
I94
sa(dp17
g7
I0
sg8
I122
sa(dp18
g7
I237
sg8
I123
sa(dp19
g7
I485
sg8
I121
sass."
EndChar

StartChar: tml_LUu
Encoding: 54 -1 53
GlifName: tml_L_U_u
Width: 1340
VWidth: 0
GlyphClass: 2
Flags: W
HStem: -257 94 0 122 237 123 485 121
VStem: 41 124 41 131 41 171 313 123 473 122 733 122
LayerCount: 2
Back
Fore
SplineSet
179 -235 m 258
 397 -235 l 257
 397 -195 l 257
 186 -195 l 258
 85 -195 83 -98 173 -98 c 258
 932 -98 l 257
 932 583 l 256
 892 583 l 256
 892 -58 l 257
 173 -58 l 258
 113 -58 69 -93 69 -137 c 258
 69 -155 l 258
 69 -193 116 -235 179 -235 c 258
451 -235 m 257
 623 -235 l 258
 776 -235 796 -123 796 -57 c 258
 796 231 l 257
 756 231 l 257
 756 -57 l 258
 756 -162 698 -195 622 -195 c 258
 451 -195 l 257
 451 -235 l 257
892 555 m 257
 1033 555 l 257
 1033 596 l 257
 892 596 l 257
 892 555 l 257
1176 1 m 257
 1216 1 l 257
 1216 594 l 257
 1176 594 l 257
 1176 1 l 257
1086 555 m 257
 1300 555 l 257
 1300 596 l 257
 1086 596 l 257
 1086 555 l 257
EndSplineSet
Refer: 54 2994 N 1 0 0 1 0 0 2
PickledDataWithLists: "(dp1
S'com.fontlab.hintData'
p2
(dp3
S'vhints'
p4
(lp5
(dp6
S'position'
p7
I41
sS'width'
p8
I124
sa(dp9
g7
I41
sg8
I131
sa(dp10
g7
I41
sg8
I171
sa(dp11
g7
I313
sg8
I123
sa(dp12
g7
I473
sg8
I122
sa(dp13
g7
I733
sg8
I122
sasS'hhints'
p14
(lp15
(dp16
g7
I-257
sg8
I94
sa(dp17
g7
I0
sg8
I122
sa(dp18
g7
I237
sg8
I123
sa(dp19
g7
I485
sg8
I121
sass."
EndChar

StartChar: tml_La
Encoding: 55 2994 54
GlifName: tml_L_a
Width: 835
VWidth: 0
GlyphClass: 2
Flags: W
HStem: 0 122 237 123 485 121
VStem: 1 171 1 131 1 124 273 123 434 122 693 122
AnchorPoint: "tml_virama" 551 0 basechar 0
LayerCount: 2
Back
Fore
SplineSet
247 0 m 257
 319 0 384 75 383 173 c 258
 383 196 l 258
 383 292 320 359 247 359 c 256
 247 319 l 257
 289 319 341 282 341 183 c 256
 341 88 291 40 247 40 c 257
 247 0 l 257
40 172 m 258
 40 88 104 0 192 0 c 256
 192 40 l 257
 142 40 79 91 79 181 c 256
 79 295 155 319 192 319 c 256
 192 359 l 257
 116 359 40 300 40 196 c 258
 40 172 l 258
40 204 m 257
 80 306 l 256
 81 443 141 565 242 565 c 257
 242 605 l 257
 117 605 40 469 40 302 c 257
 40 204 l 257
296 566 m 257
 444 566 454 447 454 401 c 258
 454 140 l 258
 454 64 524 0 598 0 c 257
 598 41 l 257
 545 41 495 88 495 142 c 258
 495 393 l 258
 495 481 461 606 296 606 c 257
 296 566 l 257
622 594 m 257
 622 554 l 257
 747 554 756 488 756 422 c 257
 756 146 l 257
 756 104 732 41 651 41 c 257
 651 0 l 257
 747 0 796 71 796 146 c 258
 796 424 l 258
 796 541 742 595 622 594 c 257
EndSplineSet
PickledDataWithLists: "(dp1
S'com.fontlab.hintData'
p2
(dp3
S'vhints'
p4
(lp5
(dp6
S'position'
p7
I1
sS'width'
p8
I171
sa(dp9
g7
I1
sg8
I131
sa(dp10
g7
I1
sg8
I124
sa(dp11
g7
I273
sg8
I123
sa(dp12
g7
I434
sg8
I122
sa(dp13
g7
I693
sg8
I122
sasS'hhints'
p14
(lp15
(dp16
g7
I0
sg8
I122
sa(dp17
g7
I237
sg8
I123
sa(dp18
g7
I485
sg8
I121
sass."
EndChar

StartChar: tml_LlAi
Encoding: 56 -1 55
GlifName: tml_L_lA_i
Width: 1183
VWidth: 0
GlyphClass: 2
Flags: W
LayerCount: 2
Back
Fore
SplineSet
390 29 m 257
 373 80 l 257
 249 -38 36 57 131 206 c 258
 348 546 l 257
 431 681 383 844 181 844 c 256
 1 844 -6 600 158 600 c 256
 203 600 232 620 248 647 c 257
 218 680 l 256
 214 665 197 640 157 640 c 256
 111 640 85 674 85 719 c 256
 85 734 98 804 191 804 c 257
 322 804 407 689 293 535 c 256
 106 250 l 258
 -31 41 193 -90 390 29 c 257
325 163 m 258
 325 79 388 -9 477 -9 c 256
 477 31 l 257
 427 31 364 82 364 172 c 256
 364 286 439 310 477 310 c 256
 477 350 l 257
 401 350 325 291 325 187 c 258
 325 163 l 258
532 -9 m 257
 604 -9 668 66 668 164 c 258
 668 187 l 258
 668 283 605 350 532 350 c 256
 532 310 l 257
 574 310 626 273 626 174 c 256
 626 79 576 31 532 31 c 257
 532 -9 l 257
600 556 m 257
 713 556 763 463 763 345 c 257
 763 -9 l 257
 803 -9 l 257
 803 346 l 257
 803 445 762 596 600 596 c 257
 600 556 l 257
325 195 m 257
 365 297 l 256
 366 434 432 556 546 556 c 257
 546 596 l 257
 409 596 325 460 325 293 c 257
 325 195 l 257
763 316 m 257
 803 317 l 257
 803 445 820 556 907 556 c 257
 907 596 l 257
 773 596 763 431 763 316 c 257
1030 -9 m 257
 1070 -9 l 257
 1070 565 l 257
 1030 565 l 257
 1030 -9 l 257
961 556 m 257
 1144 556 l 257
 1144 596 l 257
 961 596 l 257
 961 556 l 257
EndSplineSet
EndChar

StartChar: tml_LlI
Encoding: 57 -1 56
GlifName: tml_L_lI_
Width: 1100
VWidth: 0
GlyphClass: 2
Flags: W
LayerCount: 2
Back
Fore
SplineSet
40 172 m 258
 40 88 104 0 192 0 c 256
 192 40 l 257
 142 40 79 91 79 181 c 256
 79 295 155 319 192 319 c 256
 192 359 l 257
 116 359 40 300 40 196 c 258
 40 172 l 258
247 0 m 257
 319 0 384 75 383 173 c 258
 383 196 l 258
 383 292 320 359 247 359 c 256
 247 319 l 257
 289 319 341 282 341 183 c 256
 341 88 291 40 247 40 c 257
 247 0 l 257
745 595 m 257
 785 595 l 256
 785 656 796 723 876 723 c 256
 876 723 l 256
 876 763 l 257
 876 763 l 256
 782 763 745 699 745 595 c 257
 745 595 l 257
315 565 m 257
 428 565 478 472 478 354 c 257
 478 0 l 257
 518 0 l 257
 518 355 l 257
 518 454 477 605 315 605 c 257
 315 565 l 257
930 723 m 257
 1016 723 1020 656 1020 594 c 258
 1020 1 l 257
 1060 1 l 257
 1060 597 l 258
 1060 699 1027 763 930 763 c 257
 930 723 l 257
40 204 m 257
 80 306 l 256
 82 443 148 565 261 565 c 257
 261 605 l 257
 124 605 40 469 40 302 c 257
 40 204 l 257
478 325 m 257
 518 326 l 257
 518 454 535 565 622 565 c 257
 622 605 l 257
 488 605 478 440 478 325 c 257
745 0 m 257
 785 0 l 257
 785 574 l 257
 745 574 l 257
 745 0 l 257
676 565 m 257
 859 565 l 257
 859 605 l 257
 676 605 l 257
 676 565 l 257
EndSplineSet
EndChar

StartChar: tml_LlIi
Encoding: 58 -1 57
GlifName: tml_L_lI_i
Width: 1080
VWidth: 0
GlyphClass: 2
Flags: W
LayerCount: 2
Back
Fore
SplineSet
746 581 m 257
 787 581 l 257
 786 604 l 256
 711 762 811 870 893 870 c 257
 991 870 999 803 999 788 c 256
 999 729 950 713 927 713 c 256
 902 713 868 736 868 752 c 256
 842 721 l 257
 852 700 886 673 924 673 c 256
 1087 673 1077 910 903 910 c 256
 767 910 672 764 746 605 c 256
 746 581 l 257
EndSplineSet
Refer: 60 2995 N 1 0 0 1 0 0 2
EndChar

StartChar: tml_LlU
Encoding: 59 -1 58
GlifName: tml_L_lU_
Width: 1232
VWidth: 0
GlyphClass: 2
Flags: W
HStem: -149 122 0 122 237 123 379 122 472 123
VStem: 1 123 229 172 229 132 230 123 501 123 662 123 1149 122
LayerCount: 2
Back
Fore
SplineSet
195 -142 m 258
 615 -142 l 257
 615 -102 l 257
 192 -102 l 258
 133 -102 80 -55 80 56 c 258
 80 287 l 258
 80 387 141 421 200 421 c 256
 200 461 l 256
 132 461 40 424 40 292 c 258
 40 57 l 258
 40 -77 108 -142 195 -142 c 258
669 -142 m 257
 1039 -142 l 258
 1142 -142 1192 -47 1192 20 c 258
 1192 187 l 258
 1192 305 1089 334 1028 340 c 257
 1028 300 l 257
 1060 300 1152 282 1152 183 c 258
 1152 20 l 258
 1152 -49 1092 -102 1038 -102 c 258
 669 -102 l 257
 669 -142 l 257
EndSplineSet
Refer: 60 2995 N 1 0 0 1 196 0 2
PickledDataWithLists: "(dp1
S'com.fontlab.hintData'
p2
(dp3
S'vhints'
p4
(lp5
(dp6
S'position'
p7
I1
sS'width'
p8
I123
sa(dp9
g7
I229
sg8
I172
sa(dp10
g7
I229
sg8
I132
sa(dp11
g7
I230
sg8
I123
sa(dp12
g7
I501
sg8
I123
sa(dp13
g7
I662
sg8
I123
sa(dp14
g7
I1149
sg8
I122
sasS'hhints'
p15
(lp16
(dp17
g7
I-149
sg8
I122
sa(dp18
g7
I0
sg8
I122
sa(dp19
g7
I237
sg8
I123
sa(dp20
g7
I379
sg8
I122
sa(dp21
g7
I472
sg8
I123
sass."
EndChar

StartChar: tml_LlUu
Encoding: 60 -1 59
GlifName: tml_L_lU_u
Width: 1342
VWidth: 0
GlyphClass: 2
Flags: W
HStem: -149 122 0 122 237 123 379 122 472 123
VStem: 1 123 229 172 229 132 230 123 501 123 662 123 1149 122
LayerCount: 2
Back
Fore
SplineSet
40 31 m 258
 40 -108 125 -176 234 -176 c 258
 700 -176 l 257
 700 -136 l 257
 234 -136 l 258
 155 -136 80 -91 80 30 c 258
 80 390 l 258
 80 452 103 486 161 486 c 256
 221 486 242 439 242 405 c 256
 242 377 222 337 167 336 c 256
 167 296 l 257
 230 296 282 345 282 392 c 258
 282 421 l 258
 282 461 243 526 166 526 c 258
 156 526 l 258
 75 526 40 468 40 390 c 258
 40 31 l 258
753 -136 m 257
 753 -176 l 257
 1088 -176 l 258
 1214 -176 1276 -81 1276 -14 c 258
 1276 221 l 258
 1276 339 1173 366 1112 372 c 257
 1112 332 l 257
 1144 332 1236 316 1236 217 c 258
 1236 -14 l 258
 1236 -83 1158 -136 1087 -136 c 258
 753 -136 l 257
EndSplineSet
Refer: 60 2995 N 1 0 0 1 278 -3 2
PickledDataWithLists: "(dp1
S'com.fontlab.hintData'
p2
(dp3
S'vhints'
p4
(lp5
(dp6
S'position'
p7
I1
sS'width'
p8
I123
sa(dp9
g7
I229
sg8
I172
sa(dp10
g7
I229
sg8
I132
sa(dp11
g7
I230
sg8
I123
sa(dp12
g7
I501
sg8
I123
sa(dp13
g7
I662
sg8
I123
sa(dp14
g7
I1149
sg8
I122
sasS'hhints'
p15
(lp16
(dp17
g7
I-149
sg8
I122
sa(dp18
g7
I0
sg8
I122
sa(dp19
g7
I237
sg8
I123
sa(dp20
g7
I379
sg8
I122
sa(dp21
g7
I472
sg8
I123
sass."
EndChar

StartChar: tml_Lla
Encoding: 61 2995 60
GlifName: tml_L_la
Width: 898
VWidth: 0
GlyphClass: 2
Flags: W
HStem: 0 122 237 123 482 123
VStem: 3 171 3 131 3 124 275 123
AnchorPoint: "tml_virama" 531 0 basechar 0
LayerCount: 2
Back
Fore
SplineSet
40 172 m 258
 40 88 104 0 192 0 c 256
 192 40 l 257
 142 40 79 91 79 181 c 256
 79 295 155 319 192 319 c 256
 192 359 l 257
 116 359 40 300 40 196 c 258
 40 172 l 258
247 0 m 257
 319 0 384 75 383 173 c 258
 383 196 l 258
 383 292 320 359 247 359 c 256
 247 319 l 257
 289 319 341 282 341 183 c 256
 341 88 291 40 247 40 c 257
 247 0 l 257
315 565 m 257
 428 565 478 472 478 354 c 257
 478 0 l 257
 518 0 l 257
 518 355 l 257
 518 454 477 605 315 605 c 257
 315 565 l 257
40 204 m 257
 80 306 l 256
 82 443 148 565 261 565 c 257
 261 605 l 257
 124 605 40 469 40 302 c 257
 40 204 l 257
478 325 m 257
 518 326 l 257
 518 454 535 565 622 565 c 257
 622 605 l 257
 488 605 478 440 478 325 c 257
745 0 m 257
 785 0 l 257
 785 574 l 257
 745 574 l 257
 745 0 l 257
676 565 m 257
 859 565 l 257
 859 605 l 257
 676 605 l 257
 676 565 l 257
EndSplineSet
PickledDataWithLists: "(dp1
S'com.fontlab.hintData'
p2
(dp3
S'vhints'
p4
(lp5
(dp6
S'position'
p7
I3
sS'width'
p8
I171
sa(dp9
g7
I3
sg8
I131
sa(dp10
g7
I3
sg8
I124
sa(dp11
g7
I275
sg8
I123
sasS'hhints'
p12
(lp13
(dp14
g7
I0
sg8
I122
sa(dp15
g7
I237
sg8
I123
sa(dp16
g7
I482
sg8
I123
sass."
EndChar

StartChar: tml_LllI
Encoding: 62 -1 61
GlifName: tml_L_llI_
Width: 728
VWidth: 0
GlyphClass: 2
Flags: W
LayerCount: 2
Back
Fore
SplineSet
364 565 m 257
 418 565 l 257
 508 565 502 442 502 434 c 258
 502 196 l 258
 502 165 500 40 418 40 c 257
 418 0 l 256
 482 0 542 48 542 197 c 258
 542 434 l 258
 542 569 476 605 418 605 c 257
 364 605 l 257
 308 605 245 567 246 434 c 258
 246 39 l 256
 286 39 l 257
 286 434 l 258
 286 443 280 565 364 565 c 257
373 595 m 257
 413 595 l 256
 413 656 424 723 504 723 c 256
 504 723 l 256
 504 763 l 257
 504 763 l 256
 410 763 373 699 373 595 c 257
 373 595 l 257
648 594 m 258
 648 2 l 257
 688 2 l 257
 688 597 l 258
 688 699 655 763 558 763 c 257
 558 723 l 257
 644 723 648 656 648 594 c 258
  PathStart: -1
40 24 m 257
 80 24 l 257
 80 595 l 257
 40 595 l 257
 40 24 l 257
40 0 m 257
 364 0 l 257
 364 40 l 257
 40 40 l 257
 40 0 l 257
330 -163 m 257
 314 -162 294 -153 285 -143 c 257
 247 -184 127 -185 127 -67 c 257
 87 -67 l 257
 87 -191 202 -258 330 -163 c 257
433 -145 m 257
 485 -146 l 256
 485 -106 l 257
 378 -106 287 -111 287 2 c 257
 247 2 l 257
 247 -59 269 -146 433 -145 c 257
  PathStart: -1
EndSplineSet
EndChar

StartChar: tml_LllIi
Encoding: 63 -1 62
GlifName: tml_L_llI_i
Width: 707
VWidth: 0
GlyphClass: 2
Flags: W
LayerCount: 2
Back
Fore
SplineSet
364 565 m 257
 418 565 l 257
 508 565 502 442 502 434 c 258
 502 196 l 258
 502 165 500 40 418 40 c 257
 418 0 l 256
 482 0 542 48 542 197 c 258
 542 434 l 258
 542 569 476 605 418 605 c 257
 364 605 l 257
 308 605 245 567 246 434 c 258
 246 39 l 256
 286 39 l 257
 286 434 l 258
 286 443 280 565 364 565 c 257
373 580 m 257
 414 580 l 257
 413 603 l 256
 338 761 438 869 520 869 c 257
 618 869 626 802 626 787 c 256
 626 728 577 712 554 712 c 256
 529 712 495 735 495 751 c 256
 469 720 l 257
 479 699 513 672 551 672 c 256
 714 672 704 909 530 909 c 256
 394 909 299 763 373 604 c 256
 373 580 l 257
40 24 m 257
 80 24 l 257
 80 595 l 257
 40 595 l 257
 40 24 l 257
40 0 m 257
 364 0 l 257
 364 40 l 257
 40 40 l 257
 40 0 l 257
330 -163 m 257
 314 -162 294 -153 285 -143 c 257
 247 -184 127 -185 127 -67 c 257
 87 -67 l 257
 87 -191 202 -258 330 -163 c 257
433 -145 m 257
 485 -146 l 256
 485 -106 l 257
 378 -106 287 -111 287 2 c 257
 247 2 l 257
 247 -59 269 -146 433 -145 c 257
  PathStart: -1
EndSplineSet
EndChar

StartChar: tml_LllU
Encoding: 64 -1 63
GlifName: tml_L_llU_
Width: 759
VWidth: 0
GlyphClass: 2
Flags: W
HStem: -258 93 -146 179 0 123 107 17 122 1 483 122
VStem: 1 123 216 122 419 122 420 122 536 5 602 93 679 123
LayerCount: 2
Back
Fore
SplineSet
40 544 m 258
 43 -52 l 258
 43 -173 110 -232 195 -232 c 258
 326 -232 l 257
 326 -192 l 257
 191 -192 l 258
 117 -192 81 -126 81 -56 c 258
 82 550 l 258
 82 599 95 661 151 661 c 257
 235 661 l 256
 235 701 l 257
 157 701 l 258
 63 701 39 613 40 544 c 258
380 -192 m 256
 380 -232 l 257
 614 -232 l 258
 650 -232 667 -220 667 -177 c 258
 667 -101 l 258
 667 -78 657 -52 614 -52 c 258
 451 -52 l 257
 451 -92 l 256
 627 -92 l 256
 627 -192 l 256
 380 -192 l 256
419 32 m 257
 419 -146 l 257
 459 -146 l 257
 459 32 l 257
 419 32 l 257
EndSplineSet
Refer: 70 2990 N 1 0 0 1 177.016 0 2
PickledDataWithLists: "(dp1
S'com.fontlab.hintData'
p2
(dp3
S'vhints'
p4
(lp5
(dp6
S'position'
p7
I1
sS'width'
p8
I123
sa(dp9
g7
I216
sg8
I122
sa(dp10
g7
I419
sg8
I122
sa(dp11
g7
I420
sg8
I122
sa(dp12
g7
I536
sg8
I5
sa(dp13
g7
I602
sg8
I93
sa(dp14
g7
I679
sg8
I123
sasS'hhints'
p15
(lp16
(dp17
g7
I-258
sg8
I93
sa(dp18
g7
I-146
sg8
I179
sa(dp19
g7
I0
sg8
I123
sa(dp20
g7
I107
sg8
I17
sa(dp21
g7
I122
sg8
I1
sa(dp22
g7
I483
sg8
I122
sass."
EndChar

StartChar: tml_LllUu
Encoding: 65 -1 64
GlifName: tml_L_llU_u
Width: 863
VWidth: 0
GlyphClass: 2
Flags: W
HStem: -258 93 -146 179 2 123 108 17 124 1 442 122 485 122
VStem: -19 125 181 122 320 122 523 122 524 122 640 5 707 93 784 123
LayerCount: 2
Back
Fore
SplineSet
40 -25 m 258
 40 -164 107 -232 193 -232 c 258
 430 -232 l 257
 430 -192 l 257
 193 -192 l 258
 135 -192 80 -147 80 -26 c 258
 80 372 l 258
 80 444 102 483 160 483 c 256
 219 483 240 438 240 405 c 256
 240 370 215 331 167 330 c 256
 167 290 l 257
 229 290 280 345 280 399 c 258
 280 413 l 258
 280 462 241 523 165 523 c 258
 155 523 l 258
 75 523 40 458 40 372 c 258
 40 -25 l 258
484 -192 m 256
 484 -232 l 257
 720 -232 l 258
 756 -232 773 -220 773 -177 c 258
 773 -102 l 258
 773 -79 763 -53 720 -53 c 258
 555 -53 l 257
 555 -93 l 256
 733 -93 l 256
 733 -192 l 256
 484 -192 l 256
523 32 m 257
 523 -146 l 257
 563 -146 l 257
 563 32 l 257
 523 32 l 257
EndSplineSet
Refer: 70 2990 N 1 0 0 1 281 2 2
PickledDataWithLists: "(dp1
S'com.fontlab.hintData'
p2
(dp3
S'vhints'
p4
(lp5
(dp6
S'position'
p7
I-19
sS'width'
p8
I125
sa(dp9
g7
I181
sg8
I122
sa(dp10
g7
I320
sg8
I122
sa(dp11
g7
I523
sg8
I122
sa(dp12
g7
I524
sg8
I122
sa(dp13
g7
I640
sg8
I5
sa(dp14
g7
I707
sg8
I93
sa(dp15
g7
I784
sg8
I123
sasS'hhints'
p16
(lp17
(dp18
g7
I-258
sg8
I93
sa(dp19
g7
I-146
sg8
I179
sa(dp20
g7
I2
sg8
I123
sa(dp21
g7
I108
sg8
I17
sa(dp22
g7
I124
sg8
I1
sa(dp23
g7
I442
sg8
I122
sa(dp24
g7
I485
sg8
I122
sass."
EndChar

StartChar: tml_Llla
Encoding: 66 2996 65
GlifName: tml_L_lla
Width: 601
VWidth: 0
GlyphClass: 2
Flags: W
HStem: -145 123 0 123 107 17 122 1 483 122
VStem: 1 122 205 122 465 123
AnchorPoint: "tml_virama" 396 2 basechar 0
LayerCount: 2
Back
Fore
SplineSet
87 -67 m 257
 87 -191 202 -258 330 -163 c 257
 314 -162 294 -153 285 -143 c 257
 247 -184 127 -185 127 -67 c 257
 87 -67 l 257
247 2 m 257
 247 -59 269 -146 433 -145 c 257
 485 -146 l 256
 485 -106 l 257
 378 -106 287 -111 287 2 c 257
 247 2 l 257
EndSplineSet
Refer: 70 2990 N 1 0 0 1 1.086 1.453 2
PickledDataWithLists: "(dp1
S'com.fontlab.hintData'
p2
(dp3
S'vhints'
p4
(lp5
(dp6
S'position'
p7
I1
sS'width'
p8
I122
sa(dp9
g7
I205
sg8
I122
sa(dp10
g7
I465
sg8
I123
sasS'hhints'
p11
(lp12
(dp13
g7
I-145
sg8
I123
sa(dp14
g7
I0
sg8
I123
sa(dp15
g7
I107
sg8
I17
sa(dp16
g7
I122
sg8
I1
sa(dp17
g7
I483
sg8
I122
sass."
EndChar

StartChar: tml_MI
Encoding: 67 -1 66
GlifName: tml_M_I_
Width: 720
VWidth: 0
GlyphClass: 2
Flags: W
LayerCount: 2
Back
Fore
SplineSet
550 724 m 257
 636 724 640 657 640 595 c 258
 640 1 l 257
 680 1 l 257
 680 598 l 258
 680 700 647 764 550 764 c 257
 550 724 l 257
365 596 m 257
 405 596 l 256
 405 657 416 724 496 724 c 256
 496 724 l 256
 496 764 l 257
 496 764 l 256
 402 764 365 700 365 596 c 257
 365 596 l 257
364 565 m 257
 418 565 l 257
 508 565 502 442 502 434 c 258
 502 196 l 258
 502 165 500 40 418 40 c 257
 418 0 l 256
 482 0 542 48 542 197 c 258
 542 434 l 258
 542 569 476 605 418 605 c 257
 364 605 l 257
 308 605 245 567 246 434 c 258
 246 39 l 256
 286 39 l 257
 286 434 l 258
 286 443 280 565 364 565 c 257
40 24 m 257
 80 24 l 257
 80 595 l 257
 40 595 l 257
 40 24 l 257
40 0 m 257
 364 0 l 257
 364 40 l 257
 40 40 l 257
 40 0 l 257
EndSplineSet
EndChar

StartChar: tml_MIi
Encoding: 68 -1 67
GlifName: tml_M_I_i
Width: 707
VWidth: 0
GlyphClass: 2
Flags: W
LayerCount: 2
Back
Fore
SplineSet
364 565 m 257
 418 565 l 257
 508 565 502 442 502 434 c 258
 502 196 l 258
 502 165 500 40 418 40 c 257
 418 0 l 256
 482 0 542 48 542 197 c 258
 542 434 l 258
 542 569 476 605 418 605 c 257
 364 605 l 257
 308 605 245 567 246 434 c 258
 246 39 l 256
 286 39 l 257
 286 434 l 258
 286 443 280 565 364 565 c 257
373 575 m 257
 414 575 l 257
 413 598 l 256
 338 756 438 864 520 864 c 257
 618 864 626 797 626 782 c 256
 626 723 577 707 554 707 c 256
 529 707 495 730 495 746 c 256
 469 715 l 257
 479 694 513 667 551 667 c 256
 714 667 704 904 530 904 c 256
 394 904 299 758 373 599 c 256
 373 575 l 257
40 24 m 257
 80 24 l 257
 80 595 l 257
 40 595 l 257
 40 24 l 257
40 0 m 257
 364 0 l 257
 364 40 l 257
 40 40 l 257
 40 0 l 257
EndSplineSet
EndChar

StartChar: tml_MU
Encoding: 69 -1 68
GlifName: tml_M_U_
Width: 793
VWidth: 0
GlyphClass: 2
Flags: W
HStem: -151 122 0 123 107 17 122 1 483 122 634 122
VStem: 0 123 250 122 454 122 714 123
LayerCount: 2
Back
Fore
SplineSet
234 -137 m 258
 301 -137 l 257
 301 -97 l 257
 230 -97 l 258
 128 -97 80 -38 80 24 c 258
 80 555 l 258
 80 618 126 690 239 690 c 257
 239 730 l 257
 97 730 39 635 40 548 c 257
 40 28 l 258
 40 -83 125 -137 234 -137 c 258
355 -97 m 256
 355 -137 l 257
 453 -137 l 258
 483 -137 495 -115 495 -91 c 258
 495 15 l 257
 454 15 l 257
 454 -97 l 256
 355 -97 l 256
EndSplineSet
Refer: 70 2990 N 1 0 0 1 211.014 0 2
PickledDataWithLists: "(dp1
S'com.fontlab.hintData'
p2
(dp3
S'vhints'
p4
(lp5
(dp6
S'position'
p7
I0
sS'width'
p8
I123
sa(dp9
g7
I250
sg8
I122
sa(dp10
g7
I454
sg8
I122
sa(dp11
g7
I714
sg8
I123
sasS'hhints'
p12
(lp13
(dp14
g7
I-151
sg8
I122
sa(dp15
g7
I0
sg8
I123
sa(dp16
g7
I107
sg8
I17
sa(dp17
g7
I122
sg8
I1
sa(dp18
g7
I483
sg8
I122
sa(dp19
g7
I634
sg8
I122
sass."
EndChar

StartChar: tml_MUu
Encoding: 70 -1 69
GlifName: tml_M_U_u
Width: 894
VWidth: 0
GlyphClass: 2
Flags: W
HStem: -151 122 0 123 107 17 122 1 442 122 483 122
VStem: -16 125 184 122 336 122 540 122 799 123
LayerCount: 2
Back
Fore
SplineSet
50 26 m 258
 50 -84 115 -138 199 -138 c 258
 386 -138 l 257
 386 -98 l 257
 199 -98 l 258
 143 -98 90 -65 90 25 c 258
 90 387 l 258
 90 449 129 483 177 483 c 256
 231 483 258 452 258 405 c 256
 258 365 227 332 173 331 c 256
 173 291 l 257
 242 291 298 346 298 400 c 258
 298 411 l 258
 298 464 257 523 178 523 c 258
 172 523 l 258
 103 523 50 465 50 387 c 258
 50 26 l 258
440 -98 m 256
 440 -138 l 257
 539 -138 l 258
 569 -138 581 -116 581 -92 c 258
 581 15 l 257
 540 15 l 257
 540 -98 l 256
 440 -98 l 256
EndSplineSet
Refer: 70 2990 N 1 0 0 1 297 -2.344 2
PickledDataWithLists: "(dp1
S'com.fontlab.hintData'
p2
(dp3
S'vhints'
p4
(lp5
(dp6
S'position'
p7
I-16
sS'width'
p8
I125
sa(dp9
g7
I184
sg8
I122
sa(dp10
g7
I336
sg8
I122
sa(dp11
g7
I540
sg8
I122
sa(dp12
g7
I799
sg8
I123
sasS'hhints'
p13
(lp14
(dp15
g7
I-151
sg8
I122
sa(dp16
g7
I0
sg8
I123
sa(dp17
g7
I107
sg8
I17
sa(dp18
g7
I122
sg8
I1
sa(dp19
g7
I442
sg8
I122
sa(dp20
g7
I483
sg8
I122
sass."
EndChar

StartChar: tml_Ma
Encoding: 71 2990 70
GlifName: tml_M_a
Width: 601
VWidth: 0
GlyphClass: 2
Flags: W
HStem: 0 123 107 17 122 1 483 122
VStem: 1 122 205 122 465 123
AnchorPoint: "tml_virama" 411 0 basechar 0
LayerCount: 2
Back
Fore
SplineSet
418 0 m 256
 482 0 542 48 542 197 c 258
 542 434 l 258
 542 569 476 605 418 605 c 257
 418 565 l 257
 508 565 502 442 502 434 c 258
 502 196 l 258
 502 165 500 40 418 40 c 257
 418 0 l 256
246 39 m 256
 286 39 l 257
 286 434 l 258
 286 443 280 565 364 565 c 257
 364 605 l 257
 308 605 245 567 246 434 c 258
 246 39 l 256
40 24 m 257
 80 24 l 257
 80 595 l 257
 40 595 l 257
 40 24 l 257
40 0 m 257
 364 0 l 257
 364 40 l 257
 40 40 l 257
 40 0 l 257
EndSplineSet
PickledDataWithLists: "(dp1
S'com.fontlab.hintData'
p2
(dp3
S'vhints'
p4
(lp5
(dp6
S'position'
p7
I1
sS'width'
p8
I122
sa(dp9
g7
I205
sg8
I122
sa(dp10
g7
I465
sg8
I123
sasS'hhints'
p11
(lp12
(dp13
g7
I0
sg8
I123
sa(dp14
g7
I107
sg8
I17
sa(dp15
g7
I122
sg8
I1
sa(dp16
g7
I483
sg8
I122
sass."
EndChar

StartChar: tml_MatraAa
Encoding: 72 3006 71
GlifName: tml_M_atraA_a
Width: 490
VWidth: 0
GlyphClass: 2
Flags: W
HStem: 0 21<61 101 101 101 344 384 384 384> 473 122
VStem: 18 179 18 122
LayerCount: 2
Back
Fore
SplineSet
344 0 m 257
 384 0 l 257
 384 593 l 257
 344 593 l 257
 344 0 l 257
61 0 m 257
 101 0 l 257
 101 593 l 257
 61 592 l 257
 61 0 l 257
249 555 m 257
 468 555 l 257
 468 595 l 257
 249 595 l 257
 249 555 l 257
61 555 m 257
 196 555 l 257
 196 595 l 257
 61 595 l 257
 61 555 l 257
EndSplineSet
PickledDataWithLists: "(dp1
S'com.fontlab.hintData'
p2
(dp3
S'vhints'
p4
(lp5
(dp6
S'position'
p7
I18
sS'width'
p8
I179
sa(dp9
g7
I18
sg8
I122
sasS'hhints'
p10
(lp11
(dp12
g7
I0
sg8
I21
sa(dp13
g7
I473
sg8
I122
sass."
EndChar

StartChar: tml_MatraAi
Encoding: 73 3016 72
GlifName: tml_M_atraA_i
Width: 1043
VWidth: 0
GlyphClass: 2
Flags: W
LayerCount: 2
Back
Fore
SplineSet
423 158 m 257
 423 73 472 -10 568 -10 c 256
 568 30 l 257
 507 30 463 78 463 159 c 258
 463 290 l 258
 463 477 572 565 748 565 c 257
 748 605 l 257
 683 606 423 584 423 288 c 258
 423 158 l 257
389 565 m 257
 649 565 728 440 728 306 c 258
 728 158 l 258
 728 76 690 30 622 30 c 256
 622 -10 l 257
 722 -10 768 66 768 158 c 258
 768 301 l 258
 768 594 465 605 389 605 c 257
 389 565 l 257
40 157 m 257
 40 72 89 -11 186 -11 c 256
 186 29 l 257
 138 29 80 63 81 158 c 258
 80 290 l 258
 79 403 121 564 335 565 c 257
 335 605 l 257
 248 605 40 570 40 290 c 258
 40 157 l 257
257 408 m 257
 344 408 345 340 345 284 c 258
 345 157 l 258
 345 63 293 29 239 29 c 256
 239 -11 l 257
 334 -11 385 61 385 157 c 258
 385 284 l 258
 385 362 364 437 295 437 c 257
 276 437 254 421 257 408 c 257
802 556 m 257
 864 554 955 471 955 303 c 258
 955 162 l 258
 955 86 914 35 841 35 c 256
 841 -5 l 257
 941 -5 995 70 995 162 c 258
 995 303 l 258
 995 483 898 590 802 596 c 257
 802 556 l 257
EndSplineSet
EndChar

StartChar: tml_MatraE
Encoding: 75 3014 74
GlifName: tml_M_atraE_
Width: 633
VWidth: 0
GlyphClass: 2
Flags: W
LayerCount: 2
Back
Fore
SplineSet
283 0 m 257
 355 0 420 75 419 173 c 258
 419 196 l 258
 419 292 356 359 283 359 c 256
 283 319 l 257
 325 319 377 282 377 183 c 256
 377 88 327 40 283 40 c 257
 283 0 l 257
76 172 m 258
 76 88 140 0 228 0 c 256
 228 40 l 257
 178 40 115 91 115 181 c 256
 115 295 191 319 228 319 c 256
 228 359 l 257
 152 359 76 300 76 196 c 258
 76 172 l 258
350 637 m 257
 494 637 515 508 515 451 c 258
 515 -10 l 257
 555 -10 l 257
 555 451 l 258
 555 570 494 677 350 677 c 257
 350 637 l 257
76 194 m 257
 82 224 117 246 116 303 c 258
 116 451 l 258
 116 525 150 637 296 637 c 256
 296 637 l 256
 296 677 l 257
 296 677 l 256
 142 677 76 570 76 451 c 258
 76 248 l 257
 76 194 l 257
EndSplineSet
EndChar

StartChar: tml_MatraEe
Encoding: 76 3015 75
GlifName: tml_M_atraE_e
Width: 621
VWidth: 0
GlyphClass: 2
Flags: W
HStem: -42 121 194 123 346 122 582 123
VStem: 39 121 187 125 459 123
LayerCount: 2
Back
Fore
SplineSet
413 376 m 257
 485 376 550 451 549 549 c 258
 549 572 l 258
 549 668 486 735 413 735 c 256
 413 695 l 257
 455 695 507 658 507 559 c 256
 507 464 457 416 413 416 c 257
 413 376 l 257
206 548 m 258
 206 464 270 376 358 376 c 256
 358 416 l 257
 308 416 245 467 245 557 c 256
 245 671 321 695 358 695 c 256
 358 735 l 257
 282 735 206 676 206 572 c 258
 206 548 l 258
413 -12 m 257
 485 -12 550 63 549 161 c 258
 549 184 l 258
 549 280 486 347 413 347 c 256
 413 307 l 257
 455 307 507 270 507 171 c 256
 507 76 457 28 413 28 c 257
 413 -12 l 257
206 160 m 258
 206 76 270 -12 358 -12 c 256
 358 28 l 257
 308 28 245 79 245 169 c 256
 245 283 321 307 358 307 c 256
 358 347 l 257
 282 347 206 288 206 184 c 258
 206 160 l 258
81 225 m 257
 81 25 268 -12 351 -12 c 258
 356 -12 l 256
 356 28 l 257
 320 28 118 34 118 238 c 258
 118 492 l 258
 118 676 307 694 354 696 c 257
 354 735 l 256
 291 735 81 706 81 496 c 257
 81 225 l 257
EndSplineSet
PickledDataWithLists: "(dp1
S'com.fontlab.hintData'
p2
(dp3
S'vhints'
p4
(lp5
(dp6
S'position'
p7
I39
sS'width'
p8
I121
sa(dp9
g7
I187
sg8
I125
sa(dp10
g7
I459
sg8
I123
sasS'hhints'
p11
(lp12
(dp13
g7
I-42
sg8
I121
sa(dp14
g7
I194
sg8
I123
sa(dp15
g7
I346
sg8
I122
sa(dp16
g7
I582
sg8
I123
sass."
EndChar

StartChar: tml_MatraI
Encoding: 77 3007 76
GlifName: tml_M_atraI_
Width: 556
VWidth: 0
GlyphClass: 2
Flags: W
LayerCount: 2
Back
Fore
SplineSet
301 717 m 257
 367 717 435 690 435 579 c 258
 435 69 l 257
 475 69 l 257
 475 582 l 258
 475 683 421 757 301 757 c 257
 301 717 l 257
82 580 m 257
 122 580 l 256
 122 689 180 718 247 718 c 256
 247 718 l 256
 247 758 l 257
 247 758 l 256
 125 758 82 678 82 580 c 257
 82 580 l 257
EndSplineSet
EndChar

StartChar: tml_MatraIi
Encoding: 78 3008 77
GlifName: tml_M_atraI_i
Width: 102
VWidth: 0
GlyphClass: 2
Flags: W
LayerCount: 2
Back
Fore
SplineSet
32 414 m 257
 84 419 l 257
 -83 543 -94 828 75 839 c 257
 153 839 173 792 173 755 c 256
 173 717 147 678 105 678 c 256
 57 678 38 711 38 727 c 256
 12 696 l 257
 16 675 56 638 103 638 c 256
 169 638 213 700 213 756 c 256
 213 838 150 880 75 880 c 256
 -118 880 -143 557 32 414 c 257
EndSplineSet
EndChar

StartChar: tml_MatraU
Encoding: 81 3009 80
GlifName: tml_M_atraU_
Width: 529
VWidth: 0
GlyphClass: 2
Flags: W
LayerCount: 2
Back
Fore
SplineSet
39 615 m 257
 319 615 l 258
 416 615 448 584 448 529 c 256
 448 511 429 457 374 457 c 256
 315 457 298 510 298 530 c 256
 258 530 l 257
 258 480 300 417 369 417 c 258
 381 417 l 258
 436 417 488 471 488 530 c 258
 488 537 l 258
 488 604 438 655 323 655 c 258
 39 655 l 257
 39 615 l 257
EndSplineSet
EndChar

StartChar: tml_MatraUu
Encoding: 82 3010 81
GlifName: tml_M_atraU_u
Width: 700
VWidth: 0
GlyphClass: 2
Flags: W
LayerCount: 2
Back
Fore
SplineSet
45 615 m 257
 325 615 l 258
 422 615 454 584 454 529 c 256
 454 511 435 457 380 457 c 256
 321 457 304 510 304 530 c 256
 264 530 l 257
 264 480 306 417 375 417 c 258
 387 417 l 258
 442 417 494 471 494 530 c 258
 494 537 l 258
 494 604 444 655 329 655 c 258
 45 655 l 257
 45 615 l 257
261 652 m 256
 301 652 l 257
 301 754 346 812 453 812 c 256
 563 812 605 753 605 696 c 258
 605 372 l 258
 605 290 553 287 507 287 c 258
 448 287 l 256
 448 247 l 256
 507 247 l 258
 608 247 645 294 645 372 c 258
 645 696 l 258
 645 801 556 852 453 852 c 256
 338 852 261 794 261 652 c 256
EndSplineSet
EndChar

StartChar: tml_Month
Encoding: 83 3060 82
GlifName: tml_M_onth
Width: 1003
VWidth: 0
GlyphClass: 2
Flags: W
LayerCount: 2
Back
Fore
SplineSet
982 644 m 257
 982 684 l 256
 917 686 902 694 902 753 c 258
 902 874 l 258
 902 979 854 1071 708 1071 c 256
 576 1071 520 980 520 870 c 256
 560 870 l 257
 560 936 584 1031 708 1031 c 256
 845 1031 862 936 862 874 c 258
 862 756 l 258
 862 678 889 644 982 644 c 257
785 708 m 256
 785 800 718 844 628 844 c 258
 374 844 l 257
 374 804 l 257
 624 804 l 258
 731 804 745 744 745 707 c 256
 745 693 736 622 659 622 c 256
 585 622 571 682 571 708 c 256
 531 708 l 257
 531 622 596 582 655 582 c 256
 727 582 785 630 785 708 c 256
332 598 m 256
 272 663 228 768 349 804 c 256
 349 843 l 257
 140 816 245 572 325 572 c 256
 332 598 l 256
245 39 m 256
 285 39 l 257
 285 434 l 258
 285 443 279 565 363 565 c 257
 363 605 l 257
 307 605 244 567 245 434 c 258
 245 39 l 256
417 0 m 256
 481 0 541 48 541 197 c 258
 541 434 l 258
 541 569 475 605 417 605 c 257
 417 565 l 257
 507 565 501 442 501 434 c 258
 501 196 l 258
 501 165 499 40 417 40 c 257
 417 0 l 256
39 0 m 257
 363 0 l 257
 363 40 l 257
 39 40 l 257
 39 0 l 257
39 24 m 257
 79 24 l 257
 79 595 l 257
 39 595 l 257
 39 24 l 257
EndSplineSet
EndChar

StartChar: tml_NI
Encoding: 84 -1 83
GlifName: tml_N_I_
Width: 780
VWidth: 0
GlyphClass: 2
Flags: W
LayerCount: 2
Back
Fore
SplineSet
553 727 m 257
 690 727 700 653 700 591 c 258
 700 1 l 257
 740 1 l 257
 740 594 l 258
 740 697 696 767 553 767 c 257
 553 727 l 257
319 592 m 257
 358 592 l 256
 358 653 363 727 499 727 c 256
 499 727 l 256
 499 767 l 257
 499 767 l 256
 356 767 319 696 319 592 c 257
 319 592 l 257
EndSplineSet
Refer: 87 2984 N 1 0 0 1 -37 0 2
EndChar

StartChar: tml_NIi
Encoding: 85 -1 84
GlifName: tml_N_I_i
Width: 608
VWidth: 0
GlyphClass: 2
Flags: W
LayerCount: 2
Back
Fore
SplineSet
282 471 m 257
 321 471 l 257
 321 593 l 256
 246 751 347 859 429 859 c 257
 527 859 535 792 535 777 c 256
 535 718 486 702 463 702 c 256
 438 702 404 725 404 741 c 256
 378 710 l 257
 388 689 422 662 460 662 c 256
 623 662 613 899 439 899 c 256
 303 899 208 753 282 594 c 256
 282 471 l 257
EndSplineSet
Refer: 87 2984 N 1 0 0 1 -37 0 2
EndChar

StartChar: tml_NU
Encoding: 86 -1 85
GlifName: tml_N_U_
Width: 773
VWidth: 0
GlyphClass: 2
Flags: W
HStem: -256 94 -119 93 3 122 489 123 489 32
VStem: 217 122 377 122 600 122 756 139 772 122 948 122
LayerCount: 2
Back
Fore
SplineSet
79 -136 m 258
 79 -154 l 258
 79 -192 126 -234 189 -234 c 258
 302 -234 l 257
 302 -194 l 257
 196 -194 l 258
 95 -194 95 -97 183 -97 c 258
 728 -97 l 257
 728 582 l 256
 688 582 l 256
 688 -57 l 257
 183 -57 l 258
 123 -57 79 -92 79 -136 c 258
355 -234 m 257
 421 -234 l 258
 574 -234 594 -122 594 -56 c 258
 594 151 l 257
 554 151 l 257
 554 -56 l 258
 554 -161 500 -194 420 -194 c 258
 355 -194 l 257
 355 -234 l 257
100 1 m 257
 140 1 l 257
 140 590 l 257
 100 590 l 257
 100 1 l 257
345 1 m 257
 386 1 l 257
 385 588 l 257
 346 588 l 257
 345 1 l 257
100 595 m 257
 101 555 l 257
 529 555 l 257
 529 595 l 257
 100 595 l 257
441 334 m 257
 535 334 554 276 554 205 c 257
 594 205 l 257
 594 352 509 374 441 374 c 257
 441 334 l 257
EndSplineSet
PickledDataWithLists: "(dp1
S'com.fontlab.hintData'
p2
(dp3
S'vhints'
p4
(lp5
(dp6
S'position'
p7
I217
sS'width'
p8
I122
sa(dp9
g7
I377
sg8
I122
sa(dp10
g7
I600
sg8
I122
sa(dp11
g7
I756
sg8
I139
sa(dp12
g7
I772
sg8
I122
sa(dp13
g7
I948
sg8
I122
sasS'hhints'
p14
(lp15
(dp16
g7
I-256
sg8
I94
sa(dp17
g7
I-119
sg8
I93
sa(dp18
g7
I3
sg8
I122
sa(dp19
g7
I489
sg8
I123
sa(dp20
g7
I489
sg8
I32
sass."
EndChar

StartChar: tml_NUu
Encoding: 87 -1 86
GlifName: tml_N_U_u
Width: 1097
VWidth: 0
GlyphClass: 2
Flags: W
HStem: -256 94 -119 93 3 122 473 122 473 111 489 123 489 32
VStem: 263 122 423 122 646 122 802 139 818 122 994 179 994 122
LayerCount: 2
Back
Fore
SplineSet
649 555 m 257
 745 555 l 257
 745 595 l 257
 649 595 l 257
 649 555 l 257
933 -90 m 257
 973 -90 l 257
 973 593 l 257
 933 593 l 257
 933 -90 l 257
799 555 m 257
 1057 555 l 257
 1057 595 l 257
 799 595 l 257
 799 555 l 257
EndSplineSet
Refer: 85 -1 N 1 0 0 1 -42 0 2
PickledDataWithLists: "(dp1
S'com.fontlab.hintData'
p2
(dp3
S'vhints'
p4
(lp5
(dp6
S'position'
p7
I263
sS'width'
p8
I122
sa(dp9
g7
I423
sg8
I122
sa(dp10
g7
I646
sg8
I122
sa(dp11
g7
I802
sg8
I139
sa(dp12
g7
I818
sg8
I122
sa(dp13
g7
I994
sg8
I179
sa(dp14
g7
I994
sg8
I122
sasS'hhints'
p15
(lp16
(dp17
g7
I-256
sg8
I94
sa(dp18
g7
I-119
sg8
I93
sa(dp19
g7
I3
sg8
I122
sa(dp20
g7
I473
sg8
I122
sa(dp21
g7
I473
sg8
I111
sa(dp22
g7
I489
sg8
I123
sa(dp23
g7
I489
sg8
I32
sass."
EndChar

StartChar: tml_Na
Encoding: 88 2984 87
GlifName: tml_N_a
Width: 619
VWidth: 0
GlyphClass: 2
Flags: W
HStem: -157 122
VStem: 1 128 482 123
AnchorPoint: "tml_virama" 293 0 basechar 0
LayerCount: 2
Back
Fore
SplineSet
412 335 m 256
 469 335 527 328 526 206 c 258
 525 25 l 258
 525 -83 469 -117 391 -117 c 258
 137 -117 l 258
 88 -117 39 -121 39 -257 c 257
 79 -257 l 257
 79 -182 92 -157 120 -157 c 258
 392 -157 l 258
 545 -157 566 -41 566 25 c 258
 566 206 l 258
 566 353 488 375 412 375 c 257
 412 335 l 256
74 0 m 257
 114 0 l 257
 114 590 l 257
 74 590 l 257
 74 0 l 257
74 555 m 257
 201 555 l 257
 201 595 l 257
 74 595 l 257
 74 555 l 257
317 0 m 257
 358 0 l 257
 357 588 l 257
 318 588 l 257
 317 0 l 257
264 555 m 257
 501 555 l 257
 501 595 l 257
 264 595 l 257
 264 555 l 257
EndSplineSet
PickledDataWithLists: "(dp1
S'com.fontlab.hintData'
p2
(dp3
S'vhints'
p4
(lp5
(dp6
S'position'
p7
I1
sS'width'
p8
I128
sa(dp9
g7
I482
sg8
I123
sasS'hhints'
p10
(lp11
(dp12
g7
I-157
sg8
I122
sass."
EndChar

StartChar: tml_NgI
Encoding: 89 -1 88
GlifName: tml_N_gI_
Width: 1015
VWidth: 0
GlyphClass: 2
Flags: W
LayerCount: 2
Back
Fore
SplineSet
794 740 m 257
 904 740 906 656 906 595 c 258
 906 14 l 257
 947 14 l 257
 947 598 l 258
 947 693 924 780 794 780 c 257
 794 740 l 257
710 0 m 257
 750 0 l 257
 750 595 l 257
 711 595 l 257
 636 595 636 740 744 740 c 256
 744 779 l 257
 584 779 583 560 711 560 c 257
 710 0 l 257
EndSplineSet
Refer: 92 2969 N 1 0 0 1 -41 0 2
EndChar

StartChar: tml_NgIi
Encoding: 90 -1 89
GlifName: tml_N_gI_i
Width: 1019
VWidth: 0
GlyphClass: 2
Flags: W
LayerCount: 2
Back
Fore
SplineSet
827 896 m 257
 884 896 939 858 939 808 c 256
 939 749 901 729 871 729 c 256
 835 729 809 756 809 772 c 256
 781 739 l 257
 793 716 827 689 872 689 c 256
 1019 689 1027 936 826 936 c 257
 628 936 547 674 740 566 c 257
 774 595 l 257
 620 657 643 896 827 896 c 257
EndSplineSet
Refer: 92 2969 N 1 0 0 1 -41 0 2
EndChar

StartChar: tml_NgU
Encoding: 91 -1 90
GlifName: tml_N_gU_
Width: 782
VWidth: 0
GlyphClass: 2
Flags: W
LayerCount: 2
Back
Fore
SplineSet
683 -257 m 257
 723 -257 l 257
 723 595 l 257
 683 595 l 257
 683 -257 l 257
255 0 m 257
 685 0 l 257
 685 40 l 257
 255 40 l 257
 255 0 l 257
212 0 m 257
 393 0 l 258
 487 0 548 44 548 112 c 258
 548 230 l 258
 548 321 464 354 394 354 c 257
 394 314 l 256
 429 313 508 303 508 230 c 258
 508 125 l 258
 508 51 452 40 394 40 c 258
 212 40 l 257
 212 0 l 257
300 176 m 257
 340 176 l 257
 340 589 l 257
 300 589 l 257
 300 176 l 257
56 0 m 257
 97 0 l 257
 97 591 l 257
 56 591 l 257
 56 0 l 257
56 595 m 257
 57 555 l 257
 449 555 l 257
 449 595 l 257
 56 595 l 257
EndSplineSet
EndChar

StartChar: tml_NgUu
Encoding: 92 -1 91
GlifName: tml_N_gU_u
Width: 935
VWidth: 0
GlyphClass: 2
Flags: W
HStem: -258 93 -106 93 0 122
VStem: -17 88 143 88 493 123 669 122 788 3 854 89
LayerCount: 2
Back
Fore
SplineSet
129 -233 m 258
 396 -233 l 257
 396 -193 l 257
 149 -193 l 258
 134 -193 80 -185 80 -139 c 256
 80 -92 113 -80 137 -80 c 257
 160 -80 200 -90 200 -143 c 256
 241 -143 l 256
 241 -135 l 258
 241 -85 201 -40 137 -40 c 257
 78 -40 40 -85 40 -137 c 258
 40 -149 l 258
 40 -205 103 -233 129 -233 c 258
450 -193 m 256
 450 -233 l 257
 842 -233 l 258
 878 -233 895 -221 895 -178 c 258
 895 -92 l 258
 895 -69 885 -44 842 -44 c 258
 740 -44 l 257
 740 -84 l 256
 855 -84 l 256
 855 -193 l 256
 450 -193 l 256
712 -153 m 257
 752 -153 l 257
 752 595 l 257
 712 595 l 257
 712 -153 l 257
284 0 m 257
 714 0 l 257
 714 40 l 257
 284 40 l 257
 284 0 l 257
241 0 m 257
 422 0 l 258
 516 0 577 44 577 112 c 258
 577 230 l 258
 577 321 493 354 423 354 c 257
 423 314 l 256
 458 313 537 303 537 230 c 258
 537 125 l 258
 537 51 481 40 423 40 c 258
 241 40 l 257
 241 0 l 257
329 176 m 257
 369 176 l 257
 369 589 l 257
 329 589 l 257
 329 176 l 257
85 0 m 257
 126 0 l 257
 126 591 l 257
 85 591 l 257
 85 0 l 257
85 595 m 257
 86 555 l 257
 478 555 l 257
 478 595 l 257
 85 595 l 257
EndSplineSet
PickledDataWithLists: "(dp1
S'com.fontlab.hintData'
p2
(dp3
S'vhints'
p4
(lp5
(dp6
S'position'
p7
I-17
sS'width'
p8
I88
sa(dp9
g7
I143
sg8
I88
sa(dp10
g7
I493
sg8
I123
sa(dp11
g7
I669
sg8
I122
sa(dp12
g7
I788
sg8
I3
sa(dp13
g7
I854
sg8
I89
sasS'hhints'
p14
(lp15
(dp16
g7
I-258
sg8
I93
sa(dp17
g7
I-106
sg8
I93
sa(dp18
g7
I0
sg8
I122
sass."
EndChar

StartChar: tml_Nga
Encoding: 93 2969 92
GlifName: tml_N_ga
Width: 841
VWidth: 0
GlyphClass: 2
Flags: W
HStem: 0 122
VStem: 479 123 710 122
AnchorPoint: "tml_virama" 301 0 basechar 0
LayerCount: 2
Back
Fore
SplineSet
751 0 m 257
 791 0 l 257
 791 595 l 257
 751 595 l 257
 751 0 l 257
309 0 m 257
 698 0 l 257
 698 40 l 257
 309 40 l 257
 309 0 l 257
251 0 m 257
 419 0 l 258
 483 0 561 33 561 118 c 258
 561 229 l 258
 561 322 478 354 392 354 c 257
 392 314 l 256
 442 314 521 304 521 224 c 258
 521 123 l 258
 521 70 483 40 419 40 c 256
 365 40 278 40 251 40 c 257
 251 0 l 257
298 80 m 257
 338 80 l 257
 338 589 l 257
 298 589 l 257
 298 80 l 257
57 0 m 257
 97 0 l 257
 97 591 l 257
 57 591 l 257
 57 0 l 257
57 595 m 257
 58 555 l 257
 447 555 l 257
 447 595 l 257
 57 595 l 257
EndSplineSet
PickledDataWithLists: "(dp1
S'com.fontlab.hintData'
p2
(dp3
S'vhints'
p4
(lp5
(dp6
S'position'
p7
I479
sS'width'
p8
I123
sa(dp9
g7
I710
sg8
I122
sasS'hhints'
p10
(lp11
(dp12
g7
I0
sg8
I122
sass."
EndChar

StartChar: tml_Nine
Encoding: 94 3055 93
GlifName: tml_N_ine
Width: 945
VWidth: 0
GlyphClass: 2
Flags: W
LayerCount: 2
Back
Fore
SplineSet
512 331 m 257
 685 331 l 258
 741 331 855 339 855 204 c 256
 855 108 766 90 743 90 c 256
 712 90 623 107 623 205 c 256
 583 205 l 257
 583 120 647 50 737 50 c 258
 751 50 l 258
 806 50 895 100 895 200 c 258
 895 215 l 258
 895 336 799 371 688 371 c 258
 512 371 l 257
 512 331 l 257
40 172 m 258
 40 128 57 0 230 -1 c 257
 230 39 l 257
 168 39 80 58 80 188 c 256
 80 313 184 331 239 331 c 258
 565 331 l 257
 565 371 l 257
 246 371 l 258
 72 371 40 259 40 196 c 258
 40 172 l 258
283 -1 m 257
 420 -1 463 95 463 191 c 258
 463 588 l 257
 423 588 l 257
 423 187 l 258
 423 98 378 39 283 39 c 257
 283 -1 l 257
165 348 m 257
 205 348 l 257
 206 586 l 257
 165 586 l 257
 165 348 l 257
165 555 m 257
 288 555 l 257
 288 595 l 257
 165 595 l 257
 165 555 l 257
342 555 m 257
 610 555 l 257
 610 595 l 257
 342 595 l 257
 342 555 l 257
EndSplineSet
EndChar

StartChar: tml_NnAa.alt
Encoding: 95 -1 94
GlifName: tml_N_nA_a.alt
Width: 1407
VWidth: 0
GlyphClass: 2
Flags: W
LayerCount: 2
Back
Fore
SplineSet
40 41 m 258
 40 -93 134 -165 234 -165 c 258
 718 -165 l 257
 718 -125 l 257
 250 -125 l 258
 163 -125 80 -82 80 41 c 258
 80 519 l 258
 80 566 100 692 240 692 c 257
 292 692 l 257
 326 732 l 257
 239 732 l 257
 154 732 40 682 40 519 c 258
 40 41 l 258
773 -125 m 257
 773 -165 l 257
 1220 -165 l 258
 1316 -165 1363 -104 1363 -30 c 258
 1363 123 l 258
 1363 221 1275 225 1213 231 c 257
 1213 187 l 257
 1235 187 1322 195 1322 119 c 258
 1322 -29 l 258
 1322 -83 1288 -125 1219 -125 c 258
 773 -125 l 257
181 167 m 257
 181 82 215 -1 284 -1 c 256
 284 39 l 257
 255 39 221 73 222 168 c 258
 221 281 l 258
 220 394 255 556 434 557 c 257
 434 597 l 257
 359 597 181 560 181 281 c 258
 181 167 l 257
314 391 m 257
 401 391 403 339 403 283 c 258
 403 167 l 258
 403 73 372 39 340 39 c 256
 340 -1 l 257
 407 -1 443 71 443 167 c 258
 443 283 l 258
 443 361 422 420 353 420 c 257
 334 420 311 404 314 391 c 257
525 168 m 257
 525 83 560 0 630 0 c 256
 630 40 l 257
 592 40 565 88 565 169 c 258
 565 281 l 258
 565 468 665 556 816 556 c 257
 816 596 l 257
 759 597 525 575 525 279 c 258
 525 168 l 257
488 557 m 257
 687 557 748 431 748 297 c 258
 748 168 l 258
 748 86 724 40 683 40 c 256
 683 0 l 257
 754 0 788 76 788 168 c 258
 788 292 l 258
 788 585 548 597 488 597 c 257
 488 557 l 257
869 168 m 257
 869 83 905 1 973 1 c 256
 973 41 l 257
 940 41 909 83 909 169 c 258
 909 280 l 258
 909 470 1016 557 1160 557 c 257
 1160 597 l 257
 1107 598 869 578 869 278 c 258
 869 168 l 257
870 556 m 257
 1062 555 1092 406 1092 296 c 258
 1092 168 l 258
 1092 89 1064 41 1027 41 c 256
 1027 1 l 257
 1093 1 1132 76 1132 168 c 258
 1132 291 l 258
 1132 584 928 596 870 596 c 257
 870 556 l 257
1213 192 m 257
 1349 192 1363 262 1363 323 c 258
 1363 462 l 258
 1363 546 1328 593 1215 593 c 257
 1215 553 l 257
 1317 553 1322 508 1322 454 c 258
 1322 303 l 258
 1322 256 1284 232 1213 232 c 257
 1213 192 l 257
EndSplineSet
EndChar

StartChar: tml_NnAi
Encoding: 96 -1 95
GlifName: tml_N_nA_i
Width: 1565
VWidth: 0
GlyphClass: 2
Flags: W
LayerCount: 2
Back
Fore
SplineSet
390 29 m 257
 373 80 l 257
 249 -38 36 57 131 206 c 258
 348 546 l 257
 431 681 383 844 181 844 c 256
 1 844 -6 600 158 600 c 256
 203 600 232 620 248 647 c 257
 218 680 l 256
 214 665 197 640 157 640 c 256
 111 640 85 674 85 719 c 256
 85 734 98 804 191 804 c 257
 322 804 407 689 293 535 c 256
 106 250 l 258
 -31 41 193 -90 390 29 c 257
346 158 m 257
 346 73 380 -10 449 -10 c 256
 449 30 l 257
 420 30 386 64 387 159 c 258
 386 292 l 258
 385 405 420 567 599 568 c 257
 599 608 l 257
 524 608 346 572 346 292 c 258
 346 158 l 257
479 402 m 257
 566 402 568 350 568 294 c 258
 568 158 l 258
 568 64 537 30 505 30 c 256
 505 -10 l 257
 572 -10 608 62 608 158 c 258
 608 294 l 258
 608 372 587 431 518 431 c 257
 499 431 476 415 479 402 c 257
653 568 m 257
 852 568 913 442 913 308 c 258
 913 159 l 258
 913 77 889 31 848 31 c 256
 848 -9 l 257
 919 -9 953 67 953 159 c 258
 953 303 l 258
 953 596 713 608 653 608 c 257
 653 568 l 257
690 159 m 257
 690 74 725 -9 795 -9 c 256
 795 31 l 257
 757 31 730 79 730 160 c 258
 730 292 l 258
 730 479 830 567 981 567 c 257
 981 607 l 257
 924 608 690 586 690 290 c 258
 690 159 l 257
1034 159 m 257
 1034 74 1070 -8 1138 -8 c 256
 1138 32 l 257
 1105 32 1074 74 1074 160 c 258
 1074 291 l 258
 1074 481 1180 568 1325 568 c 257
 1325 608 l 257
 1271 609 1034 589 1034 289 c 258
 1034 159 l 257
1035 567 m 257
 1227 566 1257 417 1257 307 c 258
 1257 159 l 258
 1257 80 1228 32 1192 32 c 256
 1192 -8 l 257
 1258 -8 1297 67 1297 159 c 258
 1297 302 l 258
 1297 595 1093 607 1035 607 c 257
 1035 567 l 257
1389 3 m 257
 1429 3 l 257
 1429 577 l 257
 1389 577 l 257
 1389 3 l 257
1380 568 m 257
 1526 568 l 257
 1526 608 l 257
 1380 608 l 257
 1380 568 l 257
EndSplineSet
EndChar

StartChar: tml_NnI
Encoding: 97 -1 96
GlifName: tml_N_nI_
Width: 1438
VWidth: 0
GlyphClass: 2
Flags: W
LayerCount: 2
Back
Fore
SplineSet
1029 566 m 257
 1220 566 l 257
 1220 606 l 257
 1029 606 l 257
 975 607 728 587 728 287 c 258
 728 157 l 257
 728 72 764 -10 832 -10 c 256
 832 30 l 257
 799 30 768 72 768 158 c 258
 768 289 l 258
 768 479 884 566 1029 566 c 257
40 156 m 257
 40 71 74 -12 143 -12 c 256
 143 28 l 257
 114 28 80 62 81 157 c 258
 80 290 l 258
 79 403 114 565 293 566 c 257
 293 606 l 257
 218 606 40 570 40 290 c 258
 40 156 l 257
173 400 m 257
 260 400 262 348 262 292 c 258
 262 156 l 258
 262 62 231 28 199 28 c 256
 199 -12 l 257
 266 -12 302 60 302 156 c 258
 302 292 l 258
 302 370 281 429 212 429 c 257
 193 429 170 413 173 400 c 257
384 157 m 257
 384 72 419 -11 489 -11 c 256
 489 29 l 257
 451 29 424 77 424 158 c 258
 424 290 l 258
 424 477 524 565 675 565 c 257
 675 605 l 257
 618 606 384 584 384 288 c 258
 384 157 l 257
347 566 m 257
 546 566 607 440 607 306 c 258
 607 157 l 258
 607 75 583 29 542 29 c 256
 542 -11 l 257
 613 -11 647 65 647 157 c 258
 647 301 l 258
 647 594 407 606 347 606 c 257
 347 566 l 257
729 565 m 257
 921 564 951 415 951 305 c 258
 951 157 l 258
 951 78 923 30 886 30 c 256
 886 -10 l 257
 952 -10 991 65 991 157 c 258
 991 300 l 258
 991 593 787 605 729 605 c 257
 729 565 l 257
1083 599 m 257
 1123 599 l 256
 1123 660 1134 727 1214 727 c 256
 1214 727 l 256
 1214 767 l 257
 1214 767 l 256
 1120 767 1083 703 1083 599 c 257
 1083 599 l 257
1268 727 m 257
 1354 727 1358 660 1358 598 c 258
 1358 2 l 257
 1398 2 l 257
 1398 601 l 258
 1398 703 1365 767 1268 767 c 257
 1268 727 l 257
1083 1 m 257
 1123 1 l 257
 1123 575 l 257
 1083 575 l 257
 1083 1 l 257
EndSplineSet
EndChar

StartChar: tml_NnIi
Encoding: 98 -1 97
GlifName: tml_N_nI_i
Width: 1400
VWidth: 0
GlyphClass: 2
Flags: W
LayerCount: 2
Back
Fore
SplineSet
1083 578 m 257
 1123 578 l 257
 1123 601 l 256
 1048 759 1148 867 1230 867 c 257
 1328 867 1336 800 1336 785 c 256
 1336 726 1287 710 1264 710 c 256
 1239 710 1205 733 1205 749 c 256
 1179 718 l 257
 1189 697 1223 670 1261 670 c 256
 1424 670 1414 907 1240 907 c 256
 1104 907 1009 761 1083 602 c 256
 1083 578 l 257
1029 566 m 257
 1220 566 l 257
 1220 606 l 257
 1029 606 l 257
 975 607 728 587 728 287 c 258
 728 157 l 257
 728 72 764 -10 832 -10 c 256
 832 30 l 257
 799 30 768 72 768 158 c 258
 768 289 l 258
 768 479 884 566 1029 566 c 257
40 156 m 257
 40 71 74 -12 143 -12 c 256
 143 28 l 257
 114 28 80 62 81 157 c 258
 80 290 l 258
 79 403 114 565 293 566 c 257
 293 606 l 257
 218 606 40 570 40 290 c 258
 40 156 l 257
173 400 m 257
 260 400 262 348 262 292 c 258
 262 156 l 258
 262 62 231 28 199 28 c 256
 199 -12 l 257
 266 -12 302 60 302 156 c 258
 302 292 l 258
 302 370 281 429 212 429 c 257
 193 429 170 413 173 400 c 257
384 157 m 257
 384 72 419 -11 489 -11 c 256
 489 29 l 257
 451 29 424 77 424 158 c 258
 424 290 l 258
 424 477 524 565 675 565 c 257
 675 605 l 257
 618 606 384 584 384 288 c 258
 384 157 l 257
347 566 m 257
 546 566 607 440 607 306 c 258
 607 157 l 258
 607 75 583 29 542 29 c 256
 542 -11 l 257
 613 -11 647 65 647 157 c 258
 647 301 l 258
 647 594 407 606 347 606 c 257
 347 566 l 257
729 565 m 257
 921 564 951 415 951 305 c 258
 951 157 l 258
 951 78 923 30 886 30 c 256
 886 -10 l 257
 952 -10 991 65 991 157 c 258
 991 300 l 258
 991 593 787 605 729 605 c 257
 729 565 l 257
1083 1 m 257
 1123 1 l 257
 1123 575 l 257
 1083 575 l 257
 1083 1 l 257
EndSplineSet
EndChar

StartChar: tml_NnU
Encoding: 99 -1 98
GlifName: tml_N_nU_
Width: 1230
VWidth: 0
GlyphClass: 2
Flags: W
HStem: -256 94 -119 93 0 122 470 52 472 122
VStem: -97 122 126 122 286 122 509 122 671 122 893 122 1056 133 1067 122 1243 122
LayerCount: 2
Back
Fore
SplineSet
79 -134 m 258
 79 -152 l 258
 79 -190 126 -232 189 -232 c 258
 515 -232 l 257
 515 -192 l 257
 192 -192 l 258
 91 -192 97 -95 183 -95 c 258
 1170 -95 l 257
 1170 584 l 256
 1130 584 l 256
 1130 -55 l 257
 183 -55 l 258
 123 -55 79 -90 79 -134 c 258
569 -232 m 257
 892 -232 l 258
 1045 -232 1065 -120 1065 -54 c 258
 1065 393 l 258
 1065 469 1037 549 949 581 c 257
 949 541 l 257
 1019 505 1025 423 1025 392 c 258
 1025 -54 l 258
 1025 -159 967 -192 891 -192 c 258
 569 -192 l 257
 569 -232 l 257
64 167 m 257
 64 82 98 -1 168 -1 c 256
 168 39 l 257
 139 39 104 73 105 168 c 258
 104 290 l 258
 103 403 138 554 318 555 c 257
 318 595 l 257
 243 595 64 570 64 290 c 258
 64 167 l 257
198 406 m 257
 285 406 287 348 287 292 c 258
 287 167 l 258
 287 73 255 39 222 39 c 256
 222 -1 l 257
 290 -1 327 71 327 167 c 258
 327 292 l 258
 327 370 306 435 237 435 c 257
 218 435 195 419 198 406 c 257
367 168 m 257
 367 83 402 0 471 0 c 256
 471 40 l 257
 434 40 407 88 407 169 c 258
 407 290 l 258
 407 477 491 555 618 555 c 257
 618 595 l 257
 569 596 367 584 367 288 c 258
 367 168 l 257
372 555 m 257
 539 555 590 440 590 306 c 258
 590 168 l 258
 590 86 566 40 524 40 c 256
 524 0 l 257
 596 0 630 76 630 168 c 258
 630 301 l 258
 630 594 424 595 372 595 c 257
 372 555 l 257
781 0 m 256
 781 40 l 257
 743 40 715 81 715 149 c 258
 715 314 l 258
 715 494 838 564 896 553 c 257
 896 593 l 257
 855 595 675 559 675 312 c 258
 675 148 l 257
 675 73 711 0 781 0 c 256
672 555 m 257
 863 554 893 415 893 305 c 258
 893 168 l 258
 893 89 864 41 827 41 c 256
 827 1 l 257
 894 1 933 76 933 168 c 258
 933 300 l 258
 933 593 730 595 672 595 c 257
 672 555 l 257
EndSplineSet
PickledDataWithLists: "(dp1
S'com.fontlab.hintData'
p2
(dp3
S'vhints'
p4
(lp5
(dp6
S'position'
p7
I-97
sS'width'
p8
I122
sa(dp9
g7
I126
sg8
I122
sa(dp10
g7
I286
sg8
I122
sa(dp11
g7
I509
sg8
I122
sa(dp12
g7
I671
sg8
I122
sa(dp13
g7
I893
sg8
I122
sa(dp14
g7
I1056
sg8
I133
sa(dp15
g7
I1067
sg8
I122
sa(dp16
g7
I1243
sg8
I122
sasS'hhints'
p17
(lp18
(dp19
g7
I-256
sg8
I94
sa(dp20
g7
I-119
sg8
I93
sa(dp21
g7
I0
sg8
I122
sa(dp22
g7
I470
sg8
I52
sa(dp23
g7
I472
sg8
I122
sass."
EndChar

StartChar: tml_NnUu
Encoding: 100 -1 99
GlifName: tml_N_nU_u
Width: 1556
VWidth: 0
GlyphClass: 2
Flags: W
LayerCount: 2
Back
Fore
SplineSet
1116 555 m 257
 1212 555 l 257
 1212 595 l 257
 1116 595 l 257
 1116 555 l 257
1398 -90 m 257
 1438 -90 l 257
 1440 593 l 257
 1400 593 l 257
 1398 -90 l 257
1266 555 m 257
 1524 555 l 257
 1524 595 l 257
 1266 595 l 257
 1266 555 l 257
EndSplineSet
Refer: 98 -1 N 1 0 0 1 -14 0 2
EndChar

StartChar: tml_Nna
Encoding: 101 2979 100
GlifName: tml_N_na
Width: 1260
VWidth: 0
GlyphClass: 2
Flags: W
AnchorPoint: "tml_virama" 781 0 basechar 0
LayerCount: 2
Back
Fore
SplineSet
40 156 m 257
 40 71 74 -12 143 -12 c 256
 143 28 l 257
 114 28 80 62 81 157 c 258
 80 290 l 258
 79 403 114 565 293 566 c 257
 293 606 l 257
 218 606 40 570 40 290 c 258
 40 156 l 257
173 400 m 257
 260 400 262 348 262 292 c 258
 262 156 l 258
 262 62 231 28 199 28 c 256
 199 -12 l 257
 266 -12 302 60 302 156 c 258
 302 292 l 258
 302 370 281 429 212 429 c 257
 193 429 170 413 173 400 c 257
384 157 m 257
 384 72 419 -11 489 -11 c 256
 489 29 l 257
 451 29 424 77 424 158 c 258
 424 290 l 258
 424 477 524 565 675 565 c 257
 675 605 l 257
 618 606 384 584 384 288 c 258
 384 157 l 257
347 566 m 257
 546 566 607 440 607 306 c 258
 607 157 l 258
 607 75 583 29 542 29 c 256
 542 -11 l 257
 613 -11 647 65 647 157 c 258
 647 301 l 258
 647 594 407 606 347 606 c 257
 347 566 l 257
729 565 m 257
 921 564 951 415 951 305 c 258
 951 157 l 258
 951 78 923 30 886 30 c 256
 886 -10 l 257
 952 -10 991 65 991 157 c 258
 991 300 l 258
 991 593 787 605 729 605 c 257
 729 565 l 257
728 157 m 257
 728 72 764 -10 832 -10 c 256
 832 30 l 257
 799 30 768 72 768 158 c 258
 768 289 l 258
 768 479 875 566 1019 566 c 257
 1019 606 l 257
 966 607 728 587 728 287 c 258
 728 157 l 257
1083 1 m 257
 1123 1 l 257
 1123 575 l 257
 1083 575 l 257
 1083 1 l 257
1074 566 m 257
 1220 566 l 257
 1220 606 l 257
 1074 606 l 257
 1074 566 l 257
EndSplineSet
EndChar

StartChar: tml_NnnAa.alt
Encoding: 102 -1 101
GlifName: tml_N_nnA_a.alt
Width: 1083
VWidth: 0
GlyphClass: 2
Flags: W
LayerCount: 2
Back
Fore
SplineSet
40 40 m 258
 40 -94 134 -166 234 -166 c 258
 592 -166 l 257
 592 -126 l 257
 250 -126 l 258
 163 -126 80 -83 80 40 c 258
 80 519 l 258
 80 566 100 692 240 692 c 257
 292 692 l 257
 326 732 l 257
 239 732 l 257
 154 732 40 682 40 519 c 258
 40 40 l 258
661 -126 m 257
 661 -166 l 257
 900 -166 l 258
 996 -166 1043 -105 1043 -31 c 258
 1043 136 l 258
 1043 234 955 238 893 244 c 257
 893 200 l 257
 915 200 1002 208 1002 132 c 258
 1002 -30 l 258
 1002 -84 968 -126 899 -126 c 258
 661 -126 l 257
214 155 m 257
 214 70 250 -13 321 -13 c 256
 321 27 l 257
 291 27 255 61 255 156 c 258
 254 301 l 258
 253 414 289 565 470 566 c 257
 470 606 l 257
 395 606 214 581 214 301 c 258
 214 155 l 257
351 409 m 257
 438 409 441 357 441 301 c 258
 441 155 l 258
 441 61 408 27 374 27 c 256
 374 -13 l 257
 444 -13 481 59 481 155 c 258
 481 301 l 258
 481 379 459 438 390 438 c 257
 371 438 348 422 351 409 c 257
524 566 m 257
 721 565 781 451 781 317 c 258
 781 156 l 258
 781 74 759 28 717 28 c 256
 717 -12 l 257
 789 -12 821 64 821 156 c 258
 821 312 l 258
 821 605 584 606 524 606 c 257
 524 566 l 257
558 156 m 257
 558 71 594 -12 663 -12 c 256
 663 28 l 257
 626 28 598 76 598 157 c 258
 598 301 l 258
 598 488 709 566 841 566 c 257
 841 606 l 257
 798 607 558 595 558 299 c 258
 558 156 l 257
893 205 m 257
 1029 205 1043 275 1043 336 c 258
 1043 475 l 258
 1043 559 1008 606 895 606 c 257
 895 566 l 257
 997 566 1002 521 1002 467 c 258
 1002 316 l 258
 1002 269 964 245 893 245 c 257
 893 205 l 257
EndSplineSet
EndChar

StartChar: tml_NnnAi
Encoding: 103 -1 102
GlifName: tml_N_nnA_i
Width: 1565
VWidth: 0
GlyphClass: 2
Flags: W
LayerCount: 2
Back
Fore
SplineSet
390 29 m 257
 373 80 l 257
 249 -38 36 57 131 206 c 258
 348 546 l 257
 431 681 383 844 181 844 c 256
 1 844 -6 600 158 600 c 256
 203 600 232 620 248 647 c 257
 218 680 l 256
 214 665 197 640 157 640 c 256
 111 640 85 674 85 719 c 256
 85 734 98 804 191 804 c 257
 322 804 407 689 293 535 c 256
 106 250 l 258
 -31 41 193 -90 390 29 c 257
343 154 m 257
 343 69 379 -14 450 -14 c 256
 450 26 l 257
 419 26 383 60 384 155 c 258
 383 300 l 258
 382 413 417 564 599 565 c 257
 599 605 l 257
 523 605 343 580 343 300 c 258
 343 154 l 257
480 408 m 257
 567 408 570 356 570 300 c 258
 570 154 l 258
 570 60 537 26 503 26 c 256
 503 -14 l 257
 572 -14 610 58 610 154 c 258
 610 300 l 258
 610 378 588 437 519 437 c 257
 500 437 477 421 480 408 c 257
653 565 m 257
 850 564 910 450 910 316 c 258
 910 155 l 258
 910 73 887 27 846 27 c 256
 846 -13 l 257
 917 -13 950 63 950 155 c 258
 950 311 l 258
 950 604 712 605 653 605 c 257
 653 565 l 257
687 155 m 257
 687 70 723 -13 792 -13 c 256
 792 27 l 257
 754 27 727 75 727 156 c 258
 727 300 l 258
 727 487 837 565 970 565 c 257
 970 605 l 257
 926 606 687 594 687 298 c 258
 687 155 l 257
1041 0 m 257
 1081 0 l 257
 1081 573 l 257
 1041 573 l 257
 1041 0 l 257
1023 566 m 257
 1177 565 l 257
 1177 605 l 257
 1023 605 l 257
 1023 566 l 257
EndSplineSet
EndChar

StartChar: tml_NnnI
Encoding: 104 -1 103
GlifName: tml_N_nnI_
Width: 1094
VWidth: 0
GlyphClass: 2
Flags: W
LayerCount: 2
Back
Fore
SplineSet
924 723 m 257
 1010 723 1014 656 1014 594 c 258
 1014 1 l 257
 1054 1 l 257
 1054 597 l 258
 1054 699 1021 763 924 763 c 257
 924 723 l 257
739 595 m 257
 779 595 l 256
 779 656 790 723 870 723 c 256
 870 723 l 256
 870 763 l 257
 870 763 l 256
 776 763 739 699 739 595 c 257
 739 595 l 257
EndSplineSet
Refer: 107 2985 N 1 0 0 1 0 0 2
EndChar

StartChar: tml_NnnIi
Encoding: 105 -1 104
GlifName: tml_N_nnI_i
Width: 1058
VWidth: 0
GlyphClass: 2
Flags: W
LayerCount: 2
Back
Fore
SplineSet
738 470 m 257
 778 470 l 257
 778 592 l 256
 703 750 803 858 885 858 c 257
 983 858 991 791 991 776 c 256
 991 717 942 701 919 701 c 256
 894 701 860 724 860 740 c 256
 834 709 l 257
 844 688 878 661 916 661 c 256
 1079 661 1069 898 895 898 c 256
 759 898 664 752 738 593 c 256
 738 470 l 257
EndSplineSet
Refer: 107 2985 N 1 0 0 1 0 0 2
EndChar

StartChar: tml_NnnU
Encoding: 106 -1 105
GlifName: tml_N_nnU_
Width: 1065
VWidth: 0
GlyphClass: 2
Flags: W
HStem: -256 94 -119 93 0 122 470 52 472 122
VStem: -97 122 126 122 286 122 509 122 671 122 893 122 1056 133 1067 122 1243 122
LayerCount: 2
Back
Fore
SplineSet
58 -134 m 258
 58 -152 l 258
 58 -190 105 -232 168 -232 c 258
 430 -232 l 257
 430 -192 l 257
 171 -192 l 258
 70 -192 76 -95 162 -95 c 258
 1006 -95 l 257
 1006 584 l 256
 966 584 l 256
 966 -55 l 257
 162 -55 l 258
 102 -55 58 -90 58 -134 c 258
484 -232 m 257
 699 -232 l 258
 852 -232 872 -120 872 -54 c 258
 872 403 l 258
 872 479 844 559 756 591 c 257
 756 551 l 257
 826 515 832 433 832 402 c 258
 832 -54 l 258
 832 -159 774 -192 698 -192 c 258
 484 -192 l 257
 484 -232 l 257
58 147 m 257
 58 72 93 -1 164 -1 c 256
 164 39 l 257
 134 39 98 68 99 148 c 258
 98 400 l 258
 98 468 135 564 327 565 c 257
 327 605 l 257
 248 605 58 582 58 400 c 258
 58 147 l 257
196 416 m 257
 283 416 284 348 284 292 c 258
 284 147 l 258
 284 68 252 39 218 39 c 256
 218 -1 l 257
 287 -1 324 62 324 147 c 258
 324 292 l 258
 324 370 303 445 234 445 c 257
 215 445 193 429 196 416 c 257
524 0 m 256
 524 40 l 257
 486 40 458 81 458 149 c 258
 458 385 l 258
 458 514 596 571 703 563 c 257
 703 603 l 257
 650 613 418 576 418 383 c 258
 418 148 l 257
 418 73 454 0 524 0 c 256
381 565 m 257
 586 565 648 471 648 389 c 258
 648 168 l 258
 648 79 618 40 577 40 c 256
 577 0 l 257
 653 0 688 76 688 168 c 258
 688 384 l 258
 688 597 443 605 381 605 c 257
 381 565 l 257
EndSplineSet
PickledDataWithLists: "(dp1
S'com.fontlab.hintData'
p2
(dp3
S'vhints'
p4
(lp5
(dp6
S'position'
p7
I-97
sS'width'
p8
I122
sa(dp9
g7
I126
sg8
I122
sa(dp10
g7
I286
sg8
I122
sa(dp11
g7
I509
sg8
I122
sa(dp12
g7
I671
sg8
I122
sa(dp13
g7
I893
sg8
I122
sa(dp14
g7
I1056
sg8
I133
sa(dp15
g7
I1067
sg8
I122
sa(dp16
g7
I1243
sg8
I122
sasS'hhints'
p17
(lp18
(dp19
g7
I-256
sg8
I94
sa(dp20
g7
I-119
sg8
I93
sa(dp21
g7
I0
sg8
I122
sa(dp22
g7
I470
sg8
I52
sa(dp23
g7
I472
sg8
I122
sass."
EndChar

StartChar: tml_NnnUu
Encoding: 107 -1 106
GlifName: tml_N_nnU_u
Width: 1410
VWidth: 0
GlyphClass: 2
Flags: W
HStem: -256 94 -119 93 0 122 470 52 473 122 473 111
VStem: 39 122 262 122 422 122 645 122 807 122 1029 122 1192 133 1203 122 1379 179 1379 122
LayerCount: 2
Back
Fore
SplineSet
1250 -89 m 257
 1290 -89 l 257
 1290 593 l 257
 1250 593 l 257
 1250 -89 l 257
1116 555 m 257
 1374 555 l 257
 1374 595 l 257
 1116 595 l 257
 1116 555 l 257
966 555 m 257
 1063 555 l 257
 1063 595 l 257
 966 595 l 257
 966 555 l 257
EndSplineSet
Refer: 105 -1 N 1 0 0 1 0 0 2
PickledDataWithLists: "(dp1
S'com.fontlab.hintData'
p2
(dp3
S'vhints'
p4
(lp5
(dp6
S'position'
p7
I39
sS'width'
p8
I122
sa(dp9
g7
I262
sg8
I122
sa(dp10
g7
I422
sg8
I122
sa(dp11
g7
I645
sg8
I122
sa(dp12
g7
I807
sg8
I122
sa(dp13
g7
I1029
sg8
I122
sa(dp14
g7
I1192
sg8
I133
sa(dp15
g7
I1203
sg8
I122
sa(dp16
g7
I1379
sg8
I179
sa(dp17
g7
I1379
sg8
I122
sasS'hhints'
p18
(lp19
(dp20
g7
I-256
sg8
I94
sa(dp21
g7
I-119
sg8
I93
sa(dp22
g7
I0
sg8
I122
sa(dp23
g7
I470
sg8
I52
sa(dp24
g7
I473
sg8
I122
sa(dp25
g7
I473
sg8
I111
sass."
EndChar

StartChar: tml_Nnna
Encoding: 108 2985 107
GlifName: tml_N_nna
Width: 914
VWidth: 0
GlyphClass: 2
Flags: W
AnchorPoint: "tml_virama" 522 0 basechar 0
LayerCount: 2
Back
Fore
SplineSet
384 155 m 258
 384 70 420 -13 489 -13 c 256
 489 27 l 257
 452 27 424 75 424 156 c 258
 424 300 l 258
 424 487 534 565 667 565 c 257
 667 605 l 257
 624 606 384 594 384 298 c 258
 384 155 l 258
350 565 m 257
 547 564 607 450 607 316 c 258
 607 155 l 258
 607 73 584 27 543 27 c 256
 543 -13 l 257
 615 -13 647 63 647 155 c 258
 647 311 l 258
 647 604 410 605 350 605 c 257
 350 565 l 257
40 154 m 257
 40 69 76 -14 147 -14 c 256
 147 26 l 257
 117 26 80 60 81 155 c 258
 80 300 l 258
 79 413 115 564 296 565 c 257
 296 605 l 257
 221 605 40 580 40 300 c 258
 40 154 l 257
177 408 m 257
 264 408 267 356 267 300 c 258
 267 154 l 258
 267 60 234 26 200 26 c 256
 200 -14 l 257
 270 -14 307 58 307 154 c 258
 307 300 l 258
 307 378 285 437 216 437 c 257
 197 437 174 421 177 408 c 257
720 566 m 257
 874 565 l 257
 874 605 l 257
 720 605 l 257
 720 566 l 257
738 0 m 257
 778 0 l 257
 778 573 l 257
 738 573 l 257
 738 0 l 257
EndSplineSet
EndChar

StartChar: tml_Number
Encoding: 109 3066 108
GlifName: tml_N_umber
Width: 976
VWidth: 0
GlyphClass: 2
Flags: W
LayerCount: 2
Back
Fore
SplineSet
301 591 m 256
 241 656 197 761 318 797 c 256
 318 836 l 257
 109 809 214 565 294 565 c 256
 301 591 l 256
754 701 m 256
 754 793 687 837 597 837 c 258
 343 837 l 257
 343 797 l 257
 593 797 l 258
 700 797 714 737 714 700 c 256
 714 686 705 615 628 615 c 256
 554 615 540 675 540 701 c 256
 500 701 l 257
 500 615 565 575 624 575 c 256
 696 575 754 623 754 701 c 256
951 637 m 257
 951 677 l 256
 886 679 871 687 871 746 c 258
 871 867 l 258
 871 972 823 1064 677 1064 c 256
 545 1064 489 973 489 863 c 256
 529 863 l 257
 529 929 553 1024 677 1024 c 256
 814 1024 831 929 831 867 c 258
 831 749 l 258
 831 671 858 637 951 637 c 257
EndSplineSet
Refer: 87 2984 N 1 0 0 1 -37 0 2
EndChar

StartChar: tml_NyI
Encoding: 110 -1 109
GlifName: tml_N_yI_
Width: 1150
VWidth: 0
GlyphClass: 2
Flags: W
LayerCount: 2
Back
Fore
SplineSet
931 728 m 257
 1068 728 1071 641 1071 592 c 258
 1071 2 l 257
 1111 2 l 257
 1111 595 l 258
 1111 698 1066 768 931 768 c 257
 931 728 l 257
710 593 m 257
 750 593 l 256
 750 654 762 728 877 728 c 256
 877 728 l 256
 877 768 l 257
 877 768 l 256
 753 768 710 697 710 593 c 257
 710 593 l 257
EndSplineSet
Refer: 113 2974 N 1 0 0 1 -6 0 2
EndChar

StartChar: tml_NyIi
Encoding: 111 -1 110
GlifName: tml_N_yI_i
Width: 1036
VWidth: 0
GlyphClass: 2
Flags: W
LayerCount: 2
Back
Fore
SplineSet
723 471 m 257
 763 471 l 257
 763 593 l 256
 688 751 788 859 870 859 c 257
 968 859 976 792 976 777 c 256
 976 718 927 702 904 702 c 256
 879 702 845 725 845 741 c 256
 819 710 l 257
 829 689 863 662 901 662 c 256
 1064 662 1054 899 880 899 c 256
 744 899 649 753 723 594 c 256
 723 471 l 257
EndSplineSet
Refer: 113 2974 N 1 0 0 1 2 0 2
EndChar

StartChar: tml_NyU
Encoding: 112 -1 111
GlifName: tml_N_yU_
Width: 912
VWidth: 0
GlyphClass: 2
Flags: W
HStem: -257 94 1 122 238 123 472 105 472 123
VStem: 39 124 39 131 39 171 317 123 484 123 695 122
LayerCount: 2
Back
Fore
SplineSet
448 -192 m 257
 448 -232 l 257
 562 -232 l 258
 715 -232 735 -120 735 -54 c 258
 735 157 l 257
 735 299 651 323 581 323 c 257
 581 283 l 256
 658 283 695 252 695 154 c 257
 695 -54 l 258
 695 -159 637 -192 561 -192 c 258
 448 -192 l 257
78 -134 m 258
 78 -152 l 258
 78 -190 125 -232 188 -232 c 258
 395 -232 l 257
 395 -192 l 257
 191 -192 l 258
 90 -192 96 -95 182 -95 c 258
 872 -95 l 257
 872 583 l 256
 832 583 l 256
 832 -55 l 257
 182 -55 l 258
 122 -55 78 -90 78 -134 c 258
EndSplineSet
Refer: 19 2958 N 1 0 0 1 0 0 2
Refer: 19 2958 N 1 0 0 1 0 0 2
PickledDataWithLists: "(dp1
S'com.fontlab.hintData'
p2
(dp3
S'vhints'
p4
(lp5
(dp6
S'position'
p7
I39
sS'width'
p8
I124
sa(dp9
g7
I39
sg8
I131
sa(dp10
g7
I39
sg8
I171
sa(dp11
g7
I317
sg8
I123
sa(dp12
g7
I484
sg8
I123
sa(dp13
g7
I695
sg8
I122
sasS'hhints'
p14
(lp15
(dp16
g7
I-257
sg8
I94
sa(dp17
g7
I1
sg8
I122
sa(dp18
g7
I238
sg8
I123
sa(dp19
g7
I472
sg8
I105
sa(dp20
g7
I472
sg8
I123
sass."
EndChar

StartChar: tml_NyUu
Encoding: 113 -1 112
GlifName: tml_N_yU_u
Width: 1276
VWidth: 0
GlyphClass: 2
Flags: W
HStem: -257 94 1 122 238 123 472 105 472 123
VStem: 31 124 31 131 31 171 309 123 476 123 687 122
LayerCount: 2
Back
Fore
SplineSet
1112 0 m 257
 1152 0 l 257
 1152 593 l 257
 1112 593 l 257
 1112 0 l 257
1019 554 m 257
 1236 554 l 257
 1236 595 l 257
 1019 595 l 257
 1019 554 l 257
828 554 m 257
 965 554 l 257
 965 595 l 257
 828 595 l 257
 828 554 l 257
401 -192 m 257
 401 -232 l 257
 561 -232 l 258
 714 -232 734 -120 734 -54 c 258
 734 157 l 257
 734 299 650 323 580 323 c 257
 580 283 l 256
 657 283 694 252 694 154 c 257
 694 -54 l 258
 694 -159 636 -192 560 -192 c 258
 401 -192 l 257
58 -134 m 258
 58 -152 l 258
 58 -190 105 -232 168 -232 c 258
 348 -232 l 257
 348 -192 l 257
 171 -192 l 258
 70 -192 76 -95 162 -95 c 258
 868 -95 l 257
 868 583 l 256
 828 583 l 256
 828 -55 l 257
 162 -55 l 258
 102 -55 58 -90 58 -134 c 258
EndSplineSet
Refer: 19 2958 N 1 0 0 1 0 0 2
PickledDataWithLists: "(dp1
S'com.fontlab.hintData'
p2
(dp3
S'vhints'
p4
(lp5
(dp6
S'position'
p7
I31
sS'width'
p8
I124
sa(dp9
g7
I31
sg8
I131
sa(dp10
g7
I31
sg8
I171
sa(dp11
g7
I309
sg8
I123
sa(dp12
g7
I476
sg8
I123
sa(dp13
g7
I687
sg8
I122
sasS'hhints'
p14
(lp15
(dp16
g7
I-257
sg8
I94
sa(dp17
g7
I1
sg8
I122
sa(dp18
g7
I238
sg8
I123
sa(dp19
g7
I472
sg8
I105
sa(dp20
g7
I472
sg8
I123
sass."
EndChar

StartChar: tml_Nya
Encoding: 114 2974 113
GlifName: tml_N_ya
Width: 1031
VWidth: 0
GlyphClass: 2
Flags: W
HStem: -165 122 1 122 238 123 472 105 472 123
VStem: 273 124 273 131 273 171 551 123 718 123 940 123
AnchorPoint: "tml_virama" 631 0 basechar 0
LayerCount: 2
Back
Fore
SplineSet
247 -163 m 258
 501 -163 l 257
 501 -123 l 257
 243 -123 l 258
 141 -123 93 -64 93 -2 c 258
 93 421 l 258
 93 484 139 556 252 556 c 257
 252 596 l 257
 110 596 52 501 53 414 c 257
 53 2 l 258
 53 -109 138 -163 247 -163 c 258
556 -125 m 257
 556 -165 l 257
 791 -165 l 258
 926 -165 984 -82 984 26 c 258
 984 154 l 258
 984 296 900 323 815 323 c 257
 815 283 l 256
 896 283 944 259 944 154 c 258
 944 26 l 258
 944 -89 870 -125 791 -125 c 258
 556 -125 l 257
EndSplineSet
Refer: 19 2958 N 1 0 0 1 234 0 2
PickledDataWithLists: "(dp1
S'com.typemytype.robofont.guides'
p2
(lp3
(dp4
S'y'
I-143
sS'x'
I556
sS'angle'
p5
I90
sS'isGlobal'
p6
I00
sasS'com.fontlab.hintData'
p7
(dp8
S'vhints'
p9
(lp10
(dp11
S'position'
p12
I273
sS'width'
p13
I124
sa(dp14
g12
I273
sg13
I131
sa(dp15
g12
I273
sg13
I171
sa(dp16
g12
I551
sg13
I123
sa(dp17
g12
I718
sg13
I123
sa(dp18
g12
I940
sg13
I123
sasS'hhints'
p19
(lp20
(dp21
g12
I-165
sg13
I122
sa(dp22
g12
I1
sg13
I122
sa(dp23
g12
I238
sg13
I123
sa(dp24
g12
I472
sg13
I105
sa(dp25
g12
I472
sg13
I123
sass."
EndChar

StartChar: tml_O
Encoding: 115 2962 114
GlifName: tml_O_
Width: 819
VWidth: 0
GlyphClass: 2
Flags: W
LayerCount: 2
Back
Fore
SplineSet
442 655 m 257
 643 655 739 488 739 398 c 258
 739 164 l 256
 733 30 486 47 486 162 c 257
 486 350 l 257
 446 350 l 256
 446 166 l 258
 446 -16 779 -17 779 165 c 258
 779 398 l 258
 779 494 679 695 442 695 c 257
 442 655 l 257
40 202 m 258
 40 118 104 30 192 30 c 256
 192 70 l 257
 142 70 79 121 79 211 c 256
 79 325 155 349 192 349 c 256
 192 389 l 257
 116 389 40 330 40 226 c 258
 40 202 l 258
247 30 m 257
 319 30 384 105 383 203 c 258
 383 226 l 258
 383 322 320 389 247 389 c 256
 247 349 l 257
 289 349 341 312 341 213 c 256
 341 118 291 70 247 70 c 257
 247 30 l 257
40 228 m 257
 51 256 55 283 82 332 c 257
 90 502 178 655 389 655 c 257
 389 695 l 257
 389 695 l 256
 117 695 40 467 40 310 c 257
 40 228 l 257
446 25 m 258
 446 -66 552 -132 715 -132 c 257
 715 -92 l 256
 619 -94 486 -61 486 27 c 258
 486 175 l 256
 446 276 l 257
 446 25 l 258
185 -124 m 257
 253 -296 451 -298 530 -155 c 257
 493 -134 l 256
 429 -252 281 -243 226 -114 c 257
 185 -124 l 257
EndSplineSet
EndChar

StartChar: tml_Om
Encoding: 116 3024 115
GlifName: tml_O_m
Width: 819
VWidth: 0
GlyphClass: 2
Flags: W
LayerCount: 2
Back
Fore
SplineSet
247 389 m 256
 247 349 l 257
 289 349 341 312 341 213 c 256
 341 118 291 70 247 70 c 257
 247 30 l 257
 319 30 384 105 383 203 c 258
 383 226 l 258
 383 322 320 389 247 389 c 256
192 389 m 257
 116 389 40 330 40 226 c 258
 40 202 l 258
 40 118 104 30 192 30 c 256
 192 70 l 257
 142 70 79 121 79 211 c 256
 79 325 155 349 192 349 c 256
 192 389 l 257
40 228 m 257
 51 256 55 283 82 332 c 257
 90 502 178 655 389 655 c 257
 389 695 l 257
 389 695 l 256
 117 695 40 467 40 310 c 257
 40 228 l 257
779 165 m 258
 779 398 l 258
 779 494 679 695 442 695 c 257
 442 655 l 257
 643 655 739 488 739 398 c 258
 739 164 l 256
 733 30 486 47 486 162 c 257
 486 350 l 257
 446 350 l 256
 446 166 l 258
 446 -16 779 -17 779 165 c 258
715 -132 m 257
 715 -92 l 256
 619 -94 486 -61 486 27 c 258
 486 175 l 256
 446 276 l 257
 446 25 l 258
 446 -66 552 -132 715 -132 c 257
530 -155 m 257
 493 -134 l 256
 429 -252 281 -243 226 -114 c 257
 185 -124 l 257
 253 -296 451 -298 530 -155 c 257
289 -152 m 257
 299 -152 l 257
 299 -30 l 257
 289 -30 l 257
 289 -152 l 257
289 -157 m 257
 381 -157 l 257
 381 -149 l 257
 289 -149 l 257
 289 -157 l 257
388 -157 m 256
 405 -157 421 -147 421 -115 c 258
 421 -64 l 258
 421 -35 403 -28 388 -28 c 257
 388 -36 l 257
 412 -36 410 -63 410 -64 c 258
 410 -115 l 258
 410 -122 410 -149 388 -149 c 257
 388 -157 l 256
343 -149 m 256
 353 -149 l 257
 353 -64 l 258
 353 -62 352 -36 374 -36 c 257
 374 -28 l 257
 359 -28 343 -36 343 -64 c 258
 343 -149 l 256
370 6 m 256
 370 0 375 -4 381 -4 c 256
 388 -4 393 0 393 6 c 256
 393 12 388 16 381 16 c 256
 375 16 370 12 370 6 c 256
EndSplineSet
EndChar

StartChar: tml_Oo
Encoding: 118 2963 117
GlifName: tml_O_o
Width: 819
VWidth: 0
GlyphClass: 2
Flags: W
HStem: -132 123 29 122 266 123 573 122
VStem: 2 171 2 124 179 123 280 123 446 123 696 123
LayerCount: 2
Back
Fore
SplineSet
442 655 m 257
 643 655 739 488 739 398 c 258
 739 164 l 256
 733 30 486 47 486 162 c 257
 486 350 l 257
 446 350 l 256
 446 166 l 258
 446 -16 779 -17 779 165 c 258
 779 398 l 258
 779 494 679 695 442 695 c 257
 442 655 l 257
182 -141 m 256
 182 -226 244 -300 345 -301 c 256
 448 -302 517 -231 549 -163 c 257
 514 -143 l 257
 502 -166 499 -172 491 -183 c 256
 405 -305 222 -276 222 -143 c 256
 222 -90 246 -21 349 -21 c 257
 349 19 l 257
 221 19 182 -64 182 -141 c 256
40 202 m 258
 40 118 104 30 192 30 c 256
 192 70 l 257
 142 70 79 121 79 211 c 256
 79 325 155 349 192 349 c 256
 192 389 l 257
 116 389 40 330 40 226 c 258
 40 202 l 258
247 30 m 257
 319 30 384 105 383 203 c 258
 383 226 l 258
 383 322 320 389 247 389 c 256
 247 349 l 257
 289 349 341 312 341 213 c 256
 341 118 291 70 247 70 c 257
 247 30 l 257
446 25 m 258
 446 -66 552 -132 715 -132 c 257
 715 -92 l 256
 619 -94 486 -61 486 27 c 258
 486 175 l 256
 446 276 l 257
 446 25 l 258
40 228 m 257
 51 256 55 283 82 332 c 257
 90 502 178 655 389 655 c 257
 389 695 l 257
 117 695 40 467 40 310 c 257
 40 228 l 257
EndSplineSet
PickledDataWithLists: "(dp1
S'com.fontlab.hintData'
p2
(dp3
S'vhints'
p4
(lp5
(dp6
S'position'
p7
I2
sS'width'
p8
I171
sa(dp9
g7
I2
sg8
I124
sa(dp10
g7
I179
sg8
I123
sa(dp11
g7
I280
sg8
I123
sa(dp12
g7
I446
sg8
I123
sa(dp13
g7
I696
sg8
I123
sasS'hhints'
p14
(lp15
(dp16
g7
I-132
sg8
I123
sa(dp17
g7
I29
sg8
I122
sa(dp18
g7
I266
sg8
I123
sa(dp19
g7
I573
sg8
I122
sass."
EndChar

StartChar: tml_PI
Encoding: 119 -1 118
GlifName: tml_P_I_
Width: 679
VWidth: 0
GlyphClass: 2
Flags: W
LayerCount: 2
Back
Fore
SplineSet
486 739 m 257
 596 739 598 655 598 594 c 258
 598 0 l 257
 639 0 l 257
 639 597 l 258
 639 692 616 779 486 779 c 257
 486 739 l 257
399 560 m 257
 399 595 l 256
 323 595 325 740 432 740 c 256
 432 779 l 257
 272 779 271 560 399 560 c 257
EndSplineSet
Refer: 122 2986 N 1 0 0 1 -30 0 2
EndChar

StartChar: tml_PIi
Encoding: 120 -1 119
GlifName: tml_P_I_i
Width: 684
VWidth: 0
GlyphClass: 2
Flags: W
LayerCount: 2
Back
Fore
SplineSet
492 896 m 257
 549 896 604 858 604 808 c 256
 604 749 566 729 536 729 c 256
 500 729 474 756 474 772 c 256
 446 739 l 257
 458 716 492 689 537 689 c 256
 684 689 692 936 491 936 c 257
 293 936 212 674 405 566 c 257
 439 595 l 257
 285 657 308 896 492 896 c 257
EndSplineSet
Refer: 122 2986 N 1 0 0 1 -30 0 2
EndChar

StartChar: tml_PU
Encoding: 121 -1 120
GlifName: tml_P_U_
Width: 550
VWidth: 0
GlyphClass: 2
Flags: W
LayerCount: 2
Back
Fore
SplineSet
76 24 m 257
 116 24 l 257
 116 597 l 257
 76 597 l 257
 76 24 l 257
286 0 m 257
 429 0 l 257
 429 -199 l 257
 469 -199 l 257
 469 596 l 257
 429 596 l 257
 429 40 l 257
 286 40 l 257
 286 0 l 257
76 0 m 257
 232 0 l 257
 232 40 l 257
 76 40 l 257
 76 0 l 257
EndSplineSet
EndChar

StartChar: tml_PUu
Encoding: 122 -1 121
GlifName: tml_P_U_u
Width: 686
VWidth: 0
GlyphClass: 2
Flags: W
HStem: -258 93 -106 93 1 122 107 17
VStem: 13 88 82 122 82 202 174 88 537 4
LayerCount: 2
Back
Fore
SplineSet
326 -205 m 257
 163 -205 l 258
 122 -205 106 -189 106 -139 c 256
 106 -88 151 -79 167 -79 c 257
 183 -79 226 -84 226 -142 c 256
 267 -142 l 256
 267 -136 l 258
 267 -78 225 -39 167 -39 c 257
 112 -39 66 -78 66 -140 c 258
 66 -145 l 258
 66 -222 108 -245 159 -245 c 258
 326 -245 l 257
 326 -205 l 257
379 -205 m 256
 379 -245 l 257
 595 -245 l 258
 631 -245 653 -225 653 -180 c 258
 653 -7 l 258
 653 26 637 38 590 38 c 258
 507 38 l 257
 507 -2 l 256
 613 -2 l 256
 613 -205 l 256
 379 -205 l 256
471 7 m 257
 471 -143 l 257
 512 -143 l 257
 512 7 l 257
 471 7 l 257
EndSplineSet
Refer: 122 2986 N 1 0 0 1 43 0 2
PickledDataWithLists: "(dp1
S'com.fontlab.hintData'
p2
(dp3
S'vhints'
p4
(lp5
(dp6
S'position'
p7
I13
sS'width'
p8
I88
sa(dp9
g7
I82
sg8
I122
sa(dp10
g7
I82
sg8
I202
sa(dp11
g7
I174
sg8
I88
sa(dp12
g7
I537
sg8
I4
sasS'hhints'
p13
(lp14
(dp15
g7
I-258
sg8
I93
sa(dp16
g7
I-106
sg8
I93
sa(dp17
g7
I1
sg8
I122
sa(dp18
g7
I107
sg8
I17
sass."
EndChar

StartChar: tml_Pa
Encoding: 123 2986 122
GlifName: tml_P_a
Width: 539
VWidth: 0
GlyphClass: 2
Flags: W
HStem: 1 122 107 17
VStem: 40 202 40 122
AnchorPoint: "tml_virama" 271 0 basechar 0
LayerCount: 2
Back
Fore
SplineSet
70 24 m 257
 110 24 l 257
 110 595 l 257
 70 595 l 257
 70 24 l 257
428 21 m 257
 469 21 l 257
 469 595 l 257
 428 595 l 257
 428 21 l 257
298 0 m 257
 469 0 l 257
 469 40 l 257
 298 40 l 257
 298 0 l 257
70 0 m 257
 242 0 l 257
 242 40 l 257
 70 40 l 257
 70 0 l 257
EndSplineSet
PickledDataWithLists: "(dp1
S'com.fontlab.hintData'
p2
(dp3
S'vhints'
p4
(lp5
(dp6
S'position'
p7
I40
sS'width'
p8
I202
sa(dp9
g7
I40
sg8
I122
sasS'hhints'
p10
(lp11
(dp12
g7
I1
sg8
I122
sa(dp13
g7
I107
sg8
I17
sass."
EndChar

StartChar: tml_RI
Encoding: 124 -1 123
GlifName: tml_R_I_
Width: 679
VWidth: 0
GlyphClass: 2
Flags: W
LayerCount: 2
Back
Fore
SplineSet
509 719 m 257
 595 719 599 652 599 590 c 258
 599 3 l 257
 639 3 l 257
 639 593 l 258
 639 695 606 759 509 759 c 257
 509 719 l 257
324 591 m 257
 364 591 l 256
 364 652 375 719 455 719 c 256
 455 719 l 256
 455 759 l 257
 455 759 l 256
 361 759 324 695 324 591 c 257
 324 591 l 257
EndSplineSet
Refer: 130 2992 N 1 0 0 1 0 0 2
EndChar

StartChar: tml_RI.alt
Encoding: 125 -1 124
GlifName: tml_R_I_.alt
Width: 678
VWidth: 0
GlyphClass: 2
Flags: W
LayerCount: 2
Back
Fore
SplineSet
508 720 m 257
 594 720 598 653 598 591 c 258
 598 0 l 257
 638 0 l 257
 638 594 l 258
 638 696 605 760 508 760 c 257
 508 720 l 257
323 592 m 257
 363 592 l 256
 363 653 374 720 454 720 c 256
 454 720 l 256
 454 760 l 257
 454 760 l 256
 360 760 323 696 323 592 c 257
 323 592 l 257
323 0 m 257
 363 0 l 257
 363 593 l 257
 323 593 l 257
 323 0 l 257
40 0 m 257
 80 0 l 257
 80 593 l 257
 40 592 l 257
 40 0 l 257
228 555 m 257
 459 555 l 257
 459 595 l 257
 228 595 l 257
 228 555 l 257
40 555 m 257
 175 555 l 257
 175 595 l 257
 40 595 l 257
 40 555 l 257
EndSplineSet
EndChar

StartChar: tml_RIi
Encoding: 126 -1 125
GlifName: tml_R_I_i
Width: 658
VWidth: 0
GlyphClass: 2
Flags: W
LayerCount: 2
Back
Fore
SplineSet
324 570 m 257
 366 570 l 257
 366 593 l 256
 291 751 389 859 471 859 c 257
 569 859 577 792 577 777 c 256
 577 718 528 702 505 702 c 256
 480 702 446 725 446 741 c 256
 420 710 l 257
 430 689 464 662 502 662 c 256
 665 662 655 899 481 899 c 256
 345 899 250 753 324 594 c 256
 324 570 l 257
EndSplineSet
Refer: 130 2992 N 1 0 0 1 0 0 2
EndChar

StartChar: tml_RIi.alt
Encoding: 127 -1 126
GlifName: tml_R_I_i.alt
Width: 657
VWidth: 0
GlyphClass: 2
Flags: W
LayerCount: 2
Back
Fore
SplineSet
323 570 m 257
 365 570 l 257
 365 593 l 256
 290 751 388 859 470 859 c 257
 568 859 576 792 576 777 c 256
 576 718 527 702 504 702 c 256
 479 702 445 725 445 741 c 256
 419 710 l 257
 429 689 463 662 501 662 c 256
 664 662 654 899 480 899 c 256
 344 899 249 753 323 594 c 256
 323 570 l 257
323 0 m 257
 363 0 l 257
 363 593 l 257
 323 593 l 257
 323 0 l 257
40 0 m 257
 80 0 l 257
 80 593 l 257
 40 592 l 257
 40 0 l 257
228 555 m 257
 459 555 l 257
 459 595 l 257
 228 595 l 257
 228 555 l 257
40 555 m 257
 175 555 l 257
 175 595 l 257
 40 595 l 257
 40 555 l 257
EndSplineSet
EndChar

StartChar: tml_RU
Encoding: 128 -1 127
GlifName: tml_R_U_
Width: 878
VWidth: 0
GlyphClass: 2
Flags: W
HStem: -150 122 1 21<295 335 335 335 579 619 619 619> 379 122 473 122
VStem: 0 123 255 194 255 122 756 122
LayerCount: 2
Back
Fore
SplineSet
40 69 m 258
 40 -70 125 -138 234 -138 c 258
 434 -138 l 257
 434 -98 l 257
 231 -98 l 258
 151 -98 80 -49 80 68 c 258
 80 287 l 258
 80 417 161 461 239 461 c 256
 239 501 l 256
 154 501 40 455 40 292 c 258
 40 69 l 258
489 -98 m 257
 489 -138 l 257
 651 -138 l 258
 777 -138 838 -43 838 24 c 258
 838 184 l 258
 838 302 736 329 675 335 c 257
 675 295 l 257
 707 295 798 279 798 180 c 258
 798 24 l 258
 798 -45 721 -98 650 -98 c 258
 489 -98 l 257
295 1 m 257
 335 1 l 257
 335 595 l 257
 295 595 l 257
 295 1 l 257
297 555 m 257
 435 555 l 257
 435 595 l 257
 297 595 l 257
 297 555 l 257
579 1 m 257
 619 1 l 257
 621 591 l 257
 579 591 l 257
 579 1 l 257
489 555 m 257
 733 555 l 257
 733 595 l 257
 489 595 l 257
 489 555 l 257
EndSplineSet
PickledDataWithLists: "(dp1
S'com.fontlab.hintData'
p2
(dp3
S'vhints'
p4
(lp5
(dp6
S'position'
p7
I0
sS'width'
p8
I123
sa(dp9
g7
I255
sg8
I194
sa(dp10
g7
I255
sg8
I122
sa(dp11
g7
I756
sg8
I122
sasS'hhints'
p12
(lp13
(dp14
g7
I-150
sg8
I122
sa(dp15
g7
I1
sg8
I21
sa(dp16
g7
I379
sg8
I122
sa(dp17
g7
I473
sg8
I122
sass."
EndChar

StartChar: tml_RUu
Encoding: 129 -1 128
GlifName: tml_R_U_u
Width: 1063
VWidth: 0
GlyphClass: 2
Flags: W
HStem: -150 122 1 21<440 480 480 480 724 764 764 764> 321 122 473 122
VStem: 64 123 262 122 400 194 400 122 901 122
LayerCount: 2
Back
Fore
SplineSet
145 29 m 258
 145 -82 211 -137 296 -137 c 258
 593 -137 l 257
 593 -97 l 257
 296 -97 l 258
 239 -97 185 -63 185 28 c 258
 185 267 l 258
 185 330 206 364 263 364 c 256
 322 364 341 318 341 284 c 256
 341 255 321 213 268 212 c 256
 268 172 l 257
 330 172 381 226 381 279 c 258
 381 292 l 258
 381 335 344 404 268 404 c 258
 258 404 l 258
 175 404 145 334 145 267 c 258
 145 29 l 258
648 -97 m 257
 648 -137 l 257
 796 -137 l 258
 896 -137 945 -53 945 25 c 258
 945 221 l 258
 945 310 867 330 820 335 c 257
 820 295 l 257
 842 295 905 284 905 217 c 258
 905 25 l 258
 905 -57 848 -97 795 -97 c 258
 648 -97 l 257
440 1 m 257
 480 1 l 257
 480 595 l 257
 440 595 l 257
 440 1 l 257
442 555 m 257
 594 555 l 257
 594 595 l 257
 442 595 l 257
 442 555 l 257
724 1 m 257
 764 1 l 257
 766 591 l 257
 724 591 l 257
 724 1 l 257
648 555 m 257
 878 555 l 257
 878 595 l 257
 648 595 l 257
 648 555 l 257
EndSplineSet
PickledDataWithLists: "(dp1
S'com.fontlab.hintData'
p2
(dp3
S'vhints'
p4
(lp5
(dp6
S'position'
p7
I64
sS'width'
p8
I123
sa(dp9
g7
I262
sg8
I122
sa(dp10
g7
I400
sg8
I194
sa(dp11
g7
I400
sg8
I122
sa(dp12
g7
I901
sg8
I122
sasS'hhints'
p13
(lp14
(dp15
g7
I-150
sg8
I122
sa(dp16
g7
I1
sg8
I21
sa(dp17
g7
I321
sg8
I122
sa(dp18
g7
I473
sg8
I122
sass."
EndChar

StartChar: tml_RVirama.alt
Encoding: 130 -1 129
GlifName: tml_R_V_irama.alt
Width: 499
VWidth: 0
GlyphClass: 2
Flags: W
LayerCount: 2
Back
Fore
SplineSet
40 0 m 257
 80 0 l 257
 80 593 l 257
 40 592 l 257
 40 0 l 257
40 555 m 257
 175 555 l 257
 175 595 l 257
 40 595 l 257
 40 555 l 257
194 725 m 256
 194 705 209 689 229 689 c 256
 248 689 264 705 264 725 c 256
 264 745 248 761 229 761 c 256
 209 761 194 745 194 725 c 256
323 0 m 257
 363 0 l 257
 363 593 l 257
 323 593 l 257
 323 0 l 257
228 555 m 257
 459 555 l 257
 459 595 l 257
 228 595 l 257
 228 555 l 257
EndSplineSet
EndChar

StartChar: tml_Ra
Encoding: 131 2992 130
GlifName: tml_R_a
Width: 518
VWidth: 0
GlyphClass: 2
Flags: W
HStem: 0 21<40 80 80 80 364 364> 473 122
VStem: 0 178 0 122
AnchorPoint: "tml_virama" 231 0 basechar 0
LayerCount: 2
Back
Fore
SplineSet
154 -177 m 257
 209 -177 l 257
 364 0 l 256
 366 591 l 257
 324 591 l 257
 324 19 l 257
 154 -177 l 257
40 0 m 257
 80 0 l 257
 80 595 l 257
 40 595 l 257
 40 0 l 257
229 555 m 257
 478 555 l 257
 478 595 l 257
 229 595 l 257
 229 555 l 257
42 555 m 257
 175 555 l 257
 175 595 l 257
 42 595 l 257
 42 555 l 257
EndSplineSet
PickledDataWithLists: "(dp1
S'com.fontlab.hintData'
p2
(dp3
S'vhints'
p4
(lp5
(dp6
S'position'
p7
I0
sS'width'
p8
I178
sa(dp9
g7
I0
sg8
I122
sasS'hhints'
p10
(lp11
(dp12
g7
I0
sg8
I21
sa(dp13
g7
I473
sg8
I122
sass."
EndChar

StartChar: tml_RrAa.alt
Encoding: 132 -1 131
GlifName: tml_R_rA_a.alt
Width: 840
VWidth: 0
GlyphClass: 2
Flags: W
LayerCount: 2
Back
Fore
SplineSet
416 -166 m 257
 416 -126 l 257
 258 -126 l 258
 171 -126 88 -83 88 40 c 258
 88 519 l 256
 48 519 l 257
 48 40 l 258
 48 -94 142 -166 242 -166 c 258
 416 -166 l 257
465 -166 m 257
 657 -166 l 258
 753 -166 800 -105 800 -31 c 258
 800 136 l 258
 800 234 712 238 650 244 c 257
 650 200 l 257
 672 200 759 208 759 132 c 258
 759 -30 l 258
 759 -84 725 -126 656 -126 c 258
 465 -126 l 257
 465 -166 l 257
650 245 m 257
 650 205 l 256
 666 205 l 258
 794 207 800 284 800 336 c 258
 800 475 l 258
 800 559 765 606 652 606 c 257
 652 566 l 257
 754 566 759 521 759 467 c 258
 759 316 l 258
 759 275 728 245 662 245 c 258
 650 245 l 257
398 567 m 257
 450 567 477 543 477 450 c 258
 479 1 l 257
 519 1 l 257
 517 451 l 258
 517 543 553 567 598 567 c 257
 598 607 l 257
 559 607 526 598 498 562 c 257
 474 595 444 607 398 607 c 257
 398 567 l 257
231 1 m 257
 273 1 l 257
 271 475 l 258
 271 504 283 567 345 567 c 257
 345 607 l 257
 262 607 231 530 231 480 c 258
 231 1 l 257
EndSplineSet
EndChar

StartChar: tml_RrI
Encoding: 133 -1 132
GlifName: tml_R_rI_
Width: 804
VWidth: 0
GlyphClass: 2
Flags: HW
LayerCount: 2
Back
Fore
SplineSet
488 595 m 257
 528 595 l 256
 528 602.289177948 528.15706887 609.664029826 528.570169906 616.999998382 c 0
 531.614134037 671.055600331 548.559577637 723 619 723 c 256
 619 763 l 256
 525 763 488 699 488 595 c 257
673 723 m 257
 759 723 763 656 763 594 c 258
 763 68 l 257
 803 68 l 257
 803 597 l 258
 803 699 770 763 673 763 c 257
 673 723 l 257
EndSplineSet
Refer: 136 2993 N 1 0 0 1 0 0 2
EndChar

StartChar: tml_RrIi
Encoding: 134 -1 133
GlifName: tml_R_rI_i
Width: 783
VWidth: 0
GlyphClass: 2
Flags: W
LayerCount: 2
Back
Fore
SplineSet
488 578 m 257
 529 578 l 257
 528 601 l 256
 453 759 553 867 635 867 c 257
 733 867 741 800 741 785 c 256
 741 726 692 710 669 710 c 256
 644 710 610 733 610 749 c 256
 584 718 l 257
 594 697 628 670 666 670 c 256
 829 670 819 907 645 907 c 256
 509 907 414 761 488 602 c 256
 488 578 l 257
EndSplineSet
Refer: 136 2993 N 1 0 0 1 0 0 2
EndChar

StartChar: tml_RrU
Encoding: 135 -1 134
GlifName: tml_R_rU_
Width: 899
VWidth: 0
GlyphClass: 2
Flags: W
HStem: -257 94 -120 93 -1 21 494 117
VStem: 36 129 287 122 563 122 738 122
LayerCount: 2
Back
Fore
SplineSet
78 -136 m 258
 78 -154 l 258
 78 -192 125 -234 188 -234 c 258
 329 -234 l 257
 329 -194 l 257
 195 -194 l 258
 94 -194 94 -97 182 -97 c 258
 781 -97 l 257
 781 583 l 256
 741 583 l 256
 741 -57 l 257
 182 -57 l 258
 122 -57 78 -92 78 -136 c 258
383 -234 m 257
 513 -234 l 258
 630 -234 645 -122 645 -56 c 258
 645 62 l 257
 645 475 l 258
 645 530 606 606 521 606 c 257
 521 566 l 257
 536 566 605 560 605 460 c 258
 605 62 l 257
 605 -56 l 258
 605 -161 568 -194 512 -194 c 258
 383 -194 l 257
 383 -234 l 257
271 566 m 257
 305 566 349 549 349 475 c 258
 351 0 l 257
 391 0 l 257
 389 476 l 258
 389 546 444 566 470 566 c 257
 470 606 l 257
 431 606 398 598 370 567 c 257
 346 595 317 606 271 606 c 257
 271 566 l 257
103 0 m 257
 145 0 l 257
 143 474 l 258
 143 503 155 566 217 566 c 257
 217 606 l 257
 145 606 103 547 103 479 c 258
 103 0 l 257
EndSplineSet
PickledDataWithLists: "(dp1
S'com.fontlab.hintData'
p2
(dp3
S'vhints'
p4
(lp5
(dp6
S'position'
p7
I36
sS'width'
p8
I129
sa(dp9
g7
I287
sg8
I122
sa(dp10
g7
I563
sg8
I122
sa(dp11
g7
I738
sg8
I122
sasS'hhints'
p12
(lp13
(dp14
g7
I-257
sg8
I94
sa(dp15
g7
I-120
sg8
I93
sa(dp16
g7
I-1
sg8
I21
sa(dp17
g7
I494
sg8
I117
sass."
EndChar

StartChar: tml_RrUu
Encoding: 136 -1 135
GlifName: tml_R_rU_u
Width: 1191
VWidth: 0
GlyphClass: 2
Flags: W
HStem: -257 94 -120 93 -1 21 474 122 474 109 494 117
VStem: -2 129 249 122 526 122 701 179 701 122
LayerCount: 2
Back
Fore
SplineSet
1027 1 m 257
 1067 1 l 257
 1067 594 l 257
 1027 594 l 257
 1027 1 l 257
911 556 m 257
 1151 556 l 257
 1151 596 l 257
 911 596 l 257
 911 556 l 257
703 556 m 257
 857 556 l 257
 857 596 l 257
 703 596 l 257
 703 556 l 257
EndSplineSet
Refer: 134 -1 N 1 0 0 1 -38 0 2
PickledDataWithLists: "(dp1
S'com.fontlab.hintData'
p2
(dp3
S'vhints'
p4
(lp5
(dp6
S'position'
p7
I-2
sS'width'
p8
I129
sa(dp9
g7
I249
sg8
I122
sa(dp10
g7
I526
sg8
I122
sa(dp11
g7
I701
sg8
I179
sa(dp12
g7
I701
sg8
I122
sasS'hhints'
p13
(lp14
(dp15
g7
I-257
sg8
I94
sa(dp16
g7
I-120
sg8
I93
sa(dp17
g7
I-1
sg8
I21
sa(dp18
g7
I474
sg8
I122
sa(dp19
g7
I474
sg8
I109
sa(dp20
g7
I494
sg8
I117
sass."
EndChar

StartChar: tml_Rra
Encoding: 137 2993 136
GlifName: tml_R_ra
Width: 654
VWidth: 0
GlyphClass: 2
Flags: W
HStem: -155 122 0 21<70 112 112 112 318 358 358 358> 483 123
VStem: 0 122 26 129 277 122 530 125
AnchorPoint: "tml_virama" 371 0 basechar 0
LayerCount: 2
Back
Fore
SplineSet
40 -256 m 257
 80 -256 l 257
 80 -145 112 -116 165 -116 c 258
 459 -116 l 258
 571 -114 614 -22 614 64 c 258
 614 475 l 258
 614 530 575 606 488 606 c 257
 488 566 l 257
 503 566 574 560 574 460 c 258
 574 64 l 258
 574 -20 528 -76 460 -76 c 258
 172 -76 l 258
 113 -76 40 -95 40 -256 c 257
70 0 m 257
 112 0 l 257
 110 474 l 258
 110 503 122 566 184 566 c 257
 184 606 l 257
 101 606 70 529 70 479 c 258
 70 0 l 257
237 566 m 257
 289 566 316 542 316 449 c 258
 318 0 l 257
 358 0 l 257
 356 450 l 258
 356 542 392 566 437 566 c 257
 437 606 l 257
 398 606 365 597 337 561 c 257
 313 594 283 606 237 606 c 257
 237 566 l 257
EndSplineSet
PickledDataWithLists: "(dp1
S'com.fontlab.hintData'
p2
(dp3
S'vhints'
p4
(lp5
(dp6
S'position'
p7
I0
sS'width'
p8
I122
sa(dp9
g7
I26
sg8
I129
sa(dp10
g7
I277
sg8
I122
sa(dp11
g7
I530
sg8
I125
sasS'hhints'
p12
(lp13
(dp14
g7
I-155
sg8
I122
sa(dp15
g7
I0
sg8
I21
sa(dp16
g7
I483
sg8
I123
sass."
EndChar

StartChar: tml_Rupee
Encoding: 138 3065 137
GlifName: tml_R_upee
Width: 1017
VWidth: 0
GlyphClass: 2
Flags: W
LayerCount: 2
Back
Fore
SplineSet
993 710 m 257
 993 750 l 256
 928 752 913 760 913 819 c 258
 913 940 l 258
 913 1045 865 1137 719 1137 c 256
 587 1137 531 1046 531 936 c 256
 571 936 l 257
 571 1002 595 1097 719 1097 c 256
 856 1097 873 1002 873 940 c 258
 873 822 l 258
 873 744 900 710 993 710 c 257
796 774 m 256
 796 866 729 910 639 910 c 258
 385 910 l 257
 385 870 l 257
 635 870 l 258
 742 870 756 810 756 773 c 256
 756 759 747 688 670 688 c 256
 596 688 582 748 582 774 c 256
 542 774 l 257
 542 688 607 648 666 648 c 256
 738 648 796 696 796 774 c 256
343 664 m 256
 283 729 239 834 360 870 c 256
 360 909 l 257
 151 882 256 638 336 638 c 256
 343 664 l 256
40 30 m 258
 40 -109 125 -177 234 -177 c 258
 430 -177 l 257
 430 -137 l 257
 242 -137 l 258
 144 -137 82 -83 80 29 c 258
 80 533 l 258
 80 627 124 635 208 635 c 258
 346 635 l 256
 345 675 l 256
 210 675 l 258
 109 675 40 660 40 534 c 258
 40 30 l 258
484 -137 m 257
 484 -177 l 257
 632 -177 l 258
 758 -177 818 -84 818 -15 c 258
 818 221 l 258
 818 339 716 366 655 372 c 257
 655 332 l 257
 676 332 778 319 778 222 c 258
 778 -15 l 258
 778 -78 714 -137 641 -137 c 258
 484 -137 l 257
559 0 m 257
 600 1 l 257
 602 591 l 257
 559 590 l 257
 559 0 l 257
484 544 m 257
 713 544 l 257
 713 595 l 257
 484 595 l 257
 484 544 l 257
279 544 m 257
 431 544 l 257
 431 595 l 257
 279 595 l 257
 279 544 l 257
277 1 m 257
 323 0 l 257
 323 594 l 257
 277 595 l 257
 277 1 l 257
EndSplineSet
EndChar

StartChar: tml_SI
Encoding: 139 -1 138
GlifName: tml_S_I_
Width: 1275
VWidth: 0
GlyphClass: 2
Flags: W
LayerCount: 2
Back
Fore
SplineSet
671 566 m 257
 767 566 766 458 766 397 c 258
 766 107 l 258
 766 49 825 0 888 0 c 257
 888 40 l 257
 846 40 807 72 807 109 c 258
 807 405 l 258
 807 507 783 606 671 606 c 257
 671 566 l 257
942 0 m 257
 1052 0 1108 82 1108 167 c 258
 1108 426 l 258
 1108 543 1055 597 935 596 c 257
 935 556 l 257
 1060 556 1068 490 1068 424 c 257
 1068 167 l 257
 1068 116 1039 40 942 40 c 257
 942 0 l 257
40 172 m 258
 40 88 104 0 192 0 c 256
 192 40 l 257
 142 40 79 91 79 181 c 256
 79 295 155 319 192 319 c 256
 192 359 l 257
 116 359 40 300 40 196 c 258
 40 172 l 258
247 0 m 257
 319 0 384 75 383 173 c 258
 383 196 l 258
 383 292 320 359 247 359 c 256
 247 319 l 257
 289 319 341 282 341 183 c 256
 341 88 291 40 247 40 c 257
 247 0 l 257
317 565 m 257
 430 565 480 472 480 354 c 257
 480 0 l 257
 520 0 l 257
 520 355 l 257
 520 454 479 605 317 605 c 257
 317 565 l 257
936 556 m 257
 950 592 l 256
 898 592 875 737 1028 737 c 256
 1028 737 l 256
 1028 777 l 257
 1028 777 l 257
 819 777 847 556 936 556 c 257
1082 736 m 257
 1192 736 1194 652 1194 591 c 258
 1194 1 l 257
 1235 1 l 257
 1235 594 l 258
 1235 689 1212 777 1082 777 c 257
 1082 736 l 257
40 204 m 257
 80 306 l 256
 82 443 149 565 263 565 c 257
 263 605 l 257
 125 605 40 469 40 302 c 257
 40 204 l 257
480 325 m 257
 520 326 l 257
 520 454 533 565 617 565 c 257
 617 605 l 257
 486 605 480 440 480 325 c 257
EndSplineSet
EndChar

StartChar: tml_SIi
Encoding: 140 -1 139
GlifName: tml_S_I_i
Width: 1249
VWidth: 0
GlyphClass: 2
Flags: W
LayerCount: 2
Back
Fore
SplineSet
994 541 m 257
 849 599 901 849 1063 835 c 257
 1120 835 1169 799 1169 746 c 256
 1169 693 1132 669 1102 669 c 256
 1064 669 1041 691 1041 707 c 256
 1015 675 l 257
 1027 652 1058 629 1099 629 c 256
 1245 627 1261 874 1056 874 c 256
 911 874 846 741 874 621 c 256
 888 562 942 521 982 501 c 256
 1031 477 1026 446 1027 423 c 258
 1027 123 l 257
 1027 46 969 40 942 40 c 257
 942 0 l 257
 1036 0 1067 61 1067 123 c 258
 1067 424 l 258
 1067 450 1072 513 994 541 c 257
671 566 m 257
 767 566 766 458 766 397 c 258
 766 107 l 258
 766 49 825 0 888 0 c 257
 888 40 l 257
 846 40 807 72 807 109 c 258
 807 405 l 258
 807 507 783 606 671 606 c 257
 671 566 l 257
40 172 m 258
 40 88 104 0 192 0 c 256
 192 40 l 257
 142 40 79 91 79 181 c 256
 79 295 155 319 192 319 c 256
 192 359 l 257
 116 359 40 300 40 196 c 258
 40 172 l 258
247 0 m 257
 319 0 384 75 383 173 c 258
 383 196 l 258
 383 292 320 359 247 359 c 256
 247 319 l 257
 289 319 341 282 341 183 c 256
 341 88 291 40 247 40 c 257
 247 0 l 257
317 565 m 257
 430 565 480 472 480 354 c 257
 480 0 l 257
 520 0 l 257
 520 355 l 257
 520 454 479 605 317 605 c 257
 317 565 l 257
40 204 m 257
 80 306 l 256
 82 443 149 565 263 565 c 257
 263 605 l 257
 125 605 40 469 40 302 c 257
 40 204 l 257
480 325 m 257
 520 326 l 257
 520 454 533 565 617 565 c 257
 617 605 l 257
 486 605 480 440 480 325 c 257
EndSplineSet
EndChar

StartChar: tml_SU
Encoding: 141 -1 140
GlifName: tml_S_U_
Width: 1460
VWidth: 0
GlyphClass: 2
Flags: W
LayerCount: 2
Back
Fore
SplineSet
934 557 m 257
 1251 557 l 258
 1348 557 1380 526 1380 471 c 256
 1380 453 1361 399 1306 399 c 256
 1247 399 1230 452 1230 472 c 256
 1190 472 l 257
 1190 422 1232 359 1301 359 c 258
 1313 359 l 258
 1368 359 1420 413 1420 472 c 258
 1420 479 l 258
 1420 546 1370 597 1255 597 c 258
 934 597 l 257
 934 557 l 257
671 566 m 257
 767 566 766 458 766 397 c 258
 766 107 l 258
 766 49 825 0 888 0 c 257
 888 40 l 257
 846 40 807 72 807 109 c 258
 807 405 l 258
 807 507 783 606 671 606 c 257
 671 566 l 257
942 0 m 257
 1052 0 1108 82 1108 167 c 258
 1108 426 l 258
 1108 543 1055 597 935 596 c 257
 935 556 l 257
 1060 556 1068 490 1068 424 c 257
 1068 167 l 257
 1068 116 1039 40 942 40 c 257
 942 0 l 257
40 172 m 258
 40 88 104 0 192 0 c 256
 192 40 l 257
 142 40 79 91 79 181 c 256
 79 295 155 319 192 319 c 256
 192 359 l 257
 116 359 40 300 40 196 c 258
 40 172 l 258
247 0 m 257
 319 0 384 75 383 173 c 258
 383 196 l 258
 383 292 320 359 247 359 c 256
 247 319 l 257
 289 319 341 282 341 183 c 256
 341 88 291 40 247 40 c 257
 247 0 l 257
317 565 m 257
 430 565 480 472 480 354 c 257
 480 0 l 257
 520 0 l 257
 520 355 l 257
 520 454 479 605 317 605 c 257
 317 565 l 257
40 204 m 257
 80 306 l 256
 82 443 149 565 263 565 c 257
 263 605 l 257
 125 605 40 469 40 302 c 257
 40 204 l 257
480 325 m 257
 520 326 l 257
 520 454 533 565 617 565 c 257
 617 605 l 257
 486 605 480 440 480 325 c 257
EndSplineSet
EndChar

StartChar: tml_SUu
Encoding: 142 -1 141
GlifName: tml_S_U_u
Width: 1609
VWidth: 0
GlyphClass: 2
Flags: W
LayerCount: 2
Back
Fore
SplineSet
935 557 m 257
 1249 557 l 258
 1346 557 1378 526 1378 471 c 256
 1378 453 1359 399 1304 399 c 256
 1245 399 1228 452 1228 472 c 256
 1188 472 l 257
 1188 422 1230 359 1299 359 c 258
 1311 359 l 258
 1366 359 1418 413 1418 472 c 258
 1418 479 l 258
 1418 546 1368 597 1253 597 c 258
 935 597 l 257
 935 557 l 257
1185 594 m 256
 1225 594 l 257
 1225 696 1270 754 1377 754 c 256
 1487 754 1529 695 1529 638 c 258
 1529 314 l 258
 1529 232 1477 229 1431 229 c 258
 1372 229 l 256
 1372 189 l 256
 1431 189 l 258
 1532 189 1569 236 1569 314 c 258
 1569 638 l 258
 1569 743 1480 794 1377 794 c 256
 1262 794 1185 736 1185 594 c 256
671 566 m 257
 767 566 766 458 766 397 c 258
 766 107 l 258
 766 49 825 0 888 0 c 257
 888 40 l 257
 846 40 807 72 807 109 c 258
 807 405 l 258
 807 507 783 606 671 606 c 257
 671 566 l 257
942 0 m 257
 1052 0 1108 82 1108 167 c 258
 1108 426 l 258
 1108 543 1055 597 935 596 c 257
 935 556 l 257
 1060 556 1068 490 1068 424 c 257
 1068 167 l 257
 1068 116 1039 40 942 40 c 257
 942 0 l 257
40 172 m 258
 40 88 104 0 192 0 c 256
 192 40 l 257
 142 40 79 91 79 181 c 256
 79 295 155 319 192 319 c 256
 192 359 l 257
 116 359 40 300 40 196 c 258
 40 172 l 258
247 0 m 257
 319 0 384 75 383 173 c 258
 383 196 l 258
 383 292 320 359 247 359 c 256
 247 319 l 257
 289 319 341 282 341 183 c 256
 341 88 291 40 247 40 c 257
 247 0 l 257
317 565 m 257
 430 565 480 472 480 354 c 257
 480 0 l 257
 520 0 l 257
 520 355 l 257
 520 454 479 605 317 605 c 257
 317 565 l 257
40 204 m 257
 80 306 l 256
 82 443 149 565 263 565 c 257
 263 605 l 257
 125 605 40 469 40 302 c 257
 40 204 l 257
480 325 m 257
 520 326 l 257
 520 454 533 565 617 565 c 257
 617 605 l 257
 486 605 480 440 480 325 c 257
EndSplineSet
EndChar

StartChar: tml_Sa
Encoding: 143 3000 142
GlifName: tml_S_a
Width: 1167
VWidth: 0
GlyphClass: 2
Flags: W
HStem: 0 122 237 123 484 121
VStem: 41 171 41 131 41 124 313 123 762 122 1021 122
AnchorPoint: "tml_virama" 531 0 basechar 0
LayerCount: 2
Back
Fore
SplineSet
707 566 m 257
 803 566 802 458 802 397 c 258
 802 107 l 258
 802 49 861 0 924 0 c 257
 924 40 l 257
 882 40 843 72 843 109 c 258
 843 405 l 258
 843 507 819 606 707 606 c 257
 707 566 l 257
978 0 m 257
 1088 0 1144 82 1144 167 c 258
 1144 426 l 258
 1144 543 1091 597 971 596 c 257
 971 556 l 257
 1096 556 1104 490 1104 424 c 257
 1104 167 l 257
 1104 116 1075 40 978 40 c 257
 978 0 l 257
76 172 m 258
 76 88 140 0 228 0 c 256
 228 40 l 257
 178 40 115 91 115 181 c 256
 115 295 191 319 228 319 c 256
 228 359 l 257
 152 359 76 300 76 196 c 258
 76 172 l 258
283 0 m 257
 355 0 420 75 419 173 c 258
 419 196 l 258
 419 292 356 359 283 359 c 256
 283 319 l 257
 325 319 377 282 377 183 c 256
 377 88 327 40 283 40 c 257
 283 0 l 257
353 565 m 257
 466 565 516 472 516 354 c 257
 516 0 l 257
 556 0 l 257
 556 355 l 257
 556 454 515 605 353 605 c 257
 353 565 l 257
76 204 m 257
 116 306 l 256
 118 443 185 565 299 565 c 257
 299 605 l 257
 161 605 76 469 76 302 c 257
 76 204 l 257
516 325 m 257
 556 326 l 257
 556 454 569 565 653 565 c 257
 653 605 l 257
 522 605 516 440 516 325 c 257
EndSplineSet
PickledDataWithLists: "(dp1
S'com.fontlab.hintData'
p2
(dp3
S'vhints'
p4
(lp5
(dp6
S'position'
p7
I41
sS'width'
p8
I171
sa(dp9
g7
I41
sg8
I131
sa(dp10
g7
I41
sg8
I124
sa(dp11
g7
I313
sg8
I123
sa(dp12
g7
I762
sg8
I122
sa(dp13
g7
I1021
sg8
I122
sasS'hhints'
p14
(lp15
(dp16
g7
I0
sg8
I122
sa(dp17
g7
I237
sg8
I123
sa(dp18
g7
I484
sg8
I121
sass."
EndChar

StartChar: tml_ShI
Encoding: 145 -1 144
GlifName: tml_S_hI_
Width: 982
VWidth: 0
GlyphClass: 2
Flags: W
LayerCount: 2
Back
Fore
SplineSet
40 132 m 258
 40 61 77 0 159 0 c 258
 164 0 l 257
 164 40 l 257
 115 40 80 63 80 136 c 258
 80 595 l 256
 40 595 l 257
 40 132 l 258
218 0 m 257
 223 0 l 258
 310 0 343 80 343 126 c 257
 343 582 l 257
 303 582 l 257
 303 130 l 257
 303 71 265 40 218 40 c 257
 218 0 l 257
467 132 m 258
 467 49 512 0 585 0 c 258
 589 0 l 257
 589 40 l 257
 534 40 507 72 507 136 c 258
 507 595 l 256
 467 595 l 257
 467 132 l 258
643 0 m 257
 646 0 l 258
 721 0 768 63 768 128 c 257
 768 582 l 257
 728 582 l 257
 728 132 l 257
 728 73 690 40 643 40 c 257
 643 0 l 257
627 593 m 257
 667 593 l 256
 667 654 678 721 758 721 c 256
 758 721 l 256
 758 761 l 257
 758 761 l 256
 664 761 627 697 627 593 c 257
 627 593 l 257
812 721 m 257
 898 721 902 654 902 592 c 258
 902 2 l 257
 942 2 l 257
 942 595 l 258
 942 697 909 761 812 761 c 257
 812 721 l 257
303 555 m 257
 768 555 l 257
 768 595 l 257
 303 595 l 257
 303 555 l 257
EndSplineSet
EndChar

StartChar: tml_ShIi
Encoding: 146 -1 145
GlifName: tml_S_hI_i
Width: 1013
VWidth: 0
GlyphClass: 2
Flags: W
LayerCount: 2
Back
Fore
SplineSet
821 896 m 257
 878 896 933 858 933 808 c 256
 933 749 895 729 865 729 c 256
 829 729 803 756 803 772 c 256
 775 739 l 257
 787 716 821 689 866 689 c 256
 1013 689 1021 936 820 936 c 257
 622 936 541 674 734 566 c 257
 768 595 l 257
 614 657 637 896 821 896 c 257
40 132 m 258
 40 61 77 0 159 0 c 258
 164 0 l 257
 164 40 l 257
 115 40 80 63 80 136 c 258
 80 595 l 256
 40 595 l 257
 40 132 l 258
218 0 m 257
 223 0 l 258
 310 0 343 80 343 126 c 257
 343 582 l 257
 303 582 l 257
 303 130 l 257
 303 71 265 40 218 40 c 257
 218 0 l 257
467 132 m 258
 467 49 512 0 585 0 c 258
 589 0 l 257
 589 40 l 257
 534 40 507 72 507 136 c 258
 507 595 l 256
 467 595 l 257
 467 132 l 258
643 0 m 257
 646 0 l 258
 721 0 768 63 768 128 c 257
 768 582 l 257
 728 582 l 257
 728 132 l 257
 728 73 690 40 643 40 c 257
 643 0 l 257
303 555 m 257
 768 555 l 257
 768 595 l 257
 303 595 l 257
 303 555 l 257
EndSplineSet
EndChar

StartChar: tml_ShU
Encoding: 147 -1 146
GlifName: tml_S_hU_
Width: 1217
VWidth: 0
GlyphClass: 2
Flags: W
LayerCount: 2
Back
Fore
SplineSet
728 555 m 257
 1008 555 l 258
 1105 555 1137 524 1137 469 c 256
 1137 451 1118 397 1063 397 c 256
 1004 397 987 450 987 470 c 256
 947 470 l 257
 947 420 989 357 1058 357 c 258
 1070 357 l 258
 1125 357 1177 411 1177 470 c 258
 1177 477 l 258
 1177 544 1127 595 1012 595 c 258
 728 595 l 257
 728 555 l 257
40 132 m 258
 40 61 77 0 159 0 c 258
 164 0 l 257
 164 40 l 257
 115 40 80 63 80 136 c 258
 80 595 l 256
 40 595 l 257
 40 132 l 258
218 0 m 257
 223 0 l 258
 310 0 343 80 343 126 c 257
 343 582 l 257
 303 582 l 257
 303 130 l 257
 303 71 265 40 218 40 c 257
 218 0 l 257
467 132 m 258
 467 49 512 0 585 0 c 258
 589 0 l 257
 589 40 l 257
 534 40 507 72 507 136 c 258
 507 595 l 256
 467 595 l 257
 467 132 l 258
643 0 m 257
 646 0 l 258
 721 0 768 63 768 128 c 257
 768 582 l 257
 728 582 l 257
 728 132 l 257
 728 73 690 40 643 40 c 257
 643 0 l 257
303 555 m 257
 768 555 l 257
 768 595 l 257
 303 595 l 257
 303 555 l 257
EndSplineSet
EndChar

StartChar: tml_ShUu
Encoding: 148 -1 147
GlifName: tml_S_hU_u
Width: 1322
VWidth: 0
GlyphClass: 2
Flags: W
LayerCount: 2
Back
Fore
SplineSet
728 555 m 257
 962 555 l 258
 1059 555 1091 524 1091 469 c 256
 1091 451 1072 397 1017 397 c 256
 958 397 941 450 941 470 c 256
 901 470 l 257
 901 420 943 357 1012 357 c 258
 1024 357 l 258
 1079 357 1131 411 1131 470 c 258
 1131 477 l 258
 1131 544 1081 595 966 595 c 258
 728 595 l 257
 728 555 l 257
898 592 m 256
 938 592 l 257
 938 694 983 752 1090 752 c 256
 1200 752 1242 693 1242 636 c 258
 1242 312 l 258
 1242 230 1190 227 1144 227 c 258
 1085 227 l 256
 1085 187 l 256
 1144 187 l 258
 1245 187 1282 234 1282 312 c 258
 1282 636 l 258
 1282 741 1193 792 1090 792 c 256
 975 792 898 734 898 592 c 256
40 132 m 258
 40 61 77 0 159 0 c 258
 164 0 l 257
 164 40 l 257
 115 40 80 63 80 136 c 258
 80 595 l 256
 40 595 l 257
 40 132 l 258
218 0 m 257
 223 0 l 258
 310 0 343 80 343 126 c 257
 343 582 l 257
 303 582 l 257
 303 130 l 257
 303 71 265 40 218 40 c 257
 218 0 l 257
467 132 m 258
 467 49 512 0 585 0 c 258
 589 0 l 257
 589 40 l 257
 534 40 507 72 507 136 c 258
 507 595 l 256
 467 595 l 257
 467 132 l 258
643 0 m 257
 646 0 l 258
 721 0 768 63 768 128 c 257
 768 582 l 257
 728 582 l 257
 728 132 l 257
 728 73 690 40 643 40 c 257
 643 0 l 257
303 555 m 257
 768 555 l 257
 768 595 l 257
 303 595 l 257
 303 555 l 257
EndSplineSet
EndChar

StartChar: tml_Sha
Encoding: 149 2998 148
GlifName: tml_S_ha
Width: 852
VWidth: 0
GlyphClass: 2
Flags: W
AnchorPoint: "tml_virama" 561 0 basechar 0
LayerCount: 2
Back
Fore
SplineSet
58 132 m 258
 58 61 95 0 177 0 c 258
 182 0 l 257
 182 40 l 257
 133 40 98 63 98 136 c 258
 98 595 l 256
 58 595 l 257
 58 132 l 258
236 0 m 257
 241 0 l 258
 328 0 361 80 361 126 c 257
 361 582 l 257
 321 582 l 257
 321 130 l 257
 321 71 283 40 236 40 c 257
 236 0 l 257
485 132 m 258
 485 49 530 0 603 0 c 258
 607 0 l 257
 607 40 l 257
 552 40 525 72 525 136 c 258
 525 595 l 256
 485 595 l 257
 485 132 l 258
661 0 m 257
 664 0 l 258
 739 0 786 63 786 128 c 257
 786 582 l 257
 746 582 l 257
 746 132 l 257
 746 73 708 40 661 40 c 257
 661 0 l 257
321 555 m 257
 786 555 l 257
 786 595 l 257
 321 595 l 257
 321 555 l 257
EndSplineSet
EndChar

StartChar: tml_Shree
Encoding: 150 -1 149
GlifName: tml_S_hree
Width: 1149
VWidth: 0
GlyphClass: 2
Flags: W
LayerCount: 2
Back
Fore
SplineSet
40 -256 m 257
 80 -256 l 257
 80 -155 104 -125 150 -125 c 258
 831 -125 l 258
 932 -123 984 -35 984 63 c 257
 983 473 l 257
 983 543 940 604 831 604 c 257
 797 604 744 591 708 560 c 257
 684 592 654 604 608 604 c 257
 608 564 l 257
 650 564 687 542 687 456 c 258
 689 0 l 257
 729 0 l 257
 727 457 l 258
 727 542 778 564 832 564 c 257
 869 564 941 558 941 458 c 257
 945 69 l 258
 946 -24 897 -85 830 -85 c 256
 746 -85 243 -85 156 -85 c 256
 76 -85 40 -136 40 -256 c 257
815 572 m 257
 857 572 l 257
 857 595 l 256
 782 753 880 861 962 861 c 257
 1060 861 1068 794 1068 779 c 256
 1068 720 1019 704 996 704 c 256
 971 704 937 727 937 743 c 256
 911 712 l 257
 921 691 955 664 993 664 c 256
 1156 664 1146 901 972 901 c 256
 836 901 741 755 815 596 c 256
 815 572 l 257
440 0 m 257
 481 0 l 257
 479 472 l 258
 479 501 492 564 554 564 c 257
 554 604 l 257
 471 604 440 527 440 477 c 258
 440 0 l 257
80 24 m 257
 120 24 l 257
 120 595 l 257
 80 595 l 257
 80 24 l 257
80 0 m 257
 252 0 l 257
 252 40 l 257
 80 40 l 257
 80 0 l 257
308 0 m 257
 479 0 l 257
 479 40 l 257
 308 40 l 257
 308 0 l 257
EndSplineSet
EndChar

StartChar: tml_Six
Encoding: 151 3052 150
GlifName: tml_S_ix
Width: 1037
VWidth: 0
GlyphClass: 2
Flags: W
LayerCount: 2
Back
Fore
SplineSet
40 172 m 258
 40 128 57 0 230 -1 c 257
 230 39 l 257
 168 39 80 58 80 188 c 256
 80 313 184 331 239 331 c 258
 997 331 l 257
 997 371 l 257
 246 371 l 258
 72 371 40 259 40 196 c 258
 40 172 l 258
283 -1 m 257
 420 -1 463 95 463 191 c 258
 463 588 l 257
 423 588 l 257
 423 187 l 258
 423 98 378 39 283 39 c 257
 283 -1 l 257
165 348 m 257
 205 348 l 257
 206 586 l 257
 165 586 l 257
 165 348 l 257
165 555 m 257
 288 555 l 257
 288 595 l 257
 165 595 l 257
 165 555 l 257
342 555 m 257
 610 555 l 257
 610 595 l 257
 342 595 l 257
 342 555 l 257
695 2 m 257
 735 2 l 257
 736 342 l 257
 695 342 l 257
 695 2 l 257
900 2 m 257
 940 2 l 257
 941 342 l 257
 900 342 l 257
 900 2 l 257
EndSplineSet
EndChar

StartChar: tml_SsI
Encoding: 152 -1 151
GlifName: tml_S_sI_
Width: 1306
VWidth: 0
GlyphClass: 2
Flags: W
LayerCount: 2
Back
Fore
SplineSet
830 567 m 257
 897 567 956 557 956 413 c 258
 956 123 l 257
 996 123 l 257
 996 413 l 258
 996 561 948 607 830 607 c 257
 718 607 661 570 661 433 c 258
 661 334 l 258
 661 191 721 158 803 158 c 257
 803 197 l 257
 767 197 701 201 701 317 c 258
 701 435 l 258
 701 570 784 567 830 567 c 257
314 565 m 257
 431 565 489 473 490 354 c 257
 490 76 l 258
 490 40 484 40 417 40 c 257
 417 0 l 257
 802 0 l 257
 802 40 l 257
 531 40 l 257
 531 355 l 257
 530 466 476 605 314 605 c 257
 314 565 l 257
40 172 m 258
 40 88 104 0 192 0 c 256
 192 40 l 257
 142 40 79 91 79 181 c 256
 79 295 155 319 192 319 c 256
 192 359 l 257
 116 359 40 300 40 196 c 258
 40 172 l 258
247 0 m 257
 319 0 384 75 383 173 c 258
 383 196 l 258
 383 292 320 359 247 359 c 256
 247 319 l 257
 289 319 341 282 341 183 c 256
 341 88 291 40 247 40 c 257
 247 0 l 257
812 600 m 257
 852 600 l 256
 852 661 873 739 1004 739 c 256
 1004 739 l 256
 1004 779 l 257
 1004 779 l 256
 864 779 812 704 812 600 c 257
 812 600 l 257
1059 739 m 257
 1196 739 1226 664 1226 599 c 258
 1226 2 l 257
 1266 2 l 257
 1266 602 l 258
 1266 703 1204 779 1059 779 c 257
 1059 739 l 257
40 204 m 257
 80 306 l 256
 82 443 149 565 263 565 c 257
 263 605 l 257
 125 605 40 469 40 302 c 257
 40 204 l 257
956 83 m 257
 956 -178 l 257
 996 -178 l 257
 996 83 l 257
 956 83 l 257
856 1 m 257
 1132 0 l 257
 1132 41 l 257
 856 41 l 257
 856 1 l 257
856 158 m 257
 1132 158 l 257
 1132 198 l 256
 856 198 l 257
 856 158 l 257
1092 0 m 257
 1132 0 l 257
 1132 198 l 257
 1092 198 l 257
 1092 0 l 257
EndSplineSet
EndChar

StartChar: tml_SsIi
Encoding: 153 -1 152
GlifName: tml_S_sI_i
Width: 1172
VWidth: 0
GlyphClass: 2
Flags: W
LayerCount: 2
Back
Fore
SplineSet
830 567 m 257
 897 567 956 557 956 413 c 258
 956 123 l 257
 996 123 l 257
 996 413 l 258
 996 561 948 607 830 607 c 257
 718 607 661 570 661 433 c 258
 661 334 l 258
 661 191 721 158 803 158 c 257
 803 197 l 257
 767 197 701 201 701 317 c 258
 701 435 l 258
 701 570 784 567 830 567 c 257
815 579 m 257
 857 579 l 257
 857 602 l 256
 782 760 880 868 962 868 c 257
 1060 868 1068 801 1068 786 c 256
 1068 727 1019 711 996 711 c 256
 971 711 937 734 937 750 c 256
 911 719 l 257
 921 698 955 671 993 671 c 256
 1156 671 1146 908 972 908 c 256
 836 908 741 762 815 603 c 256
 815 579 l 257
314 565 m 257
 431 565 489 473 490 354 c 257
 490 76 l 258
 490 40 484 40 417 40 c 257
 417 0 l 257
 802 0 l 257
 802 40 l 257
 531 40 l 257
 531 355 l 257
 530 466 476 605 314 605 c 257
 314 565 l 257
40 172 m 258
 40 88 104 0 192 0 c 256
 192 40 l 257
 142 40 79 91 79 181 c 256
 79 295 155 319 192 319 c 256
 192 359 l 257
 116 359 40 300 40 196 c 258
 40 172 l 258
247 0 m 257
 319 0 384 75 383 173 c 258
 383 196 l 258
 383 292 320 359 247 359 c 256
 247 319 l 257
 289 319 341 282 341 183 c 256
 341 88 291 40 247 40 c 257
 247 0 l 257
40 204 m 257
 80 306 l 256
 82 443 149 565 263 565 c 257
 263 605 l 257
 125 605 40 469 40 302 c 257
 40 204 l 257
956 83 m 257
 956 -178 l 257
 996 -178 l 257
 996 83 l 257
 956 83 l 257
856 1 m 257
 1132 0 l 257
 1132 41 l 257
 856 41 l 257
 856 1 l 257
856 158 m 257
 1132 158 l 257
 1132 198 l 256
 856 198 l 257
 856 158 l 257
1092 0 m 257
 1132 0 l 257
 1132 198 l 257
 1092 198 l 257
 1092 0 l 257
EndSplineSet
EndChar

StartChar: tml_SsU
Encoding: 154 -1 153
GlifName: tml_S_sU_
Width: 1382
VWidth: 0
GlyphClass: 2
Flags: W
LayerCount: 2
Back
Fore
SplineSet
856 567 m 257
 1173 567 l 258
 1270 567 1302 536 1302 481 c 256
 1302 463 1283 409 1228 409 c 256
 1169 409 1152 462 1152 482 c 256
 1112 482 l 257
 1112 432 1154 369 1223 369 c 258
 1235 369 l 258
 1290 369 1342 423 1342 482 c 258
 1342 489 l 258
 1342 556 1292 607 1177 607 c 258
 856 607 l 257
 856 567 l 257
247 0 m 257
 319 0 384 75 383 173 c 258
 383 196 l 258
 383 292 320 359 247 359 c 256
 247 319 l 257
 289 319 341 282 341 183 c 256
 341 88 291 40 247 40 c 257
 247 0 l 257
40 172 m 258
 40 88 104 0 192 0 c 256
 192 40 l 257
 142 40 79 91 79 181 c 256
 79 295 155 319 192 319 c 256
 192 359 l 257
 116 359 40 300 40 196 c 258
 40 172 l 258
40 204 m 257
 80 306 l 256
 82 443 149 565 263 565 c 257
 263 605 l 257
 125 605 40 469 40 302 c 257
 40 204 l 257
314 565 m 257
 431 565 489 473 490 354 c 257
 490 76 l 258
 490 40 484 40 417 40 c 257
 417 0 l 257
 802 0 l 257
 802 40 l 257
 531 40 l 257
 531 355 l 257
 530 466 476 605 314 605 c 257
 314 565 l 257
856 567 m 257
 896 567 956 557 956 413 c 258
 956 123 l 257
 996 123 l 257
 996 413 l 258
 996 561 936 607 856 607 c 257
 856 567 l 257
956 83 m 257
 956 -178 l 257
 996 -178 l 257
 996 83 l 257
 956 83 l 257
856 158 m 257
 1132 158 l 257
 1132 198 l 256
 856 198 l 257
 856 158 l 257
661 334 m 258
 661 191 721 158 803 158 c 257
 803 197 l 257
 767 197 701 201 701 317 c 258
 701 435 l 258
 701 570 770 567 803 567 c 257
 803 607 l 257
 721 607 661 570 661 433 c 258
 661 334 l 258
1092 0 m 257
 1132 0 l 257
 1132 198 l 257
 1092 198 l 257
 1092 0 l 257
856 1 m 257
 1132 0 l 257
 1132 41 l 257
 856 41 l 257
 856 1 l 257
EndSplineSet
EndChar

StartChar: tml_SsUu
Encoding: 155 -1 154
GlifName: tml_S_sU_u
Width: 1530
VWidth: 0
GlyphClass: 2
Flags: W
LayerCount: 2
Back
Fore
SplineSet
856 568 m 257
 1170 568 l 258
 1267 568 1299 537 1299 482 c 256
 1299 464 1280 410 1225 410 c 256
 1166 410 1149 463 1149 483 c 256
 1109 483 l 257
 1109 433 1151 370 1220 370 c 258
 1232 370 l 258
 1287 370 1339 424 1339 483 c 258
 1339 490 l 258
 1339 557 1289 608 1174 608 c 258
 856 608 l 257
 856 568 l 257
1106 605 m 256
 1146 605 l 257
 1146 707 1191 765 1298 765 c 256
 1408 765 1450 706 1450 649 c 258
 1450 325 l 258
 1450 243 1398 240 1352 240 c 258
 1293 240 l 256
 1293 200 l 256
 1352 200 l 258
 1453 200 1490 247 1490 325 c 258
 1490 649 l 258
 1490 754 1401 805 1298 805 c 256
 1183 805 1106 747 1106 605 c 256
314 565 m 257
 431 565 489 473 490 354 c 257
 490 76 l 258
 490 40 484 40 417 40 c 257
 417 0 l 257
 802 0 l 257
 802 40 l 257
 531 40 l 257
 531 355 l 257
 530 466 476 605 314 605 c 257
 314 565 l 257
661 334 m 258
 661 191 721 158 803 158 c 257
 803 197 l 257
 767 197 701 201 701 317 c 258
 701 435 l 258
 701 570 770 567 803 567 c 257
 803 607 l 257
 721 607 661 570 661 433 c 258
 661 334 l 258
40 172 m 258
 40 88 104 0 192 0 c 256
 192 40 l 257
 142 40 79 91 79 181 c 256
 79 295 155 319 192 319 c 256
 192 359 l 257
 116 359 40 300 40 196 c 258
 40 172 l 258
247 0 m 257
 319 0 384 75 383 173 c 258
 383 196 l 258
 383 292 320 359 247 359 c 256
 247 319 l 257
 289 319 341 282 341 183 c 256
 341 88 291 40 247 40 c 257
 247 0 l 257
856 567 m 257
 896 567 956 557 956 413 c 258
 956 123 l 257
 996 123 l 257
 996 413 l 258
 996 561 936 607 856 607 c 257
 856 567 l 257
40 204 m 257
 80 306 l 256
 82 443 149 565 263 565 c 257
 263 605 l 257
 125 605 40 469 40 302 c 257
 40 204 l 257
956 83 m 257
 956 -178 l 257
 996 -178 l 257
 996 83 l 257
 956 83 l 257
856 1 m 257
 1132 0 l 257
 1132 41 l 257
 856 41 l 257
 856 1 l 257
856 158 m 257
 1132 158 l 257
 1132 198 l 256
 856 198 l 257
 856 158 l 257
1092 0 m 257
 1132 0 l 257
 1132 198 l 257
 1092 198 l 257
 1092 0 l 257
EndSplineSet
EndChar

StartChar: tml_Ssa
Encoding: 156 2999 155
GlifName: tml_S_sa
Width: 1258
VWidth: 0
GlyphClass: 2
Flags: W
HStem: 0 123<956 1132> 237 123 483 122
VStem: 40 172 40 125 314 122 487 121 669 123 962 122
AnchorPoint: "tml_virama" 621 0 basechar 0
LayerCount: 2
Back
Fore
SplineSet
247 0 m 257
 319 0 384 75 383 173 c 258
 383 196 l 258
 383 292 320 359 247 359 c 256
 247 319 l 257
 289 319 341 282 341 183 c 256
 341 88 291 40 247 40 c 257
 247 0 l 257
40 172 m 258
 40 88 104 0 192 0 c 256
 192 40 l 257
 142 40 79 91 79 181 c 256
 79 295 155 319 192 319 c 256
 192 359 l 257
 116 359 40 300 40 196 c 258
 40 172 l 258
40 204 m 257
 80 306 l 256
 82 443 149 565 263 565 c 257
 263 605 l 257
 125 605 40 469 40 302 c 257
 40 204 l 257
314 565 m 257
 431 565 489 473 490 354 c 257
 490 76 l 258
 490 40 484 40 417 40 c 257
 417 0 l 257
 802 0 l 257
 802 40 l 257
 531 40 l 257
 531 355 l 257
 530 466 476 605 314 605 c 257
 314 565 l 257
856 567 m 257
 896 567 956 557 956 413 c 258
 956 123 l 257
 996 123 l 257
 996 413 l 258
 996 561 936 607 856 607 c 257
 856 567 l 257
956 83 m 257
 956 -178 l 257
 996 -178 l 257
 996 83 l 257
 956 83 l 257
856 158 m 257
 1132 158 l 257
 1132 198 l 256
 856 198 l 257
 856 158 l 257
661 334 m 258
 661 191 721 158 803 158 c 257
 803 197 l 257
 767 197 701 201 701 317 c 258
 701 435 l 258
 701 570 770 567 803 567 c 257
 803 607 l 257
 721 607 661 570 661 433 c 258
 661 334 l 258
1092 0 m 257
 1132 0 l 257
 1132 198 l 257
 1092 198 l 257
 1092 0 l 257
856 1 m 257
 1132 0 l 257
 1132 41 l 257
 856 41 l 257
 856 1 l 257
EndSplineSet
PickledDataWithLists: "(dp1
S'com.fontlab.hintData'
p2
(dp3
S'vhints'
p4
(lp5
(dp6
S'position'
p7
I40
sS'width'
p8
I172
sa(dp9
g7
I40
sg8
I125
sa(dp10
g7
I314
sg8
I122
sa(dp11
g7
I487
sg8
I121
sa(dp12
g7
I669
sg8
I123
sa(dp13
g7
I962
sg8
I122
sasS'hhints'
p14
(lp15
(dp16
g7
I0
sg8
I123
sa(dp17
g7
I237
sg8
I123
sa(dp18
g7
I483
sg8
I122
sass."
EndChar

StartChar: tml_TI
Encoding: 157 -1 156
GlifName: tml_T_I_
Width: 864
VWidth: 0
GlyphClass: 2
Flags: W
LayerCount: 2
Back
Fore
SplineSet
644 727 m 257
 781 727 784 640 784 591 c 258
 784 -2 l 257
 824 -2 l 257
 824 594 l 258
 824 697 779 767 644 767 c 257
 644 727 l 257
423 592 m 257
 463 592 l 256
 463 653 475 727 590 727 c 256
 590 727 l 256
 590 767 l 257
 590 767 l 256
 466 767 423 696 423 592 c 257
 423 592 l 257
EndSplineSet
Refer: 162 2980 N 1 0 0 1 0 0 2
EndChar

StartChar: tml_TI.alt
Encoding: 158 -1 157
GlifName: tml_T_I_.alt
Width: 868
VWidth: 0
GlyphClass: 2
Flags: W
LayerCount: 2
Back
Fore
SplineSet
420 809 m 257
 166 809 -1 602 100 304 c 257
 133 338 l 257
 47 641 252 771 420 770 c 257
 420 770 l 256
 420 809 l 257
 420 809 l 257
474 770 m 257
 576 770 787 736 787 426 c 258
 787 68 l 257
 828 68 l 257
 828 429 l 258
 827 709 674 809 474 809 c 257
 474 770 l 257
EndSplineSet
Refer: 162 2980 N 1 0 0 1 0 0 2
EndChar

StartChar: tml_TIi
Encoding: 159 -1 158
GlifName: tml_T_I_i
Width: 757
VWidth: 0
GlyphClass: 2
Flags: W
LayerCount: 2
Back
Fore
SplineSet
423 471 m 257
 463 471 l 257
 463 593 l 256
 388 751 488 859 570 859 c 257
 668 859 676 792 676 777 c 256
 676 718 627 702 604 702 c 256
 579 702 545 725 545 741 c 256
 519 710 l 257
 529 689 563 662 601 662 c 256
 764 662 754 899 580 899 c 256
 444 899 349 753 423 594 c 256
 423 471 l 257
EndSplineSet
Refer: 162 2980 N 1 0 0 1 0 0 2
EndChar

StartChar: tml_TIi.alt
Encoding: 160 -1 159
GlifName: tml_T_I_i.alt
Width: 732
VWidth: 0
GlyphClass: 2
Flags: W
LayerCount: 2
Back
Fore
SplineSet
89 315 m 257
 121 346 l 257
 63 563 112 757 245 823 c 256
 308 854 448 886 565 850 c 257
 620 835 663 784 650 736 c 256
 635 679 590 671 564 678 c 256
 540 684 511 720 515 735 c 256
 479 711 l 257
 485 685 511 650 554 638 c 256
 634 617 692 681 693 752 c 256
 693 806 659 864 575 889 c 257
 463 920 328 911 222 855 c 256
 63 771 19 541 89 315 c 257
EndSplineSet
Refer: 162 2980 N 1 0 0 1 0 0 2
EndChar

StartChar: tml_TU
Encoding: 161 -1 160
GlifName: tml_T_U_
Width: 844
VWidth: 0
GlyphClass: 2
Flags: W
HStem: -258 94 -121 277 -121 93 2 123 252 122 351 23<197.5 215 215 215>
VStem: 10 121 582 122 744 122
LayerCount: 2
Back
Fore
SplineSet
366 -234 m 257
 488 -234 l 258
 641 -234 661 -122 661 -56 c 258
 661 156 l 257
 621 156 l 257
 621 -56 l 258
 621 -161 567 -194 487 -194 c 258
 366 -194 l 257
 366 -234 l 257
39 -136 m 258
 39 -154 l 258
 39 -192 86 -234 149 -234 c 258
 312 -234 l 257
 312 -194 l 257
 156 -194 l 258
 55 -194 55 -97 143 -97 c 258
 784 -97 l 257
 784 582 l 256
 744 582 l 256
 744 -57 l 257
 143 -57 l 258
 83 -57 39 -92 39 -136 c 258
50 155 m 257
 50 65 99 2 234 2 c 257
 234 42 l 257
 179 42 95 46 90 155 c 257
 50 155 l 257
246 374 m 258
 149 374 50 330 50 210 c 257
 88 210 l 257
 88 314 191 334 236 334 c 258
 503 333 l 258
 549 333 621 335 621 210 c 257
 661 210 l 257
 661 353 581 374 491 374 c 257
 246 374 l 258
288 2 m 257
 424 2 468 98 468 194 c 258
 468 591 l 257
 428 591 l 257
 428 190 l 258
 428 86 369 42 288 42 c 257
 288 2 l 257
175 351 m 257
 215 351 l 257
 216 589 l 257
 175 589 l 257
 175 351 l 257
348 555 m 257
 601 555 l 257
 601 595 l 257
 348 595 l 257
 348 555 l 257
175 555 m 257
 294 555 l 257
 294 595 l 257
 175 595 l 257
 175 555 l 257
EndSplineSet
PickledDataWithLists: "(dp1
S'com.fontlab.hintData'
p2
(dp3
S'vhints'
p4
(lp5
(dp6
S'position'
p7
I10
sS'width'
p8
I121
sa(dp9
g7
I582
sg8
I122
sa(dp10
g7
I744
sg8
I122
sasS'hhints'
p11
(lp12
(dp13
g7
I-258
sg8
I94
sa(dp14
g7
I-121
sg8
I277
sa(dp15
g7
I-121
sg8
I93
sa(dp16
g7
I2
sg8
I123
sa(dp17
g7
I252
sg8
I122
sa(dp18
g7
I351
sg8
I23
sass."
EndChar

StartChar: tml_TUu
Encoding: 162 -1 161
GlifName: tml_T_U_u
Width: 1193
VWidth: 0
GlyphClass: 2
Flags: W
HStem: -200 122 0 21 111 122 495 122 693 123
VStem: 2 123 254 122 370 6 512 124 595 122
LayerCount: 2
Back
Fore
SplineSet
990 -90 m 257
 1030 -90 l 257
 1030 593 l 257
 990 593 l 257
 990 -90 l 257
895 555 m 257
 1114 555 l 257
 1114 595 l 257
 895 595 l 257
 895 555 l 257
706 555 m 257
 841 555 l 257
 841 595 l 257
 706 595 l 257
 706 555 l 257
EndSplineSet
Refer: 160 -1 N 1 0 0 1 -38 0 2
PickledDataWithLists: "(dp1
S'com.fontlab.hintData'
p2
(dp3
S'vhints'
p4
(lp5
(dp6
S'position'
p7
I2
sS'width'
p8
I123
sa(dp9
g7
I254
sg8
I122
sa(dp10
g7
I370
sg8
I6
sa(dp11
g7
I512
sg8
I124
sa(dp12
g7
I595
sg8
I122
sasS'hhints'
p13
(lp14
(dp15
g7
I-200
sg8
I122
sa(dp16
g7
I0
sg8
I21
sa(dp17
g7
I111
sg8
I122
sa(dp18
g7
I495
sg8
I122
sa(dp19
g7
I693
sg8
I123
sass."
EndChar

StartChar: tml_Ta
Encoding: 163 2980 162
GlifName: tml_T_a
Width: 695
VWidth: 0
GlyphClass: 2
Flags: W
HStem: -158 122 2 123 251 123 351 23<187.5 206 206 206>
VStem: 0 123 91 128 572 122
AnchorPoint: "tml_virama" 351 0 basechar 0
LayerCount: 2
Back
Fore
SplineSet
71 -256 m 257
 111 -256 l 257
 111 -154 132 -125 177 -125 c 258
 422 -125 l 258
 575 -125 655 -36 655 57 c 258
 655 151 l 257
 615 151 l 257
 615 59 l 258
 615 -18 548 -85 421 -85 c 258
 185 -85 l 258
 120 -85 71 -112 71 -256 c 257
40 165 m 257
 40 72 98 2 231 2 c 257
 231 42 l 257
 175 42 86 54 80 165 c 257
 40 165 l 257
40 205 m 257
 78 205 l 257
 78 309 181 334 226 334 c 258
 498 334 l 258
 544 334 615 334 615 205 c 257
 655 205 l 257
 655 352 576 374 486 374 c 257
 236 374 l 258
 139 374 40 325 40 205 c 257
284 2 m 257
 420 2 463 98 463 194 c 258
 463 591 l 257
 423 591 l 257
 423 190 l 258
 423 89 371 42 284 42 c 257
 284 2 l 257
165 351 m 257
 206 351 l 257
 206 589 l 257
 165 589 l 257
 165 351 l 257
342 555 m 257
 595 555 l 257
 595 595 l 257
 342 595 l 257
 342 555 l 257
165 555 m 257
 288 555 l 257
 288 595 l 257
 165 595 l 257
 165 555 l 257
EndSplineSet
PickledDataWithLists: "(dp1
S'com.fontlab.hintData'
p2
(dp3
S'vhints'
p4
(lp5
(dp6
S'position'
p7
I0
sS'width'
p8
I123
sa(dp9
g7
I91
sg8
I128
sa(dp10
g7
I572
sg8
I122
sasS'hhints'
p11
(lp12
(dp13
g7
I-158
sg8
I122
sa(dp14
g7
I2
sg8
I123
sa(dp15
g7
I251
sg8
I123
sa(dp16
g7
I351
sg8
I23
sass."
EndChar

StartChar: tml_Ten
Encoding: 164 3056 163
GlifName: tml_T_en
Width: 630
VWidth: 0
GlyphClass: 2
Flags: W
LayerCount: 2
Back
Fore
SplineSet
440 729 m 257
 550 580 l 257
 590 595 l 257
 489 729 l 257
 440 729 l 257
469 0 m 257
 567 0 590 97 590 145 c 258
 590 595 l 257
 550 595 l 257
 550 155 l 258
 550 92 525 40 469 40 c 257
 469 0 l 257
40 146 m 258
 40 51 97 0 155 0 c 257
 155 40 l 257
 136 40 80 53 80 146 c 258
 80 595 l 257
 40 595 l 257
 40 146 l 258
209 0 m 257
 249 0 279 0 313 42 c 257
 345 0 382 0 415 0 c 257
 415 40 l 257
 392 40 334 37 334 151 c 258
 334 595 l 257
 294 595 l 257
 294 151 l 258
 294 37 234 40 209 40 c 257
 209 0 l 257
EndSplineSet
EndChar

StartChar: tml_Thousand
Encoding: 165 3058 164
GlifName: tml_T_housand
Width: 1058
VWidth: 0
GlyphClass: 2
Flags: W
LayerCount: 2
Back
Fore
SplineSet
655 -61 m 256
 747 -61 791 6 791 96 c 258
 791 350 l 257
 751 350 l 257
 751 100 l 258
 751 -7 691 -21 654 -21 c 256
 640 -21 569 -12 569 65 c 256
 569 139 629 153 655 153 c 256
 655 193 l 257
 569 193 529 128 529 69 c 256
 529 -3 577 -61 655 -61 c 256
591 -258 m 257
 631 -258 l 256
 633 -193 641 -178 700 -178 c 258
 821 -178 l 258
 926 -178 1018 -130 1018 16 c 256
 1018 148 927 204 817 204 c 256
 817 164 l 257
 883 164 978 140 978 16 c 256
 978 -121 883 -138 821 -138 c 258
 703 -138 l 258
 625 -138 591 -165 591 -258 c 257
40 172 m 258
 40 128 57 0 230 -1 c 257
 230 39 l 257
 168 39 80 58 80 188 c 256
 80 313 184 331 239 331 c 258
 919 331 l 257
 919 371 l 257
 246 371 l 258
 72 371 40 259 40 196 c 258
 40 172 l 258
283 -1 m 257
 420 -1 463 95 463 191 c 258
 463 588 l 257
 423 588 l 257
 423 187 l 258
 423 98 378 39 283 39 c 257
 283 -1 l 257
165 348 m 257
 205 348 l 257
 206 586 l 257
 165 586 l 257
 165 348 l 257
342 555 m 257
 610 555 l 257
 610 595 l 257
 342 595 l 257
 342 555 l 257
165 555 m 257
 288 555 l 257
 288 595 l 257
 165 595 l 257
 165 555 l 257
EndSplineSet
EndChar

StartChar: tml_Three
Encoding: 166 3049 165
GlifName: tml_T_hree
Width: 734
VWidth: 0
GlyphClass: 2
Flags: W
HStem: 0 122
VStem: 503 123
LayerCount: 2
Back
Fore
SplineSet
298 0 m 257
 640 0 l 257
 640 40 l 257
 298 40 l 257
 298 0 l 257
255 0 m 257
 417 0 l 258
 511 0 585 31 585 112 c 258
 585 230 l 258
 585 331 486 354 416 354 c 257
 416 314 l 256
 451 313 545 309 545 230 c 258
 545 120 l 258
 545 45 480 40 418 40 c 258
 255 40 l 257
 255 0 l 257
321 177 m 257
 361 177 l 257
 361 589 l 257
 321 589 l 257
 321 177 l 257
82 0 m 257
 122 0 l 257
 122 591 l 257
 82 591 l 257
 82 0 l 257
82 595 m 257
 83 555 l 257
 470 555 l 257
 470 595 l 257
 82 595 l 257
EndSplineSet
PickledDataWithLists: "(dp1
S'com.fontlab.hintData'
p2
(dp3
S'vhints'
p4
(lp5
(dp6
S'position'
p7
I503
sS'width'
p8
I123
sasS'hhints'
p9
(lp10
(dp11
g7
I0
sg8
I122
sass."
EndChar

StartChar: tml_TtI
Encoding: 167 -1 166
GlifName: tml_T_tI_
Width: 700
VWidth: 0
GlyphClass: 2
Flags: W
LayerCount: 2
Back
Fore
SplineSet
392 17 m 257
 452 28 l 257
 230 110 114 523 400 566 c 257
 400 606 l 257
 72 563 175 117 392 17 c 257
453 566 m 257
 491 566 543 530 543 447 c 258
 544 -199 l 257
 584 -199 l 257
 584 446 l 258
 584 540 525 606 453 606 c 257
 453 566 l 257
40 0 m 257
 660 0 l 257
 660 40 l 257
 40 40 l 257
 40 0 l 257
40 95 m 257
 80 95 l 257
 80 597 l 257
 40 596 l 257
 40 95 l 257
EndSplineSet
EndChar

StartChar: tml_TtIi
Encoding: 168 -1 167
GlifName: tml_T_tI_i
Width: 703
VWidth: 0
GlyphClass: 2
Flags: W
LayerCount: 2
Back
Fore
SplineSet
311 17 m 257
 375 22 l 257
 171 173 173 521 399 566 c 257
 468 580 539 529 539 443 c 256
 539 404 513 330 423 330 c 256
 398 330 352 354 345 392 c 256
 318 361 l 257
 325 338 372 289 435 289 c 256
 501 289 577 342 579 444 c 256
 581 542 512 613 401 606 c 256
 142 590 123 171 311 17 c 257
40 0 m 257
 663 0 l 257
 663 40 l 257
 40 40 l 257
 40 0 l 257
40 95 m 257
 80 95 l 257
 80 596 l 257
 40 596 l 257
 40 95 l 257
EndSplineSet
EndChar

StartChar: tml_TtU
Encoding: 169 -1 168
GlifName: tml_T_tU_
Width: 675
VWidth: 0
GlyphClass: 2
Flags: W
LayerCount: 2
Back
Fore
SplineSet
101 325 m 257
 61 325 l 256
 61 6 l 258
 61 -89 137 -165 219 -165 c 258
 317 -165 l 257
 317 -125 l 257
 235 -125 l 258
 143 -125 101 -52 101 5 c 258
 101 325 l 257
61 387 m 257
 101 387 l 256
 101 602 l 258
 101 689 151 736 225 736 c 257
 439 736 l 258
 523 736 576 684 576 611 c 258
 576 551 l 257
 616 551 l 256
 616 610 l 258
 616 723 526 776 440 776 c 258
 224 776 l 257
 139 776 61 722 61 606 c 258
 61 387 l 257
371 -125 m 256
 371 -165 l 257
 435 -165 l 258
 572 -165 621 -81 621 -3 c 258
 621 139 l 258
 621 202 601 261 494 261 c 258
 413 261 l 257
 413 221 l 256
 495 221 l 258
 577 221 581 168 581 139 c 258
 581 -2 l 258
 581 -65 542 -125 432 -125 c 258
 371 -125 l 256
318 0 m 257
 358 0 l 257
 358 593 l 257
 318 592 l 257
 318 0 l 257
EndSplineSet
EndChar

StartChar: tml_TtUu
Encoding: 170 -1 169
GlifName: tml_T_tU_u
Width: 725
VWidth: 0
GlyphClass: 2
Flags: W
HStem: -258 94 -121 277 -121 93 2 123 252 122 351 23 473 109 473 122
VStem: 11 121 583 122 745 179 745 122
LayerCount: 2
Back
Fore
SplineSet
40 320 m 258
 40 6 l 258
 40 -89 116 -165 198 -165 c 258
 294 -165 l 257
 294 -125 l 257
 214 -125 l 258
 122 -125 80 -52 80 5 c 258
 80 320 l 257
 80 320 39 320 40 320 c 258
80 377 m 258
 80 582 l 258
 80 669 141 736 215 736 c 257
 507 736 l 258
 615 736 636 698 636 649 c 256
 636 586 584 575 561 575 c 256
 539 575 486 587 486 650 c 256
 446 650 l 257
 446 585 489 535 553 535 c 258
 568 535 l 258
 623 535 676 574 676 650 c 258
 676 660 l 258
 676 721 633 776 504 776 c 258
 214 776 l 257
 129 776 40 702 40 586 c 258
 40 377 l 257
 40 377 81 377 80 377 c 258
348 -125 m 256
 348 -165 l 257
 412 -165 l 258
 549 -165 598 -81 598 -3 c 258
 598 225 l 258
 598 288 578 347 471 347 c 258
 320 347 l 257
 320 307 l 256
 472 307 l 258
 554 307 558 254 558 225 c 258
 558 -2 l 258
 558 -65 519 -125 409 -125 c 258
 348 -125 l 256
295 0 m 257
 335 0 l 257
 335 593 l 257
 295 592 l 257
 295 0 l 257
EndSplineSet
PickledDataWithLists: "(dp1
S'com.fontlab.hintData'
p2
(dp3
S'vhints'
p4
(lp5
(dp6
S'position'
p7
I11
sS'width'
p8
I121
sa(dp9
g7
I583
sg8
I122
sa(dp10
g7
I745
sg8
I179
sa(dp11
g7
I745
sg8
I122
sasS'hhints'
p12
(lp13
(dp14
g7
I-258
sg8
I94
sa(dp15
g7
I-121
sg8
I277
sa(dp16
g7
I-121
sg8
I93
sa(dp17
g7
I2
sg8
I123
sa(dp18
g7
I252
sg8
I122
sa(dp19
g7
I351
sg8
I23
sa(dp20
g7
I473
sg8
I109
sa(dp21
g7
I473
sg8
I122
sass."
EndChar

StartChar: tml_Tta
Encoding: 171 2975 170
GlifName: tml_T_ta
Width: 642
VWidth: 0
GlyphClass: 2
Flags: W
HStem: 0 122
VStem: 42 122
AnchorPoint: "tml_virama" 331 0 basechar 0
LayerCount: 2
Back
Fore
SplineSet
93 0 m 257
 571 0 l 257
 571 40 l 257
 93 40 l 257
 93 0 l 257
93 95 m 257
 134 95 l 257
 134 596 l 257
 93 596 l 257
 93 95 l 257
EndSplineSet
PickledDataWithLists: "(dp1
S'com.fontlab.hintData'
p2
(dp3
S'vhints'
p4
(lp5
(dp6
S'position'
p7
I42
sS'width'
p8
I122
sasS'hhints'
p9
(lp10
(dp11
g7
I0
sg8
I122
sass."
EndChar

StartChar: tml_Two
Encoding: 172 3048 171
GlifName: tml_T_wo
Width: 900
VWidth: 0
GlyphClass: 2
Flags: W
LayerCount: 2
Back
Fore
SplineSet
40 472 m 256
 40 345 136 285 228 285 c 256
 319 285 398 388 378 504 c 257
 337 504 l 257
 353 434 313 325 227 325 c 256
 132 325 80 391 80 473 c 256
 80 570 146 656 267 656 c 256
 363 656 484 592 484 430 c 257
 524 430 l 257
 524 598 412 696 267 696 c 256
 125 696 40 593 40 472 c 256
85 0 m 257
 860 0 l 257
 860 40 l 257
 85 40 l 257
 85 0 l 257
77 0 m 257
 107 0 l 257
 272 0 524 162 524 376 c 257
 484 376 l 257
 484 231 310 39 77 40 c 257
 77 0 l 257
EndSplineSet
EndChar

StartChar: tml_U
Encoding: 173 2953 172
GlifName: tml_U_
Width: 987
VWidth: 0
GlyphClass: 2
Flags: W
HStem: 0 122 141 122 545 159 583 84
VStem: 4 122 22 148 266 122 436 123
LayerCount: 2
Back
Fore
SplineSet
80 486 m 256
 86 578 152 656 267 656 c 256
 380 656 484 603 484 420 c 257
 524 420 l 257
 524 610 429 696 267 696 c 256
 130 696 40 600 40 486 c 256
 40 486 80 486 80 486 c 256
260 0 m 257
 963 0 l 257
 963 38 l 257
 260 38 l 257
 260 0 l 257
58 38 m 257
 58 5 67 0 117 0 c 258
 206 0 l 257
 206 38 l 257
 58 38 l 257
58 33 m 256
 101 33 l 256
 101 33 101 128 101 141 c 257
 335 142 l 258
 499 142 524 264 524 339 c 258
 524 376 l 257
 484 376 l 257
 484 339 l 258
 484 237 451 184 337 183 c 258
 112 183 l 258
 72 183 58 178 58 137 c 258
 58 33 l 256
81 459 m 256
 81 459 40 459 40 459 c 256
 40 366 93 278 208 278 c 256
 299 278 368 333 368 430 c 256
 328 447 l 256
 328 360 293 318 207 318 c 256
 117 318 83 402 81 459 c 256
EndSplineSet
PickledDataWithLists: "(dp1
S'com.fontlab.hintData'
p2
(dp3
S'vhints'
p4
(lp5
(dp6
S'position'
p7
I4
sS'width'
p8
I122
sa(dp9
g7
I22
sg8
I148
sa(dp10
g7
I266
sg8
I122
sa(dp11
g7
I436
sg8
I123
sasS'hhints'
p12
(lp13
(dp14
g7
I0
sg8
I122
sa(dp15
g7
I141
sg8
I122
sa(dp16
g7
I545
sg8
I159
sa(dp17
g7
I583
sg8
I84
sass."
EndChar

StartChar: tml_Uu
Encoding: 174 2954 173
GlifName: tml_U_u
Width: 1383
VWidth: 0
GlyphClass: 2
Flags: W
HStem: 0 122 141 122 149 101 343 101 537 101 545 159 583 84
VStem: 39 122 57 148 301 122 471 123 659 103 659 140 883 101
LayerCount: 2
Back
Fore
SplineSet
793 149 m 257
 887 150 932 228 931 286 c 258
 930 305 l 256
 930 387 880 444 794 444 c 256
 794 404 l 257
 829 403 889 393 890 297 c 256
 891 213 832 190 793 190 c 256
 793 149 l 257
606 312 m 258
 606 285 l 258
 606 213 659 149 746 149 c 256
 746 190 l 257
 697 190 646 216 646 297 c 256
 646 383 714 403 746 404 c 256
 746 444 l 257
 706 444 605 413 606 312 c 258
606 316 m 257
 611 341 645 352 645 399 c 256
 645 497 709 597 814 597 c 258
 818 597 l 256
 818 637 l 257
 816 637 l 258
 671 637 606 498 606 415 c 257
 606 316 l 257
864 598 m 257
 866 598 l 258
 931 598 992 562 993 440 c 257
 994 149 l 257
 1035 149 l 257
 1031 441 l 257
 1030 522 1002 638 865 638 c 258
 864 638 l 257
 864 598 l 257
993 429 m 257
 1031 429 l 257
 1031 482 1028 598 1114 598 c 257
 1114 638 l 257
 1108 638 l 258
 994 638 993 498 993 429 c 257
1162 598 m 257
 1343 598 l 257
 1343 638 l 257
 1162 638 l 257
 1162 598 l 257
1242 149 m 257
 1283 149 l 257
 1283 621 l 257
 1242 621 l 257
 1242 149 l 257
259 0 m 257
 1328 0 l 257
 1328 38 l 257
 259 38 l 257
 259 0 l 257
EndSplineSet
Refer: 172 2953 N 1 0 0 1 0 0 2
PickledDataWithLists: "(dp1
S'com.fontlab.hintData'
p2
(dp3
S'vhints'
p4
(lp5
(dp6
S'position'
p7
I39
sS'width'
p8
I122
sa(dp9
g7
I57
sg8
I148
sa(dp10
g7
I301
sg8
I122
sa(dp11
g7
I471
sg8
I123
sa(dp12
g7
I659
sg8
I103
sa(dp13
g7
I659
sg8
I140
sa(dp14
g7
I883
sg8
I101
sasS'hhints'
p15
(lp16
(dp17
g7
I0
sg8
I122
sa(dp18
g7
I141
sg8
I122
sa(dp19
g7
I149
sg8
I101
sa(dp20
g7
I343
sg8
I101
sa(dp21
g7
I537
sg8
I101
sa(dp22
g7
I545
sg8
I159
sa(dp23
g7
I583
sg8
I84
sass."
EndChar

StartChar: tml_VI
Encoding: 175 -1 174
GlifName: tml_V_I_
Width: 999
VWidth: 0
GlyphClass: 2
Flags: W
LayerCount: 2
Back
Fore
SplineSet
802 739 m 257
 912 739 914 655 914 594 c 258
 914 0 l 257
 955 0 l 257
 955 597 l 258
 955 692 932 779 802 779 c 257
 802 739 l 257
715 595 m 257
 640 595 640 740 748 740 c 256
 748 740 l 256
 748 779 l 257
 748 779 l 257
 588 779 587 560 715 560 c 257
 715 595 l 257
EndSplineSet
Refer: 178 2997 N 1 0 0 1 0 0 2
EndChar

StartChar: tml_VIi
Encoding: 176 -1 175
GlifName: tml_V_I_i
Width: 998
VWidth: 0
GlyphClass: 2
Flags: W
LayerCount: 2
Back
Fore
SplineSet
806 896 m 257
 863 896 918 858 918 808 c 256
 918 749 880 729 850 729 c 256
 814 729 788 756 788 772 c 256
 760 739 l 257
 772 716 806 689 851 689 c 256
 998 689 1006 936 805 936 c 257
 607 936 526 674 719 566 c 257
 753 595 l 257
 599 657 622 896 806 896 c 257
EndSplineSet
Refer: 178 2997 N 1 0 0 1 0 0 2
EndChar

StartChar: tml_VU
Encoding: 177 -1 176
GlifName: tml_V_U_
Width: 830
VWidth: 0
GlyphClass: 2
Flags: W
LayerCount: 2
Back
Fore
SplineSet
714 -199 m 257
 755 -199 l 257
 755 595 l 257
 714 595 l 257
 714 -199 l 257
EndSplineSet
Refer: 178 2997 N 1 0 0 1 2 0 2
EndChar

StartChar: tml_VUu
Encoding: 178 -1 177
GlifName: tml_V_U_u
Width: 944
VWidth: 0
GlyphClass: 2
Flags: W
LayerCount: 2
Back
Fore
SplineSet
446 -245 m 257
 446 -205 l 257
 163 -205 l 258
 122 -205 106 -189 106 -139 c 256
 106 -88 151 -79 167 -79 c 257
 183 -79 226 -84 226 -142 c 256
 267 -142 l 256
 267 -136 l 258
 267 -78 225 -39 167 -39 c 257
 112 -39 66 -78 66 -140 c 258
 66 -145 l 258
 66 -222 108 -245 159 -245 c 258
 446 -245 l 257
499 -205 m 256
 499 -245 l 257
 845 -245 l 258
 881 -245 903 -225 903 -180 c 258
 903 -7 l 258
 903 26 887 38 840 38 c 258
 757 38 l 257
 757 -2 l 256
 863 -2 l 256
 863 -205 l 256
 499 -205 l 256
731 -143 m 257
 773 -143 l 257
 773 155 l 257
 759 154 745 181 731 155 c 257
 731 -143 l 257
EndSplineSet
Refer: 178 2997 N 1 0 0 1 19 0 2
EndChar

StartChar: tml_Va
Encoding: 179 2997 178
GlifName: tml_V_a
Width: 793
VWidth: 0
GlyphClass: 2
Flags: W
AnchorPoint: "tml_virama" 581 0 basechar 0
LayerCount: 2
Back
Fore
SplineSet
247 0 m 257
 319 0 384 75 383 173 c 258
 383 196 l 258
 383 292 320 359 247 359 c 256
 247 319 l 257
 289 319 341 282 341 183 c 256
 341 88 291 40 247 40 c 257
 247 0 l 257
40 172 m 258
 40 88 104 0 192 0 c 256
 192 40 l 257
 142 40 79 91 79 181 c 256
 79 295 155 319 192 319 c 256
 192 359 l 257
 116 359 40 300 40 196 c 258
 40 172 l 258
40 204 m 257
 80 306 l 256
 82 443 149 565 263 565 c 257
 263 605 l 257
 125 605 40 469 40 302 c 257
 40 204 l 257
314 565 m 257
 431 565 489 473 490 354 c 257
 490 76 l 258
 490 40 484 40 417 40 c 257
 417 0 l 257
 657 0 l 257
 657 40 l 257
 531 40 l 257
 531 355 l 257
 530 466 476 605 314 605 c 257
 314 565 l 257
712 0 m 257
 753 0 l 257
 753 595 l 257
 712 595 l 257
 712 0 l 257
EndSplineSet
EndChar

StartChar: tml_Virama
Encoding: 180 3021 179
GlifName: tml_V_irama
Width: 0
VWidth: 0
GlyphClass: 2
Flags: W
AnchorPoint: "tml_virama" 0 0 mark 0
LayerCount: 2
Back
Fore
SplineSet
-34 725 m 256
 -34 705 -19 689 1 689 c 256
 20 689 36 705 36 725 c 256
 36 745 20 761 1 761 c 256
 -19 761 -34 745 -34 725 c 256
EndSplineSet
EndChar

StartChar: tml_Visarga
Encoding: 181 2947 180
GlifName: tml_V_isarga
Width: 654
VWidth: 0
GlyphClass: 2
Flags: W
LayerCount: 2
Back
Fore
SplineSet
109 187 m 256
 148 187 179 156 179 118 c 256
 179 79 148 48 109 48 c 256
 71 48 40 79 40 118 c 256
 40 156 71 187 109 187 c 256
325 579 m 256
 363 579 394 548 394 510 c 256
 394 471 363 440 325 440 c 256
 287 440 256 471 256 510 c 256
 256 548 287 579 325 579 c 256
545 190 m 256
 583 190 614 159 614 121 c 256
 614 83 583 52 545 52 c 256
 506 52 475 83 475 121 c 256
 475 159 506 190 545 190 c 256
EndSplineSet
EndChar

StartChar: tml_YI
Encoding: 182 -1 181
GlifName: tml_Y_I_
Width: 954
VWidth: 0
GlyphClass: 2
Flags: W
LayerCount: 2
Back
Fore
SplineSet
752 739 m 257
 862 739 864 655 864 594 c 258
 864 0 l 257
 905 0 l 257
 905 597 l 258
 905 692 882 779 752 779 c 257
 752 739 l 257
672 560 m 257
 672 595 l 256
 597 595 597 740 705 740 c 256
 705 740 l 256
 705 779 l 257
 705 779 l 257
 545 779 544 560 672 560 c 257
575 0 m 257
 714 0 l 257
 714 595 l 257
 672 595 l 257
 672 145 l 257
 672 50 629 40 581 40 c 258
 575 40 l 257
 575 0 l 257
64 140 m 258
 64 96 117 0 214 0 c 258
 220 0 l 257
 220 40 l 257
 214 40 l 258
 168 40 104 94 104 145 c 257
 104 595 l 257
 64 595 l 257
 64 140 l 258
274 0 m 257
 280 0 l 258
 319 0 379 14 398 39 c 257
 407 0 l 257
 522 0 l 257
 522 40 l 257
 516 40 l 258
 445 40 428 60 428 145 c 258
 428 595 l 257
 388 595 l 257
 388 145 l 257
 388 61 338 40 280 40 c 258
 274 40 l 257
 274 0 l 257
EndSplineSet
EndChar

StartChar: tml_YIi
Encoding: 183 -1 182
GlifName: tml_Y_I_i
Width: 935
VWidth: 0
GlyphClass: 2
Flags: W
LayerCount: 2
Back
Fore
SplineSet
743 896 m 257
 800 896 855 858 855 808 c 256
 855 749 817 729 787 729 c 256
 751 729 725 756 725 772 c 256
 697 739 l 257
 709 716 743 689 788 689 c 256
 935 689 943 936 742 936 c 257
 544 936 463 674 656 566 c 257
 690 595 l 257
 536 657 559 896 743 896 c 257
551 0 m 257
 690 0 l 257
 690 595 l 257
 648 595 l 257
 648 145 l 257
 648 50 605 40 557 40 c 258
 551 40 l 257
 551 0 l 257
40 140 m 258
 40 96 93 0 190 0 c 258
 196 0 l 257
 196 40 l 257
 190 40 l 258
 144 40 80 94 80 145 c 257
 80 595 l 257
 40 595 l 257
 40 140 l 258
250 0 m 257
 256 0 l 258
 295 0 355 14 374 39 c 257
 383 0 l 257
 498 0 l 257
 498 40 l 257
 492 40 l 258
 421 40 404 60 404 145 c 258
 404 595 l 257
 364 595 l 257
 364 145 l 257
 364 61 314 40 256 40 c 258
 250 40 l 257
 250 0 l 257
EndSplineSet
EndChar

StartChar: tml_YU
Encoding: 184 -1 183
GlifName: tml_Y_U_
Width: 670
VWidth: 0
GlyphClass: 2
Flags: W
LayerCount: 2
Back
Fore
SplineSet
577 168 m 257
 577 -199 l 257
 617 -199 l 257
 617 168 l 257
 577 168 l 257
EndSplineSet
Refer: 185 2991 N 1 0 0 1 12 0 2
EndChar

StartChar: tml_YUu
Encoding: 185 -1 184
GlifName: tml_Y_U_u
Width: 817
VWidth: 0
GlyphClass: 2
Flags: W
HStem: -258 93 -106 93 0 119
VStem: -6 88 74 122 154 88 354 122 564 156 599 122 712 9 795 89
LayerCount: 2
Back
Fore
SplineSet
360 -205 m 257
 137 -205 l 258
 96 -205 80 -189 80 -139 c 256
 80 -88 125 -79 141 -79 c 257
 157 -79 200 -84 200 -142 c 256
 241 -142 l 256
 241 -136 l 258
 241 -78 199 -39 141 -39 c 257
 86 -39 40 -78 40 -140 c 258
 40 -145 l 258
 40 -222 82 -245 133 -245 c 258
 360 -245 l 257
 360 -205 l 257
413 -205 m 256
 413 -245 l 257
 719 -245 l 258
 755 -245 777 -225 777 -180 c 258
 777 -7 l 258
 777 26 761 38 714 38 c 258
 631 38 l 257
 631 -2 l 256
 737 -2 l 256
 737 -205 l 256
 413 -205 l 256
601 -143 m 257
 640 -143 l 257
 640 168 l 257
 601 168 l 257
 601 -143 l 257
EndSplineSet
Refer: 185 2991 N 1 0 0 1 35 0 2
PickledDataWithLists: "(dp1
S'com.fontlab.hintData'
p2
(dp3
S'vhints'
p4
(lp5
(dp6
S'position'
p7
I-6
sS'width'
p8
I88
sa(dp9
g7
I74
sg8
I122
sa(dp10
g7
I154
sg8
I88
sa(dp11
g7
I354
sg8
I122
sa(dp12
g7
I564
sg8
I156
sa(dp13
g7
I599
sg8
I122
sa(dp14
g7
I712
sg8
I9
sa(dp15
g7
I795
sg8
I89
sasS'hhints'
p16
(lp17
(dp18
g7
I-258
sg8
I93
sa(dp19
g7
I-106
sg8
I93
sa(dp20
g7
I0
sg8
I119
sass."
EndChar

StartChar: tml_Ya
Encoding: 186 2991 185
GlifName: tml_Y_a
Width: 645
VWidth: 0
GlyphClass: 2
Flags: W
HStem: 0 119
VStem: -1 122 279 122 489 156 523 122
AnchorPoint: "tml_virama" 401 0 basechar 0
LayerCount: 2
Back
Fore
SplineSet
488 0 m 257
 605 0 l 257
 605 595 l 257
 565 595 l 257
 565 77 l 257
 565 44 545 40 518 40 c 258
 488 40 l 257
 488 0 l 257
40 140 m 258
 40 57 111 0 160 0 c 258
 166 0 l 257
 166 40 l 257
 161 40 l 258
 125 40 80 87 80 145 c 257
 80 595 l 257
 40 595 l 257
 40 140 l 258
220 0 m 257
 226 0 l 258
 267 0 305 15 322 36 c 257
 322 0 l 257
 435 0 l 257
 436 40 l 257
 392 40 l 258
 373 40 358 45 358 82 c 258
 358 595 l 257
 318 595 l 257
 318 127 l 257
 318 62 271 40 226 40 c 258
 220 40 l 257
 220 0 l 257
EndSplineSet
PickledDataWithLists: "(dp1
S'com.fontlab.hintData'
p2
(dp3
S'vhints'
p4
(lp5
(dp6
S'position'
p7
I-1
sS'width'
p8
I122
sa(dp9
g7
I279
sg8
I122
sa(dp10
g7
I489
sg8
I156
sa(dp11
g7
I523
sg8
I122
sasS'hhints'
p12
(lp13
(dp14
g7
I0
sg8
I119
sass."
EndChar

StartChar: tml_Year
Encoding: 187 3061 186
GlifName: tml_Y_ear
Width: 1689
VWidth: 0
GlyphClass: 2
Flags: W
LayerCount: 2
Back
Fore
SplineSet
79 36 m 258
 79 -94 146 -158 233 -158 c 258
 726 -158 l 257
 726 -118 l 257
 240 -118 l 258
 175 -118 119 -77 119 35 c 258
 119 558 l 258
 119 654 172 696 239 696 c 257
 726 696 l 257
 726 736 l 257
 238 736 l 257
 170 736 79 696 79 562 c 258
 79 36 l 258
490 565 m 257
 607 565 665 473 666 354 c 257
 666 76 l 258
 666 40 660 40 593 40 c 257
 593 0 l 257
 832 0 l 257
 832 40 l 257
 707 40 l 257
 707 355 l 257
 706 466 652 605 490 605 c 257
 490 565 l 257
779 -118 m 257
 779 -158 l 257
 1252 -158 l 258
 1346 -158 1391 -90 1391 4 c 258
 1391 115 l 258
 1391 223 1313 260 1265 266 c 257
 1265 226 l 257
 1290 226 1351 196 1351 116 c 258
 1351 1 l 258
 1351 -85 1308 -118 1251 -118 c 258
 779 -118 l 257
216 172 m 258
 216 88 280 0 368 0 c 256
 368 40 l 257
 318 40 255 91 255 181 c 256
 255 295 331 319 368 319 c 256
 368 359 l 257
 292 359 216 300 216 196 c 258
 216 172 l 258
423 0 m 257
 495 0 560 75 559 173 c 258
 559 196 l 258
 559 292 496 359 423 359 c 256
 423 319 l 257
 465 319 517 282 517 183 c 256
 517 88 467 40 423 40 c 257
 423 0 l 257
779 696 m 256
 1238 696 l 258
 1389 696 1362 563 1412 517 c 257
 1454 517 l 257
 1403 561 1432 736 1236 736 c 258
 779 736 l 257
 779 696 l 256
216 204 m 257
 256 306 l 256
 258 443 325 565 439 565 c 257
 439 605 l 257
 301 605 216 469 216 302 c 257
 216 204 l 257
887 0 m 257
 927 0 l 257
 927 593 l 257
 887 592 l 257
 887 0 l 257
887 555 m 257
 1022 555 l 257
 1022 595 l 257
 887 595 l 257
 887 555 l 257
1170 0 m 257
 1210 0 l 257
 1210 593 l 257
 1170 593 l 257
 1170 0 l 257
1075 555 m 257
 1294 555 l 257
 1294 595 l 257
 1075 595 l 257
 1075 555 l 257
EndSplineSet
EndChar

StartChar: tml_Zero
Encoding: 188 3046 187
GlifName: tml_Z_ero
Width: 524
VWidth: 0
GlyphClass: 2
Flags: W
HStem: -11 123 2 124 249 122 348 23 470 125 470 71
VStem: -82 121 43 162 43 122 298 122 534 122
LayerCount: 2
Back
Fore
SplineSet
281 620 m 256
 281 576 l 256
 409 576 434 489 434 302 c 256
 434 149 389 28 281 28 c 256
 281 -11 l 256
 396 -11 480 70 480 302 c 256
 480 560 414 620 281 620 c 256
245 620 m 256
 112 620 46 560 46 302 c 256
 46 70 130 -11 245 -11 c 256
 245 28 l 256
 137 28 92 149 92 302 c 256
 92 489 117 576 245 576 c 256
 245 620 l 256
EndSplineSet
PickledDataWithLists: "(dp1
S'com.fontlab.hintData'
p2
(dp3
S'vhints'
p4
(lp5
(dp6
S'position'
p7
I-82
sS'width'
p8
I121
sa(dp9
g7
I43
sg8
I162
sa(dp10
g7
I43
sg8
I122
sa(dp11
g7
I298
sg8
I122
sa(dp12
g7
I534
sg8
I122
sasS'hhints'
p13
(lp14
(dp15
g7
I-11
sg8
I123
sa(dp16
g7
I2
sg8
I124
sa(dp17
g7
I249
sg8
I122
sa(dp18
g7
I348
sg8
I23
sa(dp19
g7
I470
sg8
I125
sa(dp20
g7
I470
sg8
I71
sass."
EndChar

